<svg width="307" height="157" viewBox="0 0 307 157" fill="none" xmlns="http://www.w3.org/2000/svg">
<g filter="url(#filter0_d_8930_3820)">
<mask id="mask0_8930_3820" style="mask-type:alpha" maskUnits="userSpaceOnUse" x="14" y="13" width="279" height="129">
<path d="M292.902 131.284C292.902 136.664 288.54 141.026 283.16 141.026L24.2248 141.026C18.8441 141.026 14.4822 136.664 14.4822 131.284L14.4823 58.0604C14.4823 52.6798 18.8442 48.3179 24.2248 48.3179L30.268 48.3179C40.4095 48.3179 48.5875 40.0154 48.4345 29.8751L48.3355 23.3186C48.2534 17.881 52.6388 13.429 58.077 13.429L283.159 13.429C288.54 13.429 292.902 17.7909 292.902 23.1715L292.902 131.284Z" fill="#3C3C3C"/>
</mask>
<g mask="url(#mask0_8930_3820)">
<path d="M292.508 131.207C292.508 136.586 288.148 140.948 282.768 140.949L24.2278 141.021C18.8461 141.022 14.4826 136.66 14.4826 131.278L14.4827 52.8405C14.4827 47.4598 18.8446 43.0979 24.2252 43.0979L30.2192 43.0979C40.3796 43.0979 48.5653 34.7657 48.385 24.6069L48.3625 23.341C48.2658 17.8947 52.6534 13.4272 58.1005 13.4255L282.762 13.355C288.144 13.3533 292.508 17.7157 292.508 23.0975L292.508 131.207Z" fill="#182137"/>
<path d="M66.7756 42.6338V29.5429H75.2898V31.5308H69.147V35.0848H74.8487V37.0727H69.147V40.6459H75.3409V42.6338H66.7756ZM86.3768 32.8156L82.8803 42.6338H80.3235L76.8271 32.8156H79.2944L81.5508 40.1089H81.6531L83.9158 32.8156H86.3768ZM87.978 42.6338V32.8156H90.2919V42.6338H87.978ZM89.1413 31.4221C88.7749 31.4221 88.4595 31.3007 88.1953 31.0578C87.9311 30.8106 87.799 30.5145 87.799 30.1693C87.799 29.8199 87.9311 29.5237 88.1953 29.2808C88.4595 29.0336 88.7749 28.9101 89.1413 28.9101C89.5121 28.9101 89.8274 29.0336 90.0874 29.2808C90.3516 29.5237 90.4837 29.8199 90.4837 30.1693C90.4837 30.5145 90.3516 30.8106 90.0874 31.0578C89.8274 31.3007 89.5121 31.4221 89.1413 31.4221ZM96.3148 42.8064C95.5435 42.8064 94.8532 42.6082 94.2438 42.2119C93.6344 41.8156 93.1529 41.2403 92.7992 40.4861C92.4455 39.7318 92.2686 38.8156 92.2686 37.7375C92.2686 36.6466 92.4476 35.7261 92.8056 34.9761C93.1678 34.2219 93.6557 33.653 94.2694 33.2694C94.883 32.8817 95.5669 32.6878 96.3212 32.6878C96.8965 32.6878 97.3695 32.7858 97.7402 32.9818C98.111 33.1736 98.405 33.4058 98.6223 33.6785C98.8397 33.947 99.008 34.2006 99.1273 34.4392H99.2232V29.5429H101.544V42.6338H99.2679V41.0869H99.1273C99.008 41.3256 98.8354 41.5791 98.6096 41.8476C98.3837 42.1118 98.0854 42.3376 97.7147 42.5251C97.3439 42.7126 96.8773 42.8064 96.3148 42.8064ZM96.9604 40.9079C97.4505 40.9079 97.8681 40.7758 98.2132 40.5116C98.5584 40.2432 98.8205 39.8703 98.9995 39.393C99.1784 38.9157 99.2679 38.3596 99.2679 37.7247C99.2679 37.0898 99.1784 36.5379 98.9995 36.0692C98.8248 35.6004 98.5648 35.2361 98.2196 34.9761C97.8787 34.7162 97.459 34.5862 96.9604 34.5862C96.4448 34.5862 96.0144 34.7204 95.6692 34.9889C95.324 35.2574 95.0641 35.6281 94.8894 36.1011C94.7147 36.5741 94.6273 37.1153 94.6273 37.7247C94.6273 38.3383 94.7147 38.8859 94.8894 39.3675C95.0684 39.8447 95.3304 40.2219 95.6756 40.4988C96.025 40.7716 96.4533 40.9079 96.9604 40.9079ZM108.356 42.8256C107.371 42.8256 106.521 42.621 105.805 42.2119C105.094 41.7986 104.546 41.2148 104.163 40.4605C103.779 39.702 103.587 38.8092 103.587 37.7822C103.587 36.7723 103.779 35.8859 104.163 35.1231C104.55 34.3561 105.092 33.7595 105.786 33.3334C106.481 32.903 107.297 32.6878 108.234 32.6878C108.839 32.6878 109.411 32.7858 109.947 32.9818C110.489 33.1736 110.966 33.4719 111.379 33.8767C111.797 34.2815 112.125 34.7971 112.364 35.4236C112.602 36.0457 112.722 36.7872 112.722 37.648V38.3575H104.674V36.7979H110.504C110.499 36.3547 110.403 35.9605 110.216 35.6153C110.028 35.2659 109.766 34.991 109.43 34.7907C109.097 34.5905 108.71 34.4903 108.266 34.4903C107.793 34.4903 107.378 34.6054 107.02 34.8355C106.662 35.0613 106.383 35.3596 106.183 35.7304C105.987 36.0969 105.886 36.4996 105.882 36.9385V38.3C105.882 38.871 105.987 39.3611 106.195 39.7702C106.404 40.175 106.696 40.4861 107.071 40.7034C107.446 40.9165 107.885 41.023 108.388 41.023C108.724 41.023 109.029 40.9761 109.302 40.8824C109.575 40.7844 109.811 40.6416 110.011 40.4541C110.212 40.2666 110.363 40.0344 110.465 39.7574L112.626 40.0003C112.489 40.5713 112.229 41.0699 111.846 41.496C111.467 41.9179 110.981 42.246 110.388 42.4804C109.796 42.7105 109.119 42.8256 108.356 42.8256ZM116.993 36.8809V42.6338H114.679V32.8156H116.891V34.4839H117.006C117.232 33.9342 117.592 33.4974 118.086 33.1736C118.585 32.8497 119.2 32.6878 119.933 32.6878C120.611 32.6878 121.201 32.8327 121.704 33.1224C122.211 33.4122 122.603 33.8319 122.88 34.3817C123.161 34.9314 123.3 35.5983 123.296 36.3824V42.6338H120.982V36.7403C120.982 36.0841 120.811 35.5706 120.47 35.1998C120.134 34.8291 119.667 34.6437 119.07 34.6437C118.666 34.6437 118.306 34.7332 117.99 34.9122C117.679 35.0869 117.434 35.3405 117.255 35.6729C117.08 36.0052 116.993 36.4079 116.993 36.8809ZM129.931 42.8256C128.95 42.8256 128.109 42.6104 127.406 42.18C126.707 41.7496 126.168 41.1551 125.789 40.3966C125.414 39.6338 125.226 38.7559 125.226 37.7631C125.226 36.7659 125.418 35.8859 125.801 35.1231C126.185 34.3561 126.726 33.7595 127.425 33.3334C128.128 32.903 128.959 32.6878 129.918 32.6878C130.715 32.6878 131.42 32.8348 132.034 33.1288C132.651 33.4186 133.144 33.8298 133.51 34.3625C133.877 34.8909 134.085 35.5088 134.137 36.2162H131.925C131.835 35.7432 131.622 35.349 131.286 35.0336C130.953 34.714 130.508 34.5542 129.95 34.5542C129.477 34.5542 129.061 34.6821 128.703 34.9378C128.345 35.1892 128.066 35.5514 127.866 36.0244C127.67 36.4974 127.572 37.0642 127.572 37.7247C127.572 38.3937 127.67 38.969 127.866 39.4506C128.062 39.9278 128.337 40.2964 128.691 40.5564C129.048 40.8121 129.468 40.9399 129.95 40.9399C130.291 40.9399 130.595 40.876 130.864 40.7481C131.137 40.616 131.365 40.4264 131.548 40.1792C131.731 39.9321 131.857 39.6317 131.925 39.278H134.137C134.081 39.9726 133.877 40.5883 133.523 41.1253C133.169 41.6579 132.688 42.0756 132.078 42.3781C131.469 42.6764 130.753 42.8256 129.931 42.8256ZM140.383 42.8256C139.399 42.8256 138.549 42.621 137.833 42.2119C137.121 41.7986 136.574 41.2148 136.19 40.4605C135.806 39.702 135.615 38.8092 135.615 37.7822C135.615 36.7723 135.806 35.8859 136.19 35.1231C136.578 34.3561 137.119 33.7595 137.814 33.3334C138.508 32.903 139.324 32.6878 140.262 32.6878C140.867 32.6878 141.438 32.7858 141.975 32.9818C142.516 33.1736 142.993 33.4719 143.407 33.8767C143.824 34.2815 144.152 34.7971 144.391 35.4236C144.63 36.0457 144.749 36.7872 144.749 37.648V38.3575H136.701V36.7979H142.531C142.527 36.3547 142.431 35.9605 142.243 35.6153C142.056 35.2659 141.794 34.991 141.457 34.7907C141.125 34.5905 140.737 34.4903 140.294 34.4903C139.821 34.4903 139.405 34.6054 139.047 34.8355C138.689 35.0613 138.41 35.3596 138.21 35.7304C138.014 36.0969 137.914 36.4996 137.909 36.9385V38.3C137.909 38.871 138.014 39.3611 138.223 39.7702C138.431 40.175 138.723 40.4861 139.098 40.7034C139.473 40.9165 139.912 41.023 140.415 41.023C140.752 41.023 141.056 40.9761 141.329 40.8824C141.602 40.7844 141.838 40.6416 142.039 40.4541C142.239 40.2666 142.39 40.0344 142.493 39.7574L144.653 40.0003C144.517 40.5713 144.257 41.0699 143.873 41.496C143.494 41.9179 143.008 42.246 142.416 42.4804C141.824 42.7105 141.146 42.8256 140.383 42.8256ZM152.657 36.229V38.1338H146.764V36.229H152.657ZM155.194 42.6338V29.5429H160.205C161.151 29.5429 161.937 29.692 162.564 29.9903C163.194 30.2844 163.665 30.6871 163.976 31.1984C164.292 31.7098 164.449 32.2893 164.449 32.9371C164.449 33.4697 164.347 33.9257 164.142 34.305C163.938 34.68 163.663 34.9846 163.318 35.219C162.973 35.4534 162.587 35.6217 162.161 35.724V35.8518C162.625 35.8774 163.071 36.0202 163.497 36.2801C163.927 36.5358 164.279 36.898 164.551 37.3667C164.824 37.8355 164.961 38.4023 164.961 39.067C164.961 39.7446 164.797 40.354 164.468 40.8952C164.14 41.4321 163.646 41.8561 162.985 42.1672C162.325 42.4782 161.494 42.6338 160.493 42.6338H155.194ZM157.565 40.6523H160.115C160.976 40.6523 161.596 40.4882 161.975 40.1601C162.359 39.8277 162.551 39.4015 162.551 38.8817C162.551 38.4939 162.455 38.1444 162.263 37.8334C162.071 37.518 161.799 37.2709 161.445 37.0919C161.091 36.9086 160.669 36.817 160.179 36.817H157.565V40.6523ZM157.565 35.1104H159.911C160.32 35.1104 160.689 35.0358 161.017 34.8866C161.345 34.7332 161.603 34.518 161.79 34.241C161.982 33.9598 162.078 33.6274 162.078 33.2439C162.078 32.7368 161.899 32.3192 161.541 31.991C161.187 31.6629 160.661 31.4988 159.962 31.4988H157.565V35.1104ZM169.747 42.8319C169.124 42.8319 168.564 42.7211 168.066 42.4996C167.571 42.2737 167.179 41.9413 166.889 41.5024C166.604 41.0635 166.461 40.5223 166.461 39.8788C166.461 39.3248 166.563 38.8667 166.768 38.5045C166.972 38.1423 167.252 37.8525 167.605 37.6352C167.959 37.4179 168.357 37.2538 168.801 37.143C169.248 37.028 169.71 36.9449 170.188 36.8937C170.763 36.8341 171.23 36.7808 171.588 36.7339C171.945 36.6828 172.205 36.6061 172.367 36.5038C172.534 36.3973 172.617 36.2332 172.617 36.0116V35.9733C172.617 35.4917 172.474 35.1189 172.188 34.8547C171.903 34.5905 171.492 34.4584 170.955 34.4584C170.388 34.4584 169.938 34.5819 169.606 34.8291C169.278 35.0763 169.056 35.3682 168.941 35.7048L166.781 35.398C166.951 34.8014 167.232 34.3028 167.624 33.9023C168.017 33.4974 168.496 33.1949 169.063 32.9946C169.629 32.79 170.256 32.6878 170.942 32.6878C171.415 32.6878 171.886 32.7432 172.355 32.854C172.823 32.9648 173.252 33.148 173.639 33.4037C174.027 33.6551 174.338 33.9981 174.573 34.4328C174.811 34.8675 174.931 35.4108 174.931 36.0628V42.6338H172.706V41.2851H172.629C172.489 41.5578 172.291 41.8135 172.035 42.0521C171.784 42.2865 171.466 42.4761 171.083 42.621C170.703 42.7616 170.258 42.8319 169.747 42.8319ZM170.347 41.1317C170.812 41.1317 171.215 41.04 171.556 40.8568C171.896 40.6693 172.159 40.4221 172.342 40.1153C172.529 39.8085 172.623 39.474 172.623 39.1118V37.9548C172.551 38.0145 172.427 38.0699 172.252 38.121C172.082 38.1721 171.89 38.2169 171.677 38.2552C171.464 38.2936 171.253 38.3277 171.044 38.3575C170.835 38.3873 170.654 38.4129 170.501 38.4342C170.156 38.4811 169.847 38.5578 169.574 38.6643C169.301 38.7709 169.086 38.92 168.928 39.1118C168.771 39.2993 168.692 39.5422 168.692 39.8405C168.692 40.2666 168.847 40.5883 169.159 40.8057C169.47 41.023 169.866 41.1317 170.347 41.1317ZM185.017 35.4108L182.908 35.6409C182.848 35.4278 182.744 35.2275 182.595 35.04C182.45 34.8525 182.254 34.7013 182.007 34.5862C181.759 34.4711 181.457 34.4136 181.099 34.4136C180.617 34.4136 180.213 34.518 179.884 34.7268C179.561 34.9356 179.401 35.2062 179.405 35.5386C179.401 35.8241 179.505 36.0564 179.718 36.2354C179.936 36.4143 180.294 36.5613 180.792 36.6764L182.467 37.0344C183.396 37.2346 184.086 37.5521 184.538 37.9868C184.994 38.4214 185.224 38.9903 185.228 39.6934C185.224 40.3113 185.043 40.8568 184.685 41.3298C184.331 41.7986 183.839 42.165 183.208 42.4292C182.578 42.6934 181.853 42.8256 181.035 42.8256C179.833 42.8256 178.866 42.5741 178.133 42.0713C177.4 41.5642 176.963 40.8589 176.823 39.9555L179.079 39.7382C179.181 40.1814 179.399 40.5159 179.731 40.7417C180.063 40.9676 180.496 41.0805 181.029 41.0805C181.578 41.0805 182.019 40.9676 182.352 40.7417C182.688 40.5159 182.857 40.2368 182.857 39.9044C182.857 39.6231 182.748 39.3909 182.531 39.2077C182.318 39.0244 181.985 38.8838 181.534 38.7858L179.859 38.4342C178.917 38.2382 178.22 37.9079 177.769 37.4434C177.317 36.9747 177.093 36.3824 177.097 35.6665C177.093 35.0613 177.257 34.5372 177.59 34.094C177.926 33.6466 178.393 33.3014 178.99 33.0585C179.59 32.8113 180.283 32.6878 181.067 32.6878C182.218 32.6878 183.123 32.9328 183.784 33.4229C184.448 33.9129 184.86 34.5756 185.017 35.4108ZM191.483 42.8256C190.498 42.8256 189.648 42.621 188.932 42.2119C188.221 41.7986 187.673 41.2148 187.29 40.4605C186.906 39.702 186.714 38.8092 186.714 37.7822C186.714 36.7723 186.906 35.8859 187.29 35.1231C187.677 34.3561 188.219 33.7595 188.913 33.3334C189.608 32.903 190.424 32.6878 191.361 32.6878C191.966 32.6878 192.537 32.7858 193.074 32.9818C193.616 33.1736 194.093 33.4719 194.506 33.8767C194.924 34.2815 195.252 34.7971 195.491 35.4236C195.729 36.0457 195.849 36.7872 195.849 37.648V38.3575H187.801V36.7979H193.631C193.626 36.3547 193.53 35.9605 193.343 35.6153C193.155 35.2659 192.893 34.991 192.557 34.7907C192.224 34.5905 191.836 34.4903 191.393 34.4903C190.92 34.4903 190.505 34.6054 190.147 34.8355C189.789 35.0613 189.51 35.3596 189.309 35.7304C189.113 36.0969 189.013 36.4996 189.009 36.9385V38.3C189.009 38.871 189.113 39.3611 189.322 39.7702C189.531 40.175 189.823 40.4861 190.198 40.7034C190.573 40.9165 191.012 41.023 191.515 41.023C191.851 41.023 192.156 40.9761 192.429 40.8824C192.702 40.7844 192.938 40.6416 193.138 40.4541C193.339 40.2666 193.49 40.0344 193.592 39.7574L195.753 40.0003C195.616 40.5713 195.356 41.0699 194.973 41.496C194.594 41.9179 194.108 42.246 193.515 42.4804C192.923 42.7105 192.246 42.8256 191.483 42.8256ZM201.45 42.8064C200.678 42.8064 199.988 42.6082 199.379 42.2119C198.769 41.8156 198.288 41.2403 197.934 40.4861C197.58 39.7318 197.403 38.8156 197.403 37.7375C197.403 36.6466 197.582 35.7261 197.94 34.9761C198.303 34.2219 198.79 33.653 199.404 33.2694C200.018 32.8817 200.702 32.6878 201.456 32.6878C202.031 32.6878 202.504 32.7858 202.875 32.9818C203.246 33.1736 203.54 33.4058 203.757 33.6785C203.974 33.947 204.143 34.2006 204.262 34.4392H204.358V29.5429H206.678V42.6338H204.403V41.0869H204.262C204.143 41.3256 203.97 41.5791 203.744 41.8476C203.518 42.1118 203.22 42.3376 202.849 42.5251C202.479 42.7126 202.012 42.8064 201.45 42.8064ZM202.095 40.9079C202.585 40.9079 203.003 40.7758 203.348 40.5116C203.693 40.2432 203.955 39.8703 204.134 39.393C204.313 38.9157 204.403 38.3596 204.403 37.7247C204.403 37.0898 204.313 36.5379 204.134 36.0692C203.96 35.6004 203.7 35.2361 203.354 34.9761C203.013 34.7162 202.594 34.5862 202.095 34.5862C201.58 34.5862 201.149 34.7204 200.804 34.9889C200.459 35.2574 200.199 35.6281 200.024 36.1011C199.849 36.5741 199.762 37.1153 199.762 37.7247C199.762 38.3383 199.849 38.8859 200.024 39.3675C200.203 39.8447 200.465 40.2219 200.81 40.4988C201.16 40.7716 201.588 40.9079 202.095 40.9079ZM218.147 42.6338H213.711V29.5429H218.237C219.536 29.5429 220.653 29.805 221.586 30.3291C222.524 30.849 223.244 31.5969 223.747 32.5727C224.249 33.5486 224.501 34.7162 224.501 36.0756C224.501 37.4392 224.247 38.6111 223.74 39.5912C223.237 40.5713 222.511 41.3234 221.561 41.8476C220.615 42.3717 219.477 42.6338 218.147 42.6338ZM216.083 40.5819H218.032C218.944 40.5819 219.705 40.4157 220.314 40.0834C220.923 39.7467 221.382 39.246 221.688 38.5812C221.995 37.9122 222.149 37.077 222.149 36.0756C222.149 35.0741 221.995 34.2432 221.688 33.5827C221.382 32.9179 220.928 32.4214 220.327 32.0933C219.73 31.7609 218.989 31.5947 218.102 31.5947H216.083V40.5819ZM230.998 42.8256C230.014 42.8256 229.164 42.621 228.448 42.2119C227.736 41.7986 227.189 41.2148 226.805 40.4605C226.422 39.702 226.23 38.8092 226.23 37.7822C226.23 36.7723 226.422 35.8859 226.805 35.1231C227.193 34.3561 227.734 33.7595 228.429 33.3334C229.123 32.903 229.939 32.6878 230.877 32.6878C231.482 32.6878 232.053 32.7858 232.59 32.9818C233.131 33.1736 233.608 33.4719 234.022 33.8767C234.439 34.2815 234.768 34.7971 235.006 35.4236C235.245 36.0457 235.364 36.7872 235.364 37.648V38.3575H227.317V36.7979H233.146C233.142 36.3547 233.046 35.9605 232.858 35.6153C232.671 35.2659 232.409 34.991 232.072 34.7907C231.74 34.5905 231.352 34.4903 230.909 34.4903C230.436 34.4903 230.02 34.6054 229.662 34.8355C229.305 35.0613 229.025 35.3596 228.825 35.7304C228.629 36.0969 228.529 36.4996 228.525 36.9385V38.3C228.525 38.871 228.629 39.3611 228.838 39.7702C229.047 40.175 229.339 40.4861 229.714 40.7034C230.089 40.9165 230.528 41.023 231.03 41.023C231.367 41.023 231.672 40.9761 231.944 40.8824C232.217 40.7844 232.454 40.6416 232.654 40.4541C232.854 40.2666 233.006 40.0344 233.108 39.7574L235.268 40.0003C235.132 40.5713 234.872 41.0699 234.488 41.496C234.109 41.9179 233.623 42.246 233.031 42.4804C232.439 42.7105 231.761 42.8256 230.998 42.8256ZM245.082 35.4108L242.972 35.6409C242.913 35.4278 242.808 35.2275 242.659 35.04C242.514 34.8525 242.318 34.7013 242.071 34.5862C241.824 34.4711 241.521 34.4136 241.163 34.4136C240.682 34.4136 240.277 34.518 239.949 34.7268C239.625 34.9356 239.465 35.2062 239.469 35.5386C239.465 35.8241 239.57 36.0564 239.783 36.2354C240 36.4143 240.358 36.5613 240.857 36.6764L242.531 37.0344C243.46 37.2346 244.151 37.5521 244.602 37.9868C245.058 38.4214 245.288 38.9903 245.293 39.6934C245.288 40.3113 245.107 40.8568 244.749 41.3298C244.396 41.7986 243.903 42.165 243.273 42.4292C242.642 42.6934 241.918 42.8256 241.099 42.8256C239.898 42.8256 238.93 42.5741 238.197 42.0713C237.464 41.5642 237.028 40.8589 236.887 39.9555L239.143 39.7382C239.246 40.1814 239.463 40.5159 239.795 40.7417C240.128 40.9676 240.56 41.0805 241.093 41.0805C241.643 41.0805 242.084 40.9676 242.416 40.7417C242.753 40.5159 242.921 40.2368 242.921 39.9044C242.921 39.6231 242.813 39.3909 242.595 39.2077C242.382 39.0244 242.05 38.8838 241.598 38.7858L239.923 38.4342C238.982 38.2382 238.285 37.9079 237.833 37.4434C237.381 36.9747 237.158 36.3824 237.162 35.6665C237.158 35.0613 237.322 34.5372 237.654 34.094C237.991 33.6466 238.457 33.3014 239.054 33.0585C239.655 32.8113 240.347 32.6878 241.131 32.6878C242.282 32.6878 243.188 32.9328 243.848 33.4229C244.513 33.9129 244.924 34.5756 245.082 35.4108ZM247.201 42.6338V32.8156H249.515V42.6338H247.201ZM248.364 31.4221C247.998 31.4221 247.682 31.3007 247.418 31.0578C247.154 30.8106 247.022 30.5145 247.022 30.1693C247.022 29.8199 247.154 29.5237 247.418 29.2808C247.682 29.0336 247.998 28.9101 248.364 28.9101C248.735 28.9101 249.05 29.0336 249.31 29.2808C249.574 29.5237 249.706 29.8199 249.706 30.1693C249.706 30.5145 249.574 30.8106 249.31 31.0578C249.05 31.3007 248.735 31.4221 248.364 31.4221ZM256.164 46.5202C255.333 46.5202 254.619 46.4072 254.023 46.1814C253.426 45.9598 252.947 45.6615 252.584 45.2865C252.222 44.9115 251.971 44.496 251.83 44.04L253.914 43.5351C254.008 43.7268 254.144 43.9165 254.323 44.104C254.502 44.2957 254.743 44.4534 255.045 44.577C255.352 44.7048 255.738 44.7687 256.202 44.7687C256.858 44.7687 257.402 44.6089 257.832 44.2893C258.263 43.974 258.478 43.4541 258.478 42.7297V40.8696H258.363C258.243 41.1082 258.069 41.3532 257.839 41.6047C257.613 41.8561 257.312 42.067 256.937 42.2375C256.567 42.4079 256.1 42.4932 255.537 42.4932C254.783 42.4932 254.099 42.3163 253.486 41.9626C252.876 41.6047 252.39 41.072 252.028 40.3646C251.67 39.653 251.491 38.7623 251.491 37.6927C251.491 36.6146 251.67 35.7048 252.028 34.9633C252.39 34.2176 252.878 33.653 253.492 33.2694C254.106 32.8817 254.79 32.6878 255.544 32.6878C256.119 32.6878 256.592 32.7858 256.963 32.9818C257.338 33.1736 257.636 33.4058 257.858 33.6785C258.079 33.947 258.248 34.2006 258.363 34.4392H258.491V32.8156H260.773V42.7936C260.773 43.6331 260.572 44.3277 260.172 44.8774C259.771 45.4271 259.224 45.8383 258.529 46.1111C257.834 46.3838 257.046 46.5202 256.164 46.5202ZM256.183 40.6778C256.673 40.6778 257.091 40.5585 257.436 40.3199C257.781 40.0812 258.043 39.7382 258.222 39.2907C258.401 38.8433 258.491 38.3064 258.491 37.68C258.491 37.0621 258.401 36.5209 258.222 36.0564C258.047 35.5919 257.787 35.2318 257.442 34.9761C257.101 34.7162 256.682 34.5862 256.183 34.5862C255.667 34.5862 255.237 34.7204 254.892 34.9889C254.547 35.2574 254.287 35.626 254.112 36.0947C253.937 36.5592 253.85 37.0876 253.85 37.68C253.85 38.2808 253.937 38.8071 254.112 39.2588C254.291 39.7062 254.553 40.0557 254.898 40.3071C255.248 40.5542 255.676 40.6778 256.183 40.6778ZM265.458 36.8809V42.6338H263.144V32.8156H265.356V34.4839H265.471C265.697 33.9342 266.057 33.4974 266.551 33.1736C267.05 32.8497 267.665 32.6878 268.398 32.6878C269.076 32.6878 269.666 32.8327 270.169 33.1224C270.676 33.4122 271.068 33.8319 271.345 34.3817C271.626 34.9314 271.765 35.5983 271.76 36.3824V42.6338H269.447V36.7403C269.447 36.0841 269.276 35.5706 268.935 35.1998C268.599 34.8291 268.132 34.6437 267.535 34.6437C267.131 34.6437 266.77 34.7332 266.455 34.9122C266.144 35.0869 265.899 35.3405 265.72 35.6729C265.545 36.0052 265.458 36.4079 265.458 36.8809Z" fill="white"/>
<path d="M38.6907 67.3701H37.2816C37.1983 66.9648 37.0524 66.6088 36.8441 66.3019C36.6396 65.9951 36.3896 65.7375 36.0941 65.5292C35.8024 65.3171 35.4786 65.158 35.1225 65.0519C34.7665 64.9459 34.3952 64.8928 34.0089 64.8928C33.3043 64.8928 32.6661 65.0709 32.0941 65.4269C31.5259 65.783 31.0733 66.3076 30.7362 67.0008C30.4028 67.694 30.2362 68.5444 30.2362 69.5519C30.2362 70.5595 30.4028 71.4099 30.7362 72.1031C31.0733 72.7963 31.5259 73.3209 32.0941 73.6769C32.6661 74.033 33.3043 74.211 34.0089 74.211C34.3952 74.211 34.7665 74.158 35.1225 74.0519C35.4786 73.9459 35.8024 73.7887 36.0941 73.5803C36.3896 73.3682 36.6396 73.1088 36.8441 72.8019C37.0524 72.4913 37.1983 72.1353 37.2816 71.7338H38.6907C38.5846 72.3285 38.3915 72.8606 38.1112 73.3303C37.8308 73.8 37.4824 74.1997 37.0657 74.5292C36.649 74.855 36.1812 75.1031 35.6623 75.2735C35.1471 75.444 34.596 75.5292 34.0089 75.5292C33.0165 75.5292 32.1339 75.2868 31.3612 74.8019C30.5884 74.3171 29.9805 73.6277 29.5373 72.7338C29.0941 71.8398 28.8725 70.7792 28.8725 69.5519C28.8725 68.3247 29.0941 67.2641 29.5373 66.3701C29.9805 65.4762 30.5884 64.7868 31.3612 64.3019C32.1339 63.8171 33.0165 63.5747 34.0089 63.5747C34.596 63.5747 35.1471 63.6599 35.6623 63.8303C36.1812 64.0008 36.649 64.2508 37.0657 64.5803C37.4824 64.9061 37.8308 65.3038 38.1112 65.7735C38.3915 66.2394 38.5846 66.7716 38.6907 67.3701ZM40.7859 75.3701V66.6428H42.0813V67.961H42.1722C42.3313 67.5292 42.6192 67.1788 43.0359 66.9099C43.4525 66.6409 43.9222 66.5065 44.445 66.5065C44.5434 66.5065 44.6665 66.5084 44.8143 66.5122C44.962 66.516 45.0737 66.5216 45.1495 66.5292V67.8928C45.104 67.8815 44.9999 67.8644 44.837 67.8417C44.6779 67.8152 44.5094 67.8019 44.3313 67.8019C43.9071 67.8019 43.5283 67.891 43.195 68.069C42.8654 68.2432 42.604 68.4856 42.4109 68.7963C42.2215 69.1031 42.1268 69.4535 42.1268 69.8474V75.3701H40.7859ZM49.3072 75.5747C48.7541 75.5747 48.2522 75.4705 47.8015 75.2622C47.3507 75.05 46.9928 74.7451 46.7276 74.3474C46.4625 73.9459 46.3299 73.461 46.3299 72.8928C46.3299 72.3928 46.4284 71.9875 46.6254 71.6769C46.8223 71.3625 47.0856 71.1163 47.4151 70.9383C47.7447 70.7603 48.1083 70.6277 48.506 70.5406C48.9076 70.4497 49.311 70.3777 49.7163 70.3247C50.2466 70.2565 50.6765 70.2053 51.006 70.1713C51.3394 70.1334 51.5818 70.0709 51.7333 69.9838C51.8886 69.8966 51.9663 69.7451 51.9663 69.5292V69.4838C51.9663 68.9231 51.8129 68.4875 51.506 68.1769C51.203 67.8663 50.7428 67.711 50.1254 67.711C49.4852 67.711 48.9833 67.8512 48.6197 68.1315C48.256 68.4118 48.0004 68.711 47.8526 69.0292L46.5799 68.5747C46.8072 68.0444 47.1102 67.6315 47.489 67.336C47.8716 67.0368 48.2882 66.8285 48.739 66.711C49.1935 66.5898 49.6405 66.5292 50.0799 66.5292C50.3602 66.5292 50.6822 66.5633 51.0458 66.6315C51.4132 66.6959 51.7674 66.8303 52.1083 67.0349C52.453 67.2394 52.739 67.5481 52.9663 67.961C53.1935 68.3739 53.3072 68.9269 53.3072 69.6201V75.3701H51.9663V74.1883H51.8981C51.8072 74.3777 51.6557 74.5803 51.4435 74.7963C51.2314 75.0122 50.9492 75.1959 50.5969 75.3474C50.2447 75.4989 49.8147 75.5747 49.3072 75.5747ZM49.5117 74.3701C50.042 74.3701 50.489 74.266 50.8526 74.0576C51.2201 73.8493 51.4966 73.5803 51.6822 73.2508C51.8716 72.9213 51.9663 72.5747 51.9663 72.211V70.9838C51.9094 71.0519 51.7844 71.1144 51.5913 71.1713C51.4019 71.2243 51.1822 71.2716 50.9322 71.3133C50.686 71.3512 50.4454 71.3853 50.2106 71.4156C49.9795 71.4421 49.792 71.4648 49.6481 71.4838C49.2996 71.5292 48.9738 71.6031 48.6708 71.7053C48.3716 71.8038 48.1291 71.9535 47.9435 72.1542C47.7617 72.3512 47.6708 72.6201 47.6708 72.961C47.6708 73.4269 47.8432 73.7792 48.1879 74.0178C48.5363 74.2527 48.9776 74.3701 49.5117 74.3701ZM59.641 66.6428V67.7792H54.9364V66.6428H59.641ZM56.3455 75.3701V65.4383C56.3455 64.9383 56.4629 64.5216 56.6978 64.1883C56.9326 63.855 57.2376 63.605 57.6126 63.4383C57.9876 63.2716 58.3834 63.1883 58.8001 63.1883C59.1296 63.1883 59.3986 63.2148 59.6069 63.2678C59.8152 63.3209 59.9705 63.3701 60.0728 63.4156L59.6864 64.5747C59.6183 64.5519 59.5236 64.5235 59.4023 64.4894C59.2849 64.4553 59.1296 64.4383 58.9364 64.4383C58.4933 64.4383 58.1732 64.55 57.9762 64.7735C57.783 64.997 57.6864 65.3247 57.6864 65.7565V75.3701H56.3455ZM65.3157 66.6428V67.7792H60.793V66.6428H65.3157ZM62.1112 64.5519H63.4521V72.8701C63.4521 73.2489 63.507 73.533 63.6168 73.7224C63.7305 73.908 63.8744 74.033 64.0487 74.0974C64.2267 74.158 64.4142 74.1883 64.6112 74.1883C64.7589 74.1883 64.8801 74.1807 64.9748 74.1656C65.0695 74.1466 65.1452 74.1315 65.2021 74.1201L65.4748 75.3247C65.3839 75.3588 65.257 75.3928 65.0941 75.4269C64.9312 75.4648 64.7248 75.4838 64.4748 75.4838C64.096 75.4838 63.7248 75.4023 63.3612 75.2394C63.0013 75.0766 62.7021 74.8285 62.4634 74.4951C62.2286 74.1618 62.1112 73.7413 62.1112 73.2338V64.5519ZM67.3327 75.3701V66.6428H68.6737V75.3701H67.3327ZM68.0146 65.1883C67.7532 65.1883 67.5278 65.0993 67.3384 64.9213C67.1528 64.7432 67.06 64.5292 67.06 64.2792C67.06 64.0292 67.1528 63.8152 67.3384 63.6372C67.5278 63.4591 67.7532 63.3701 68.0146 63.3701C68.2759 63.3701 68.4994 63.4591 68.685 63.6372C68.8744 63.8152 68.9691 64.0292 68.9691 64.2792C68.9691 64.5292 68.8744 64.7432 68.685 64.9213C68.4994 65.0993 68.2759 65.1883 68.0146 65.1883ZM72.4705 70.1201V75.3701H71.1296V66.6428H72.4251V68.0065H72.5387C72.7433 67.5633 73.0539 67.2072 73.4705 66.9383C73.8872 66.6656 74.4251 66.5292 75.0842 66.5292C75.6751 66.5292 76.1921 66.6504 76.6353 66.8928C77.0785 67.1315 77.4232 67.4951 77.6694 67.9838C77.9156 68.4686 78.0387 69.0822 78.0387 69.8247V75.3701H76.6978V69.9156C76.6978 69.23 76.5198 68.6959 76.1637 68.3133C75.8076 67.9269 75.319 67.7338 74.6978 67.7338C74.2698 67.7338 73.8872 67.8266 73.5501 68.0122C73.2167 68.1978 72.9535 68.4686 72.7603 68.8247C72.5671 69.1807 72.4705 69.6125 72.4705 70.1201ZM84.0117 78.8247C83.364 78.8247 82.8072 78.7413 82.3413 78.5747C81.8754 78.4118 81.4871 78.1959 81.1765 77.9269C80.8697 77.6618 80.6254 77.3777 80.4435 77.0747L81.5117 76.3247C81.6329 76.4838 81.7863 76.6656 81.9719 76.8701C82.1576 77.0785 82.4113 77.2584 82.7333 77.4099C83.0591 77.5652 83.4852 77.6428 84.0117 77.6428C84.7163 77.6428 85.2977 77.4724 85.756 77.1315C86.2144 76.7906 86.4435 76.2565 86.4435 75.5292V73.7565H86.3299C86.2314 73.9156 86.0913 74.1125 85.9094 74.3474C85.7314 74.5785 85.4738 74.7849 85.1367 74.9667C84.8034 75.1447 84.3526 75.2338 83.7844 75.2338C83.0799 75.2338 82.4473 75.0671 81.8867 74.7338C81.3299 74.4004 80.8886 73.9156 80.5629 73.2792C80.2409 72.6428 80.0799 71.8701 80.0799 70.961C80.0799 70.0671 80.2371 69.2887 80.5515 68.6258C80.8659 67.9591 81.3034 67.444 81.864 67.0803C82.4246 66.7129 83.0723 66.5292 83.8072 66.5292C84.3754 66.5292 84.8261 66.6239 85.1594 66.8133C85.4966 66.9989 85.7541 67.211 85.9322 67.4497C86.114 67.6845 86.2541 67.8777 86.3526 68.0292H86.489V66.6428H87.7844V75.6201C87.7844 76.3701 87.614 76.98 87.2731 77.4497C86.936 77.9231 86.4814 78.2697 85.9094 78.4894C85.3413 78.7129 84.7087 78.8247 84.0117 78.8247ZM83.9663 74.0292C84.5041 74.0292 84.9587 73.9061 85.3299 73.6599C85.7011 73.4137 85.9833 73.0595 86.1765 72.5974C86.3697 72.1353 86.4663 71.5822 86.4663 70.9383C86.4663 70.3095 86.3716 69.7546 86.1822 69.2735C85.9928 68.7925 85.7125 68.4156 85.3413 68.1428C84.9701 67.8701 84.5117 67.7338 83.9663 67.7338C83.3981 67.7338 82.9246 67.8777 82.5458 68.1656C82.1708 68.4535 81.8886 68.8398 81.6992 69.3247C81.5136 69.8095 81.4208 70.3474 81.4208 70.9383C81.4208 71.5444 81.5155 72.0803 81.7049 72.5463C81.8981 73.0084 82.1822 73.372 82.5572 73.6372C82.936 73.8985 83.4057 74.0292 83.9663 74.0292ZM100.921 68.5974L99.7163 68.9383C99.6405 68.7375 99.5288 68.5425 99.381 68.3531C99.2371 68.1599 99.0401 68.0008 98.7901 67.8758C98.5401 67.7508 98.2201 67.6883 97.8299 67.6883C97.2958 67.6883 96.8507 67.8114 96.4947 68.0576C96.1424 68.3 95.9663 68.6088 95.9663 68.9838C95.9663 69.3171 96.0875 69.5803 96.3299 69.7735C96.5723 69.9667 96.9511 70.1277 97.4663 70.2565L98.7617 70.5747C99.542 70.7641 100.123 71.0538 100.506 71.444C100.889 71.8303 101.08 72.3285 101.08 72.9383C101.08 73.4383 100.936 73.8853 100.648 74.2792C100.364 74.6731 99.9663 74.9838 99.4549 75.211C98.9435 75.4383 98.3488 75.5519 97.6708 75.5519C96.7807 75.5519 96.0439 75.3588 95.4606 74.9724C94.8772 74.586 94.5079 74.0216 94.3526 73.2792L95.6254 72.961C95.7466 73.4307 95.9757 73.783 96.3129 74.0178C96.6538 74.2527 97.0988 74.3701 97.6481 74.3701C98.2731 74.3701 98.7693 74.2375 99.1367 73.9724C99.5079 73.7035 99.6935 73.3815 99.6935 73.0065C99.6935 72.7035 99.5875 72.4497 99.3754 72.2451C99.1632 72.0368 98.8375 71.8815 98.3981 71.7792L96.9435 71.4383C96.1443 71.2489 95.5572 70.9553 95.1822 70.5576C94.811 70.1561 94.6254 69.6542 94.6254 69.0519C94.6254 68.5595 94.7636 68.1239 95.0401 67.7451C95.3204 67.3663 95.7011 67.069 96.1822 66.8531C96.667 66.6372 97.2163 66.5292 97.8299 66.5292C98.6935 66.5292 99.3716 66.7186 99.864 67.0974C100.36 67.4762 100.712 67.9762 100.921 68.5974ZM106.644 75.5519C105.856 75.5519 105.165 75.3644 104.57 74.9894C103.979 74.6144 103.517 74.0898 103.184 73.4156C102.854 72.7413 102.689 71.9535 102.689 71.0519C102.689 70.1428 102.854 69.3493 103.184 68.6713C103.517 67.9932 103.979 67.4667 104.57 67.0917C105.165 66.7167 105.856 66.5292 106.644 66.5292C107.432 66.5292 108.121 66.7167 108.712 67.0917C109.307 67.4667 109.769 67.9932 110.098 68.6713C110.432 69.3493 110.598 70.1428 110.598 71.0519C110.598 71.9535 110.432 72.7413 110.098 73.4156C109.769 74.0898 109.307 74.6144 108.712 74.9894C108.121 75.3644 107.432 75.5519 106.644 75.5519ZM106.644 74.3474C107.242 74.3474 107.735 74.194 108.121 73.8872C108.507 73.5803 108.793 73.1769 108.979 72.6769C109.165 72.1769 109.257 71.6353 109.257 71.0519C109.257 70.4686 109.165 69.925 108.979 69.4213C108.793 68.9175 108.507 68.5103 108.121 68.1997C107.735 67.8891 107.242 67.7338 106.644 67.7338C106.045 67.7338 105.553 67.8891 105.167 68.1997C104.78 68.5103 104.494 68.9175 104.309 69.4213C104.123 69.925 104.03 70.4686 104.03 71.0519C104.03 71.6353 104.123 72.1769 104.309 72.6769C104.494 73.1769 104.78 73.5803 105.167 73.8872C105.553 74.194 106.045 74.3474 106.644 74.3474ZM113.986 63.7338V75.3701H112.645V63.7338H113.986ZM121.942 71.8019V66.6428H123.283V75.3701H121.942V73.8928H121.851C121.647 74.336 121.328 74.7129 120.897 75.0235C120.465 75.3303 119.919 75.4838 119.26 75.4838C118.715 75.4838 118.23 75.3644 117.806 75.1258C117.382 74.8834 117.048 74.5197 116.806 74.0349C116.563 73.5463 116.442 72.9307 116.442 72.1883V66.6428H117.783V72.0974C117.783 72.7338 117.961 73.2413 118.317 73.6201C118.677 73.9989 119.135 74.1883 119.692 74.1883C120.025 74.1883 120.364 74.1031 120.709 73.9326C121.058 73.7622 121.349 73.5008 121.584 73.1485C121.823 72.7963 121.942 72.3474 121.942 71.8019ZM129.534 66.6428V67.7792H125.012V66.6428H129.534ZM126.33 64.5519H127.671V72.8701C127.671 73.2489 127.726 73.533 127.836 73.7224C127.949 73.908 128.093 74.033 128.267 74.0974C128.445 74.158 128.633 74.1883 128.83 74.1883C128.978 74.1883 129.099 74.1807 129.194 74.1656C129.288 74.1466 129.364 74.1315 129.421 74.1201L129.694 75.3247C129.603 75.3588 129.476 75.3928 129.313 75.4269C129.15 75.4648 128.944 75.4838 128.694 75.4838C128.315 75.4838 127.944 75.4023 127.58 75.2394C127.22 75.0766 126.921 74.8285 126.682 74.4951C126.447 74.1618 126.33 73.7413 126.33 73.2338V64.5519ZM131.551 75.3701V66.6428H132.892V75.3701H131.551ZM132.233 65.1883C131.972 65.1883 131.747 65.0993 131.557 64.9213C131.372 64.7432 131.279 64.5292 131.279 64.2792C131.279 64.0292 131.372 63.8152 131.557 63.6372C131.747 63.4591 131.972 63.3701 132.233 63.3701C132.495 63.3701 132.718 63.4591 132.904 63.6372C133.093 63.8152 133.188 64.0292 133.188 64.2792C133.188 64.5292 133.093 64.7432 132.904 64.9213C132.718 65.0993 132.495 65.1883 132.233 65.1883ZM138.894 75.5519C138.106 75.5519 137.415 75.3644 136.82 74.9894C136.229 74.6144 135.767 74.0898 135.434 73.4156C135.104 72.7413 134.939 71.9535 134.939 71.0519C134.939 70.1428 135.104 69.3493 135.434 68.6713C135.767 67.9932 136.229 67.4667 136.82 67.0917C137.415 66.7167 138.106 66.5292 138.894 66.5292C139.682 66.5292 140.371 66.7167 140.962 67.0917C141.557 67.4667 142.019 67.9932 142.348 68.6713C142.682 69.3493 142.848 70.1428 142.848 71.0519C142.848 71.9535 142.682 72.7413 142.348 73.4156C142.019 74.0898 141.557 74.6144 140.962 74.9894C140.371 75.3644 139.682 75.5519 138.894 75.5519ZM138.894 74.3474C139.492 74.3474 139.985 74.194 140.371 73.8872C140.757 73.5803 141.043 73.1769 141.229 72.6769C141.415 72.1769 141.507 71.6353 141.507 71.0519C141.507 70.4686 141.415 69.925 141.229 69.4213C141.043 68.9175 140.757 68.5103 140.371 68.1997C139.985 67.8891 139.492 67.7338 138.894 67.7338C138.295 67.7338 137.803 67.8891 137.417 68.1997C137.03 68.5103 136.744 68.9175 136.559 69.4213C136.373 69.925 136.28 70.4686 136.28 71.0519C136.28 71.6353 136.373 72.1769 136.559 72.6769C136.744 73.1769 137.03 73.5803 137.417 73.8872C137.803 74.194 138.295 74.3474 138.894 74.3474ZM146.236 70.1201V75.3701H144.895V66.6428H146.191V68.0065H146.304C146.509 67.5633 146.819 67.2072 147.236 66.9383C147.653 66.6656 148.191 66.5292 148.85 66.5292C149.441 66.5292 149.958 66.6504 150.401 66.8928C150.844 67.1315 151.189 67.4951 151.435 67.9838C151.681 68.4686 151.804 69.0822 151.804 69.8247V75.3701H150.463V69.9156C150.463 69.23 150.285 68.6959 149.929 68.3133C149.573 67.9269 149.085 67.7338 148.463 67.7338C148.035 67.7338 147.653 67.8266 147.316 68.0122C146.982 68.1978 146.719 68.4686 146.526 68.8247C146.333 69.1807 146.236 69.6125 146.236 70.1201ZM160.436 68.5974L159.232 68.9383C159.156 68.7375 159.044 68.5425 158.897 68.3531C158.753 68.1599 158.556 68.0008 158.306 67.8758C158.056 67.7508 157.736 67.6883 157.346 67.6883C156.811 67.6883 156.366 67.8114 156.01 68.0576C155.658 68.3 155.482 68.6088 155.482 68.9838C155.482 69.3171 155.603 69.5803 155.846 69.7735C156.088 69.9667 156.467 70.1277 156.982 70.2565L158.277 70.5747C159.058 70.7641 159.639 71.0538 160.022 71.444C160.404 71.8303 160.596 72.3285 160.596 72.9383C160.596 73.4383 160.452 73.8853 160.164 74.2792C159.88 74.6731 159.482 74.9838 158.971 75.211C158.459 75.4383 157.864 75.5519 157.186 75.5519C156.296 75.5519 155.56 75.3588 154.976 74.9724C154.393 74.586 154.024 74.0216 153.868 73.2792L155.141 72.961C155.262 73.4307 155.491 73.783 155.828 74.0178C156.169 74.2527 156.614 74.3701 157.164 74.3701C157.789 74.3701 158.285 74.2375 158.652 73.9724C159.024 73.7035 159.209 73.3815 159.209 73.0065C159.209 72.7035 159.103 72.4497 158.891 72.2451C158.679 72.0368 158.353 71.8815 157.914 71.7792L156.459 71.4383C155.66 71.2489 155.073 70.9553 154.698 70.5576C154.327 70.1561 154.141 69.6542 154.141 69.0519C154.141 68.5595 154.279 68.1239 154.556 67.7451C154.836 67.3663 155.217 67.069 155.698 66.8531C156.183 66.6372 156.732 66.5292 157.346 66.5292C158.209 66.5292 158.887 66.7186 159.38 67.0974C159.876 67.4762 160.228 67.9762 160.436 68.5974ZM167.114 75.3701V66.6428H168.409V67.961H168.5C168.659 67.5292 168.947 67.1788 169.364 66.9099C169.781 66.6409 170.25 66.5065 170.773 66.5065C170.872 66.5065 170.995 66.5084 171.142 66.5122C171.29 66.516 171.402 66.5216 171.478 66.5292V67.8928C171.432 67.8815 171.328 67.8644 171.165 67.8417C171.006 67.8152 170.837 67.8019 170.659 67.8019C170.235 67.8019 169.856 67.891 169.523 68.069C169.194 68.2432 168.932 68.4856 168.739 68.7963C168.55 69.1031 168.455 69.4535 168.455 69.8474V75.3701H167.114ZM176.347 75.5519C175.559 75.5519 174.868 75.3644 174.273 74.9894C173.682 74.6144 173.22 74.0898 172.887 73.4156C172.557 72.7413 172.392 71.9535 172.392 71.0519C172.392 70.1428 172.557 69.3493 172.887 68.6713C173.22 67.9932 173.682 67.4667 174.273 67.0917C174.868 66.7167 175.559 66.5292 176.347 66.5292C177.135 66.5292 177.824 66.7167 178.415 67.0917C179.01 67.4667 179.472 67.9932 179.801 68.6713C180.135 69.3493 180.301 70.1428 180.301 71.0519C180.301 71.9535 180.135 72.7413 179.801 73.4156C179.472 74.0898 179.01 74.6144 178.415 74.9894C177.824 75.3644 177.135 75.5519 176.347 75.5519ZM176.347 74.3474C176.945 74.3474 177.438 74.194 177.824 73.8872C178.211 73.5803 178.497 73.1769 178.682 72.6769C178.868 72.1769 178.961 71.6353 178.961 71.0519C178.961 70.4686 178.868 69.925 178.682 69.4213C178.497 68.9175 178.211 68.5103 177.824 68.1997C177.438 67.8891 176.945 67.7338 176.347 67.7338C175.748 67.7338 175.256 67.8891 174.87 68.1997C174.483 68.5103 174.197 68.9175 174.012 69.4213C173.826 69.925 173.733 70.4686 173.733 71.0519C173.733 71.6353 173.826 72.1769 174.012 72.6769C174.197 73.1769 174.483 73.5803 174.87 73.8872C175.256 74.194 175.748 74.3474 176.347 74.3474ZM185.894 75.5519C185.106 75.5519 184.415 75.3644 183.82 74.9894C183.229 74.6144 182.767 74.0898 182.434 73.4156C182.104 72.7413 181.939 71.9535 181.939 71.0519C181.939 70.1428 182.104 69.3493 182.434 68.6713C182.767 67.9932 183.229 67.4667 183.82 67.0917C184.415 66.7167 185.106 66.5292 185.894 66.5292C186.682 66.5292 187.371 66.7167 187.962 67.0917C188.557 67.4667 189.019 67.9932 189.348 68.6713C189.682 69.3493 189.848 70.1428 189.848 71.0519C189.848 71.9535 189.682 72.7413 189.348 73.4156C189.019 74.0898 188.557 74.6144 187.962 74.9894C187.371 75.3644 186.682 75.5519 185.894 75.5519ZM185.894 74.3474C186.492 74.3474 186.985 74.194 187.371 73.8872C187.757 73.5803 188.043 73.1769 188.229 72.6769C188.415 72.1769 188.507 71.6353 188.507 71.0519C188.507 70.4686 188.415 69.925 188.229 69.4213C188.043 68.9175 187.757 68.5103 187.371 68.1997C186.985 67.8891 186.492 67.7338 185.894 67.7338C185.295 67.7338 184.803 67.8891 184.417 68.1997C184.03 68.5103 183.744 68.9175 183.559 69.4213C183.373 69.925 183.28 70.4686 183.28 71.0519C183.28 71.6353 183.373 72.1769 183.559 72.6769C183.744 73.1769 184.03 73.5803 184.417 73.8872C184.803 74.194 185.295 74.3474 185.894 74.3474ZM195.691 66.6428V67.7792H191.168V66.6428H195.691ZM192.486 64.5519H193.827V72.8701C193.827 73.2489 193.882 73.533 193.992 73.7224C194.105 73.908 194.249 74.033 194.424 74.0974C194.602 74.158 194.789 74.1883 194.986 74.1883C195.134 74.1883 195.255 74.1807 195.35 74.1656C195.444 74.1466 195.52 74.1315 195.577 74.1201L195.85 75.3247C195.759 75.3588 195.632 75.3928 195.469 75.4269C195.306 75.4648 195.1 75.4838 194.85 75.4838C194.471 75.4838 194.1 75.4023 193.736 75.2394C193.376 75.0766 193.077 74.8285 192.838 74.4951C192.604 74.1618 192.486 73.7413 192.486 73.2338V64.5519ZM201.273 75.5519C200.432 75.5519 199.707 75.3663 199.097 74.9951C198.491 74.6201 198.023 74.0974 197.694 73.4269C197.368 72.7527 197.205 71.9686 197.205 71.0747C197.205 70.1807 197.368 69.3928 197.694 68.711C198.023 68.0254 198.481 67.4913 199.069 67.1088C199.659 66.7224 200.349 66.5292 201.137 66.5292C201.591 66.5292 202.04 66.605 202.483 66.7565C202.926 66.908 203.33 67.1542 203.694 67.4951C204.057 67.8322 204.347 68.2792 204.563 68.836C204.779 69.3928 204.887 70.0785 204.887 70.8928V71.461H198.159V70.3019H203.523C203.523 69.8095 203.425 69.3701 203.228 68.9838C203.034 68.5974 202.758 68.2925 202.398 68.069C202.042 67.8455 201.622 67.7338 201.137 67.7338C200.603 67.7338 200.141 67.8663 199.75 68.1315C199.364 68.3928 199.067 68.7338 198.858 69.1542C198.65 69.5747 198.546 70.0254 198.546 70.5065V71.2792C198.546 71.9383 198.659 72.497 198.887 72.9553C199.118 73.4099 199.438 73.7565 199.847 73.9951C200.256 74.23 200.731 74.3474 201.273 74.3474C201.625 74.3474 201.944 74.2981 202.228 74.1997C202.516 74.0974 202.764 73.9459 202.972 73.7451C203.18 73.5406 203.341 73.2868 203.455 72.9838L204.75 73.3474C204.614 73.7868 204.385 74.1731 204.063 74.5065C203.741 74.836 203.343 75.0936 202.87 75.2792C202.396 75.461 201.864 75.5519 201.273 75.5519ZM210.222 75.5519C209.495 75.5519 208.853 75.3682 208.296 75.0008C207.739 74.6296 207.303 74.1069 206.989 73.4326C206.675 72.7546 206.517 71.9535 206.517 71.0292C206.517 70.1125 206.675 69.3171 206.989 68.6428C207.303 67.9686 207.741 67.4478 208.301 67.0803C208.862 66.7129 209.51 66.5292 210.245 66.5292C210.813 66.5292 211.262 66.6239 211.591 66.8133C211.925 66.9989 212.178 67.211 212.353 67.4497C212.531 67.6845 212.669 67.8777 212.767 68.0292H212.881V63.7338H214.222V75.3701H212.926V74.0292H212.767C212.669 74.1883 212.529 74.3891 212.347 74.6315C212.165 74.8701 211.906 75.0841 211.569 75.2735C211.231 75.4591 210.783 75.5519 210.222 75.5519ZM210.404 74.3474C210.942 74.3474 211.396 74.2072 211.767 73.9269C212.139 73.6428 212.421 73.2508 212.614 72.7508C212.807 72.247 212.904 71.6656 212.904 71.0065C212.904 70.355 212.809 69.7849 212.62 69.2963C212.43 68.8038 212.15 68.4213 211.779 68.1485C211.408 67.872 210.949 67.7338 210.404 67.7338C209.836 67.7338 209.362 67.8796 208.983 68.1713C208.608 68.4591 208.326 68.8512 208.137 69.3474C207.951 69.8398 207.858 70.3928 207.858 71.0065C207.858 71.6277 207.953 72.1921 208.142 72.6997C208.336 73.2035 208.62 73.605 208.995 73.9042C209.373 74.1997 209.843 74.3474 210.404 74.3474ZM221.364 75.3701V66.6428H222.705V75.3701H221.364ZM222.046 65.1883C221.784 65.1883 221.559 65.0993 221.37 64.9213C221.184 64.7432 221.091 64.5292 221.091 64.2792C221.091 64.0292 221.184 63.8152 221.37 63.6372C221.559 63.4591 221.784 63.3701 222.046 63.3701C222.307 63.3701 222.531 63.4591 222.716 63.6372C222.906 63.8152 223 64.0292 223 64.2792C223 64.5292 222.906 64.7432 222.716 64.9213C222.531 65.0993 222.307 65.1883 222.046 65.1883ZM226.502 70.1201V75.3701H225.161V66.6428H226.456V68.0065H226.57C226.775 67.5633 227.085 67.2072 227.502 66.9383C227.918 66.6656 228.456 66.5292 229.115 66.5292C229.706 66.5292 230.223 66.6504 230.667 66.8928C231.11 67.1315 231.454 67.4951 231.701 67.9838C231.947 68.4686 232.07 69.0822 232.07 69.8247V75.3701H230.729V69.9156C230.729 69.23 230.551 68.6959 230.195 68.3133C229.839 67.9269 229.35 67.7338 228.729 67.7338C228.301 67.7338 227.918 67.8266 227.581 68.0122C227.248 68.1978 226.985 68.4686 226.792 68.8247C226.598 69.1807 226.502 69.6125 226.502 70.1201ZM239.02 75.3701V66.6428H240.316V67.961H240.407C240.566 67.5292 240.854 67.1788 241.27 66.9099C241.687 66.6409 242.157 66.5065 242.679 66.5065C242.778 66.5065 242.901 66.5084 243.049 66.5122C243.196 66.516 243.308 66.5216 243.384 66.5292V67.8928C243.338 67.8815 243.234 67.8644 243.071 67.8417C242.912 67.8152 242.744 67.8019 242.566 67.8019C242.141 67.8019 241.763 67.891 241.429 68.069C241.1 68.2432 240.838 68.4856 240.645 68.7963C240.456 69.1031 240.361 69.4535 240.361 69.8474V75.3701H239.02ZM248.367 75.5519C247.526 75.5519 246.801 75.3663 246.191 74.9951C245.585 74.6201 245.117 74.0974 244.787 73.4269C244.462 72.7527 244.299 71.9686 244.299 71.0747C244.299 70.1807 244.462 69.3928 244.787 68.711C245.117 68.0254 245.575 67.4913 246.162 67.1088C246.753 66.7224 247.443 66.5292 248.23 66.5292C248.685 66.5292 249.134 66.605 249.577 66.7565C250.02 66.908 250.424 67.1542 250.787 67.4951C251.151 67.8322 251.441 68.2792 251.657 68.836C251.873 69.3928 251.98 70.0785 251.98 70.8928V71.461H245.253V70.3019H250.617C250.617 69.8095 250.518 69.3701 250.321 68.9838C250.128 68.5974 249.852 68.2925 249.492 68.069C249.136 67.8455 248.715 67.7338 248.23 67.7338C247.696 67.7338 247.234 67.8663 246.844 68.1315C246.458 68.3928 246.16 68.7338 245.952 69.1542C245.744 69.5747 245.64 70.0254 245.64 70.5065V71.2792C245.64 71.9383 245.753 72.497 245.98 72.9553C246.212 73.4099 246.532 73.7565 246.941 73.9951C247.35 74.23 247.825 74.3474 248.367 74.3474C248.719 74.3474 249.037 74.2981 249.321 74.1997C249.609 74.0974 249.857 73.9459 250.066 73.7451C250.274 73.5406 250.435 73.2868 250.549 72.9838L251.844 73.3474C251.708 73.7868 251.479 74.1731 251.157 74.5065C250.835 74.836 250.437 75.0936 249.963 75.2792C249.49 75.461 248.958 75.5519 248.367 75.5519ZM256.588 75.5747C256.035 75.5747 255.533 75.4705 255.083 75.2622C254.632 75.05 254.274 74.7451 254.009 74.3474C253.744 73.9459 253.611 73.461 253.611 72.8928C253.611 72.3928 253.71 71.9875 253.907 71.6769C254.104 71.3625 254.367 71.1163 254.696 70.9383C255.026 70.7603 255.39 70.6277 255.787 70.5406C256.189 70.4497 256.592 70.3777 256.998 70.3247C257.528 70.2565 257.958 70.2053 258.287 70.1713C258.621 70.1334 258.863 70.0709 259.015 69.9838C259.17 69.8966 259.248 69.7451 259.248 69.5292V69.4838C259.248 68.9231 259.094 68.4875 258.787 68.1769C258.484 67.8663 258.024 67.711 257.407 67.711C256.766 67.711 256.265 67.8512 255.901 68.1315C255.537 68.4118 255.282 68.711 255.134 69.0292L253.861 68.5747C254.088 68.0444 254.391 67.6315 254.77 67.336C255.153 67.0368 255.569 66.8285 256.02 66.711C256.475 66.5898 256.922 66.5292 257.361 66.5292C257.641 66.5292 257.963 66.5633 258.327 66.6315C258.694 66.6959 259.049 66.8303 259.39 67.0349C259.734 67.2394 260.02 67.5481 260.248 67.961C260.475 68.3739 260.588 68.9269 260.588 69.6201V75.3701H259.248V74.1883H259.179C259.088 74.3777 258.937 74.5803 258.725 74.7963C258.513 75.0122 258.23 75.1959 257.878 75.3474C257.526 75.4989 257.096 75.5747 256.588 75.5747ZM256.793 74.3701C257.323 74.3701 257.77 74.266 258.134 74.0576C258.501 73.8493 258.778 73.5803 258.963 73.2508C259.153 72.9213 259.248 72.5747 259.248 72.211V70.9838C259.191 71.0519 259.066 71.1144 258.873 71.1713C258.683 71.2243 258.463 71.2716 258.213 71.3133C257.967 71.3512 257.727 71.3853 257.492 71.4156C257.261 71.4421 257.073 71.4648 256.929 71.4838C256.581 71.5292 256.255 71.6031 255.952 71.7053C255.653 71.8038 255.41 71.9535 255.225 72.1542C255.043 72.3512 254.952 72.6201 254.952 72.961C254.952 73.4269 255.124 73.7792 255.469 74.0178C255.818 74.2527 256.259 74.3701 256.793 74.3701ZM264.377 63.7338V75.3701H263.036V63.7338H264.377ZM34.6452 95.8019V90.6428H35.9862V99.3701H34.6452V97.8928H34.5543C34.3498 98.336 34.0316 98.7129 33.5998 99.0235C33.168 99.3303 32.6225 99.4838 31.9634 99.4838C31.418 99.4838 30.9331 99.3644 30.5089 99.1258C30.0846 98.8834 29.7513 98.5197 29.5089 98.0349C29.2665 97.5463 29.1452 96.9307 29.1452 96.1883V90.6428H30.4862V96.0974C30.4862 96.7338 30.6642 97.2413 31.0202 97.6201C31.3801 97.9989 31.8384 98.1883 32.3952 98.1883C32.7286 98.1883 33.0676 98.1031 33.4123 97.9326C33.7608 97.7622 34.0524 97.5008 34.2873 97.1485C34.5259 96.7963 34.6452 96.3474 34.6452 95.8019ZM44.6239 92.5974L43.4194 92.9383C43.3436 92.7375 43.2319 92.5425 43.0842 92.3531C42.9402 92.1599 42.7433 92.0008 42.4933 91.8758C42.2433 91.7508 41.9232 91.6883 41.533 91.6883C40.9989 91.6883 40.5539 91.8114 40.1978 92.0576C39.8455 92.3 39.6694 92.6088 39.6694 92.9838C39.6694 93.3171 39.7906 93.5803 40.033 93.7735C40.2754 93.9667 40.6542 94.1277 41.1694 94.2565L42.4648 94.5747C43.2451 94.7641 43.8266 95.0538 44.2092 95.444C44.5917 95.8303 44.783 96.3285 44.783 96.9383C44.783 97.4383 44.6391 97.8853 44.3512 98.2792C44.0671 98.6731 43.6694 98.9838 43.158 99.211C42.6467 99.4383 42.052 99.5519 41.3739 99.5519C40.4838 99.5519 39.747 99.3588 39.1637 98.9724C38.5804 98.586 38.2111 98.0216 38.0558 97.2792L39.3285 96.961C39.4497 97.4307 39.6789 97.783 40.016 98.0178C40.3569 98.2527 40.802 98.3701 41.3512 98.3701C41.9762 98.3701 42.4724 98.2375 42.8398 97.9724C43.2111 97.7035 43.3967 97.3815 43.3967 97.0065C43.3967 96.7035 43.2906 96.4497 43.0785 96.2451C42.8664 96.0368 42.5406 95.8815 42.1012 95.7792L40.6467 95.4383C39.8474 95.2489 39.2603 94.9553 38.8853 94.5576C38.5141 94.1561 38.3285 93.6542 38.3285 93.0519C38.3285 92.5595 38.4667 92.1239 38.7433 91.7451C39.0236 91.3663 39.4042 91.069 39.8853 90.8531C40.3701 90.6372 40.9194 90.5292 41.533 90.5292C42.3967 90.5292 43.0747 90.7186 43.5671 91.0974C44.0633 91.4762 44.4156 91.9762 44.6239 92.5974ZM50.4606 99.5519C49.6197 99.5519 48.8943 99.3663 48.2844 98.9951C47.6784 98.6201 47.2106 98.0974 46.881 97.4269C46.5553 96.7527 46.3924 95.9686 46.3924 95.0747C46.3924 94.1807 46.5553 93.3928 46.881 92.711C47.2106 92.0254 47.6689 91.4913 48.256 91.1088C48.8469 90.7224 49.5363 90.5292 50.3242 90.5292C50.7788 90.5292 51.2276 90.605 51.6708 90.7565C52.114 90.908 52.5174 91.1542 52.881 91.4951C53.2447 91.8322 53.5344 92.2792 53.7504 92.836C53.9663 93.3928 54.0742 94.0785 54.0742 94.8928V95.461H47.3469V94.3019H52.7106C52.7106 93.8095 52.6121 93.3701 52.4151 92.9838C52.2219 92.5974 51.9454 92.2925 51.5856 92.069C51.2295 91.8455 50.8091 91.7338 50.3242 91.7338C49.7901 91.7338 49.328 91.8663 48.9379 92.1315C48.5515 92.3928 48.2541 92.7338 48.0458 93.1542C47.8375 93.5747 47.7333 94.0254 47.7333 94.5065V95.2792C47.7333 95.9383 47.8469 96.497 48.0742 96.9553C48.3053 97.4099 48.6254 97.7565 49.0344 97.9951C49.4435 98.23 49.9189 98.3474 50.4606 98.3474C50.8129 98.3474 51.131 98.2981 51.4151 98.1997C51.703 98.0974 51.9511 97.9459 52.1594 97.7451C52.3678 97.5406 52.5288 97.2868 52.6424 96.9838L53.9379 97.3474C53.8015 97.7868 53.5723 98.1731 53.2504 98.5065C52.9284 98.836 52.5307 99.0936 52.0572 99.2792C51.5837 99.461 51.0515 99.5519 50.4606 99.5519ZM56.114 99.3701V90.6428H57.4094V91.961H57.5004C57.6594 91.5292 57.9473 91.1788 58.364 90.9099C58.7807 90.6409 59.2504 90.5065 59.7731 90.5065C59.8716 90.5065 59.9947 90.5084 60.1424 90.5122C60.2901 90.516 60.4019 90.5216 60.4776 90.5292V91.8928C60.4322 91.8815 60.328 91.8644 60.1651 91.8417C60.006 91.8152 59.8375 91.8019 59.6594 91.8019C59.2352 91.8019 58.8564 91.891 58.5231 92.069C58.1935 92.2432 57.9322 92.4856 57.739 92.7963C57.5496 93.1031 57.4549 93.4535 57.4549 93.8474V99.3701H56.114ZM67.908 94.1201V99.3701H66.5671V90.6428H67.8626V92.0065H67.9762C68.1808 91.5633 68.4914 91.2072 68.908 90.9383C69.3247 90.6656 69.8626 90.5292 70.5217 90.5292C71.1126 90.5292 71.6296 90.6504 72.0728 90.8928C72.516 91.1315 72.8607 91.4951 73.1069 91.9838C73.3531 92.4686 73.4762 93.0822 73.4762 93.8247V99.3701H72.1353V93.9156C72.1353 93.23 71.9573 92.6959 71.6012 92.3133C71.2451 91.9269 70.7565 91.7338 70.1353 91.7338C69.7073 91.7338 69.3247 91.8266 68.9876 92.0122C68.6542 92.1978 68.391 92.4686 68.1978 92.8247C68.0046 93.1807 67.908 93.6125 67.908 94.1201ZM79.5856 99.5519C78.7447 99.5519 78.0193 99.3663 77.4094 98.9951C76.8034 98.6201 76.3356 98.0974 76.006 97.4269C75.6803 96.7527 75.5174 95.9686 75.5174 95.0747C75.5174 94.1807 75.6803 93.3928 76.006 92.711C76.3356 92.0254 76.7939 91.4913 77.381 91.1088C77.9719 90.7224 78.6613 90.5292 79.4492 90.5292C79.9038 90.5292 80.3526 90.605 80.7958 90.7565C81.239 90.908 81.6424 91.1542 82.006 91.4951C82.3697 91.8322 82.6594 92.2792 82.8754 92.836C83.0913 93.3928 83.1992 94.0785 83.1992 94.8928V95.461H76.4719V94.3019H81.8356C81.8356 93.8095 81.7371 93.3701 81.5401 92.9838C81.3469 92.5974 81.0704 92.2925 80.7106 92.069C80.3545 91.8455 79.9341 91.7338 79.4492 91.7338C78.9151 91.7338 78.453 91.8663 78.0629 92.1315C77.6765 92.3928 77.3791 92.7338 77.1708 93.1542C76.9625 93.5747 76.8583 94.0254 76.8583 94.5065V95.2792C76.8583 95.9383 76.9719 96.497 77.1992 96.9553C77.4303 97.4099 77.7504 97.7565 78.1594 97.9951C78.5685 98.23 79.0439 98.3474 79.5856 98.3474C79.9379 98.3474 80.256 98.2981 80.5401 98.1997C80.828 98.0974 81.0761 97.9459 81.2844 97.7451C81.4928 97.5406 81.6538 97.2868 81.7674 96.9838L83.0629 97.3474C82.9265 97.7868 82.6973 98.1731 82.3754 98.5065C82.0534 98.836 81.6557 99.0936 81.1822 99.2792C80.7087 99.461 80.1765 99.5519 79.5856 99.5519ZM88.8981 99.5519C88.0572 99.5519 87.3318 99.3663 86.7219 98.9951C86.1159 98.6201 85.6481 98.0974 85.3185 97.4269C84.9928 96.7527 84.8299 95.9686 84.8299 95.0747C84.8299 94.1807 84.9928 93.3928 85.3185 92.711C85.6481 92.0254 86.1064 91.4913 86.6935 91.1088C87.2844 90.7224 87.9738 90.5292 88.7617 90.5292C89.2163 90.5292 89.6651 90.605 90.1083 90.7565C90.5515 90.908 90.9549 91.1542 91.3185 91.4951C91.6822 91.8322 91.9719 92.2792 92.1879 92.836C92.4038 93.3928 92.5117 94.0785 92.5117 94.8928V95.461H85.7844V94.3019H91.1481C91.1481 93.8095 91.0496 93.3701 90.8526 92.9838C90.6594 92.5974 90.3829 92.2925 90.0231 92.069C89.667 91.8455 89.2466 91.7338 88.7617 91.7338C88.2276 91.7338 87.7655 91.8663 87.3754 92.1315C86.989 92.3928 86.6916 92.7338 86.4833 93.1542C86.275 93.5747 86.1708 94.0254 86.1708 94.5065V95.2792C86.1708 95.9383 86.2844 96.497 86.5117 96.9553C86.7428 97.4099 87.0629 97.7565 87.4719 97.9951C87.881 98.23 88.3564 98.3474 88.8981 98.3474C89.2504 98.3474 89.5685 98.2981 89.8526 98.1997C90.1405 98.0974 90.3886 97.9459 90.5969 97.7451C90.8053 97.5406 90.9663 97.2868 91.0799 96.9838L92.3754 97.3474C92.239 97.7868 92.0098 98.1731 91.6879 98.5065C91.3659 98.836 90.9682 99.0936 90.4947 99.2792C90.0212 99.461 89.489 99.5519 88.8981 99.5519ZM97.8469 99.5519C97.1197 99.5519 96.4776 99.3682 95.9208 99.0008C95.364 98.6296 94.9284 98.1069 94.614 97.4326C94.2996 96.7546 94.1424 95.9535 94.1424 95.0292C94.1424 94.1125 94.2996 93.3171 94.614 92.6428C94.9284 91.9686 95.3659 91.4478 95.9265 91.0803C96.4871 90.7129 97.1348 90.5292 97.8697 90.5292C98.4379 90.5292 98.8867 90.6239 99.2163 90.8133C99.5496 90.9989 99.8034 91.211 99.9776 91.4497C100.156 91.6845 100.294 91.8777 100.392 92.0292H100.506V87.7338H101.847V99.3701H100.551V98.0292H100.392C100.294 98.1883 100.154 98.3891 99.9719 98.6315C99.7901 98.8701 99.5307 99.0841 99.1935 99.2735C98.8564 99.4591 98.4076 99.5519 97.8469 99.5519ZM98.0288 98.3474C98.5666 98.3474 99.0212 98.2072 99.3924 97.9269C99.7636 97.6428 100.046 97.2508 100.239 96.7508C100.432 96.247 100.529 95.6656 100.529 95.0065C100.529 94.355 100.434 93.7849 100.245 93.2963C100.055 92.8038 99.775 92.4213 99.4038 92.1485C99.0326 91.872 98.5742 91.7338 98.0288 91.7338C97.4606 91.7338 96.9871 91.8796 96.6083 92.1713C96.2333 92.4591 95.9511 92.8512 95.7617 93.3474C95.5761 93.8398 95.4833 94.3928 95.4833 95.0065C95.4833 95.6277 95.578 96.1921 95.7674 96.6997C95.9606 97.2035 96.2447 97.605 96.6197 97.9042C96.9985 98.1997 97.4682 98.3474 98.0288 98.3474ZM110.671 92.5974L109.466 92.9383C109.391 92.7375 109.279 92.5425 109.131 92.3531C108.987 92.1599 108.79 92.0008 108.54 91.8758C108.29 91.7508 107.97 91.6883 107.58 91.6883C107.046 91.6883 106.601 91.8114 106.245 92.0576C105.892 92.3 105.716 92.6088 105.716 92.9838C105.716 93.3171 105.837 93.5803 106.08 93.7735C106.322 93.9667 106.701 94.1277 107.216 94.2565L108.512 94.5747C109.292 94.7641 109.873 95.0538 110.256 95.444C110.639 95.8303 110.83 96.3285 110.83 96.9383C110.83 97.4383 110.686 97.8853 110.398 98.2792C110.114 98.6731 109.716 98.9838 109.205 99.211C108.694 99.4383 108.099 99.5519 107.421 99.5519C106.531 99.5519 105.794 99.3588 105.211 98.9724C104.627 98.586 104.258 98.0216 104.103 97.2792L105.375 96.961C105.497 97.4307 105.726 97.783 106.063 98.0178C106.404 98.2527 106.849 98.3701 107.398 98.3701C108.023 98.3701 108.519 98.2375 108.887 97.9724C109.258 97.7035 109.444 97.3815 109.444 97.0065C109.444 96.7035 109.337 96.4497 109.125 96.2451C108.913 96.0368 108.587 95.8815 108.148 95.7792L106.694 95.4383C105.894 95.2489 105.307 94.9553 104.932 94.5576C104.561 94.1561 104.375 93.6542 104.375 93.0519C104.375 92.5595 104.514 92.1239 104.79 91.7451C105.07 91.3663 105.451 91.069 105.932 90.8531C106.417 90.6372 106.966 90.5292 107.58 90.5292C108.444 90.5292 109.122 90.7186 109.614 91.0974C110.11 91.4762 110.462 91.9762 110.671 92.5974ZM119.917 99.5747C119.364 99.5747 118.862 99.4705 118.411 99.2622C117.96 99.05 117.602 98.7451 117.337 98.3474C117.072 97.9459 116.939 97.461 116.939 96.8928C116.939 96.3928 117.038 95.9875 117.235 95.6769C117.432 95.3625 117.695 95.1163 118.025 94.9383C118.354 94.7603 118.718 94.6277 119.115 94.5406C119.517 94.4497 119.92 94.3777 120.326 94.3247C120.856 94.2565 121.286 94.2053 121.615 94.1713C121.949 94.1334 122.191 94.0709 122.343 93.9838C122.498 93.8966 122.576 93.7451 122.576 93.5292V93.4838C122.576 92.9231 122.422 92.4875 122.115 92.1769C121.812 91.8663 121.352 91.711 120.735 91.711C120.095 91.711 119.593 91.8512 119.229 92.1315C118.865 92.4118 118.61 92.711 118.462 93.0292L117.189 92.5747C117.417 92.0444 117.72 91.6315 118.098 91.336C118.481 91.0368 118.898 90.8285 119.348 90.711C119.803 90.5898 120.25 90.5292 120.689 90.5292C120.97 90.5292 121.292 90.5633 121.655 90.6315C122.023 90.6959 122.377 90.8303 122.718 91.0349C123.062 91.2394 123.348 91.5481 123.576 91.961C123.803 92.3739 123.917 92.9269 123.917 93.6201V99.3701H122.576V98.1883H122.507C122.417 98.3777 122.265 98.5803 122.053 98.7963C121.841 99.0122 121.559 99.1959 121.206 99.3474C120.854 99.4989 120.424 99.5747 119.917 99.5747ZM120.121 98.3701C120.651 98.3701 121.098 98.266 121.462 98.0576C121.829 97.8493 122.106 97.5803 122.292 97.2508C122.481 96.9213 122.576 96.5747 122.576 96.211V94.9838C122.519 95.0519 122.394 95.1144 122.201 95.1713C122.011 95.2243 121.792 95.2716 121.542 95.3133C121.295 95.3512 121.055 95.3853 120.82 95.4156C120.589 95.4421 120.401 95.4648 120.257 95.4838C119.909 95.5292 119.583 95.6031 119.28 95.7053C118.981 95.8038 118.739 95.9535 118.553 96.1542C118.371 96.3512 118.28 96.6201 118.28 96.961C118.28 97.4269 118.453 97.7792 118.797 98.0178C119.146 98.2527 119.587 98.3701 120.121 98.3701ZM127.705 94.1201V99.3701H126.364V90.6428H127.659V92.0065H127.773C127.978 91.5633 128.288 91.2072 128.705 90.9383C129.122 90.6656 129.659 90.5292 130.319 90.5292C130.909 90.5292 131.426 90.6504 131.87 90.8928C132.313 91.1315 132.658 91.4951 132.904 91.9838C133.15 92.4686 133.273 93.0822 133.273 93.8247V99.3701H131.932V93.9156C131.932 93.23 131.754 92.6959 131.398 92.3133C131.042 91.9269 130.553 91.7338 129.932 91.7338C129.504 91.7338 129.122 91.8266 128.784 92.0122C128.451 92.1978 128.188 92.4686 127.995 92.8247C127.801 93.1807 127.705 93.6125 127.705 94.1201ZM139.019 99.5519C138.292 99.5519 137.65 99.3682 137.093 99.0008C136.536 98.6296 136.1 98.1069 135.786 97.4326C135.471 96.7546 135.314 95.9535 135.314 95.0292C135.314 94.1125 135.471 93.3171 135.786 92.6428C136.1 91.9686 136.538 91.4478 137.098 91.0803C137.659 90.7129 138.307 90.5292 139.042 90.5292C139.61 90.5292 140.059 90.6239 140.388 90.8133C140.721 90.9989 140.975 91.211 141.15 91.4497C141.328 91.6845 141.466 91.8777 141.564 92.0292H141.678V87.7338H143.019V99.3701H141.723V98.0292H141.564C141.466 98.1883 141.326 98.3891 141.144 98.6315C140.962 98.8701 140.703 99.0841 140.365 99.2735C140.028 99.4591 139.579 99.5519 139.019 99.5519ZM139.201 98.3474C139.739 98.3474 140.193 98.2072 140.564 97.9269C140.935 97.6428 141.218 97.2508 141.411 96.7508C141.604 96.247 141.701 95.6656 141.701 95.0065C141.701 94.355 141.606 93.7849 141.417 93.2963C141.227 92.8038 140.947 92.4213 140.576 92.1485C140.204 91.872 139.746 91.7338 139.201 91.7338C138.632 91.7338 138.159 91.8796 137.78 92.1713C137.405 92.4591 137.123 92.8512 136.934 93.3474C136.748 93.8398 136.655 94.3928 136.655 95.0065C136.655 95.6277 136.75 96.1921 136.939 96.6997C137.132 97.2035 137.417 97.605 137.792 97.9042C138.17 98.1997 138.64 98.3474 139.201 98.3474ZM153.456 99.5519C152.729 99.5519 152.087 99.3682 151.53 99.0008C150.973 98.6296 150.538 98.1069 150.223 97.4326C149.909 96.7546 149.752 95.9535 149.752 95.0292C149.752 94.1125 149.909 93.3171 150.223 92.6428C150.538 91.9686 150.975 91.4478 151.536 91.0803C152.096 90.7129 152.744 90.5292 153.479 90.5292C154.047 90.5292 154.496 90.6239 154.826 90.8133C155.159 90.9989 155.413 91.211 155.587 91.4497C155.765 91.6845 155.903 91.8777 156.002 92.0292H156.115V87.7338H157.456V99.3701H156.161V98.0292H156.002C155.903 98.1883 155.763 98.3891 155.581 98.6315C155.4 98.8701 155.14 99.0841 154.803 99.2735C154.466 99.4591 154.017 99.5519 153.456 99.5519ZM153.638 98.3474C154.176 98.3474 154.631 98.2072 155.002 97.9269C155.373 97.6428 155.655 97.2508 155.848 96.7508C156.042 96.247 156.138 95.6656 156.138 95.0065C156.138 94.355 156.043 93.7849 155.854 93.2963C155.665 92.8038 155.384 92.4213 155.013 92.1485C154.642 91.872 154.184 91.7338 153.638 91.7338C153.07 91.7338 152.596 91.8796 152.218 92.1713C151.843 92.4591 151.56 92.8512 151.371 93.3474C151.185 93.8398 151.093 94.3928 151.093 95.0065C151.093 95.6277 151.187 96.1921 151.377 96.6997C151.57 97.2035 151.854 97.605 152.229 97.9042C152.608 98.1997 153.078 98.3474 153.638 98.3474ZM162.667 99.5747C162.114 99.5747 161.612 99.4705 161.161 99.2622C160.71 99.05 160.352 98.7451 160.087 98.3474C159.822 97.9459 159.689 97.461 159.689 96.8928C159.689 96.3928 159.788 95.9875 159.985 95.6769C160.182 95.3625 160.445 95.1163 160.775 94.9383C161.104 94.7603 161.468 94.6277 161.865 94.5406C162.267 94.4497 162.67 94.3777 163.076 94.3247C163.606 94.2565 164.036 94.2053 164.365 94.1713C164.699 94.1334 164.941 94.0709 165.093 93.9838C165.248 93.8966 165.326 93.7451 165.326 93.5292V93.4838C165.326 92.9231 165.172 92.4875 164.865 92.1769C164.562 91.8663 164.102 91.711 163.485 91.711C162.845 91.711 162.343 91.8512 161.979 92.1315C161.615 92.4118 161.36 92.711 161.212 93.0292L159.939 92.5747C160.167 92.0444 160.47 91.6315 160.848 91.336C161.231 91.0368 161.648 90.8285 162.098 90.711C162.553 90.5898 163 90.5292 163.439 90.5292C163.72 90.5292 164.042 90.5633 164.405 90.6315C164.773 90.6959 165.127 90.8303 165.468 91.0349C165.812 91.2394 166.098 91.5481 166.326 91.961C166.553 92.3739 166.667 92.9269 166.667 93.6201V99.3701H165.326V98.1883H165.257C165.167 98.3777 165.015 98.5803 164.803 98.7963C164.591 99.0122 164.309 99.1959 163.956 99.3474C163.604 99.4989 163.174 99.5747 162.667 99.5747ZM162.871 98.3701C163.401 98.3701 163.848 98.266 164.212 98.0576C164.579 97.8493 164.856 97.5803 165.042 97.2508C165.231 96.9213 165.326 96.5747 165.326 96.211V94.9838C165.269 95.0519 165.144 95.1144 164.951 95.1713C164.761 95.2243 164.542 95.2716 164.292 95.3133C164.045 95.3512 163.805 95.3853 163.57 95.4156C163.339 95.4421 163.151 95.4648 163.007 95.4838C162.659 95.5292 162.333 95.6031 162.03 95.7053C161.731 95.8038 161.489 95.9535 161.303 96.1542C161.121 96.3512 161.03 96.6201 161.03 96.961C161.03 97.4269 161.203 97.7792 161.547 98.0178C161.896 98.2527 162.337 98.3701 162.871 98.3701ZM172.909 90.6428V91.7792H168.387V90.6428H172.909ZM169.705 88.5519H171.046V96.8701C171.046 97.2489 171.101 97.533 171.211 97.7224C171.324 97.908 171.468 98.033 171.642 98.0974C171.82 98.158 172.008 98.1883 172.205 98.1883C172.353 98.1883 172.474 98.1807 172.569 98.1656C172.663 98.1466 172.739 98.1315 172.796 98.1201L173.069 99.3247C172.978 99.3588 172.851 99.3928 172.688 99.4269C172.525 99.4648 172.319 99.4838 172.069 99.4838C171.69 99.4838 171.319 99.4023 170.955 99.2394C170.595 99.0766 170.296 98.8285 170.057 98.4951C169.822 98.1618 169.705 97.7413 169.705 97.2338V88.5519ZM177.495 99.5747C176.942 99.5747 176.44 99.4705 175.989 99.2622C175.538 99.05 175.18 98.7451 174.915 98.3474C174.65 97.9459 174.517 97.461 174.517 96.8928C174.517 96.3928 174.616 95.9875 174.813 95.6769C175.01 95.3625 175.273 95.1163 175.603 94.9383C175.932 94.7603 176.296 94.6277 176.694 94.5406C177.095 94.4497 177.498 94.3777 177.904 94.3247C178.434 94.2565 178.864 94.2053 179.194 94.1713C179.527 94.1334 179.769 94.0709 179.921 93.9838C180.076 93.8966 180.154 93.7451 180.154 93.5292V93.4838C180.154 92.9231 180 92.4875 179.694 92.1769C179.391 91.8663 178.93 91.711 178.313 91.711C177.673 91.711 177.171 91.8512 176.807 92.1315C176.444 92.4118 176.188 92.711 176.04 93.0292L174.767 92.5747C174.995 92.0444 175.298 91.6315 175.676 91.336C176.059 91.0368 176.476 90.8285 176.926 90.711C177.381 90.5898 177.828 90.5292 178.267 90.5292C178.548 90.5292 178.87 90.5633 179.233 90.6315C179.601 90.6959 179.955 90.8303 180.296 91.0349C180.641 91.2394 180.926 91.5481 181.154 91.961C181.381 92.3739 181.495 92.9269 181.495 93.6201V99.3701H180.154V98.1883H180.086C179.995 98.3777 179.843 98.5803 179.631 98.7963C179.419 99.0122 179.137 99.1959 178.784 99.3474C178.432 99.4989 178.002 99.5747 177.495 99.5747ZM177.699 98.3701C178.23 98.3701 178.676 98.266 179.04 98.0576C179.408 97.8493 179.684 97.5803 179.87 97.2508C180.059 96.9213 180.154 96.5747 180.154 96.211V94.9838C180.097 95.0519 179.972 95.1144 179.779 95.1713C179.589 95.2243 179.37 95.2716 179.12 95.3133C178.873 95.3512 178.633 95.3853 178.398 95.4156C178.167 95.4421 177.98 95.4648 177.836 95.4838C177.487 95.5292 177.161 95.6031 176.858 95.7053C176.559 95.8038 176.317 95.9535 176.131 96.1542C175.949 96.3512 175.858 96.6201 175.858 96.961C175.858 97.4269 176.031 97.7792 176.375 98.0178C176.724 98.2527 177.165 98.3701 177.699 98.3701ZM185.942 97.7792L185.851 98.3928C185.787 98.8247 185.688 99.2868 185.556 99.7792C185.427 100.272 185.292 100.736 185.152 101.171C185.012 101.607 184.897 101.953 184.806 102.211H183.783C183.832 101.969 183.897 101.649 183.976 101.251C184.056 100.853 184.135 100.408 184.215 99.9156C184.298 99.4269 184.366 98.9269 184.419 98.4156L184.488 97.7792H185.942ZM194.267 94.1201V99.3701H192.926V90.6428H194.222V92.0065H194.336C194.54 91.5633 194.851 91.2072 195.267 90.9383C195.684 90.6656 196.222 90.5292 196.881 90.5292C197.472 90.5292 197.989 90.6504 198.432 90.8928C198.875 91.1315 199.22 91.4951 199.466 91.9838C199.712 92.4686 199.836 93.0822 199.836 93.8247V99.3701H198.495V93.9156C198.495 93.23 198.317 92.6959 197.961 92.3133C197.605 91.9269 197.116 91.7338 196.495 91.7338C196.067 91.7338 195.684 91.8266 195.347 92.0122C195.014 92.1978 194.75 92.4686 194.557 92.8247C194.364 93.1807 194.267 93.6125 194.267 94.1201ZM205.831 99.5519C205.043 99.5519 204.352 99.3644 203.757 98.9894C203.167 98.6144 202.704 98.0898 202.371 97.4156C202.042 96.7413 201.877 95.9535 201.877 95.0519C201.877 94.1428 202.042 93.3493 202.371 92.6713C202.704 91.9932 203.167 91.4667 203.757 91.0917C204.352 90.7167 205.043 90.5292 205.831 90.5292C206.619 90.5292 207.309 90.7167 207.9 91.0917C208.494 91.4667 208.956 91.9932 209.286 92.6713C209.619 93.3493 209.786 94.1428 209.786 95.0519C209.786 95.9535 209.619 96.7413 209.286 97.4156C208.956 98.0898 208.494 98.6144 207.9 98.9894C207.309 99.3644 206.619 99.5519 205.831 99.5519ZM205.831 98.3474C206.43 98.3474 206.922 98.194 207.309 97.8872C207.695 97.5803 207.981 97.1769 208.167 96.6769C208.352 96.1769 208.445 95.6353 208.445 95.0519C208.445 94.4686 208.352 93.925 208.167 93.4213C207.981 92.9175 207.695 92.5103 207.309 92.1997C206.922 91.8891 206.43 91.7338 205.831 91.7338C205.233 91.7338 204.74 91.8891 204.354 92.1997C203.968 92.5103 203.682 92.9175 203.496 93.4213C203.31 93.925 203.218 94.4686 203.218 95.0519C203.218 95.6353 203.31 96.1769 203.496 96.6769C203.682 97.1769 203.968 97.5803 204.354 97.8872C204.74 98.194 205.233 98.3474 205.831 98.3474ZM215.628 90.6428V91.7792H211.105V90.6428H215.628ZM212.424 88.5519H213.765V96.8701C213.765 97.2489 213.819 97.533 213.929 97.7224C214.043 97.908 214.187 98.033 214.361 98.0974C214.539 98.158 214.727 98.1883 214.924 98.1883C215.071 98.1883 215.193 98.1807 215.287 98.1656C215.382 98.1466 215.458 98.1315 215.515 98.1201L215.787 99.3247C215.696 99.3588 215.569 99.3928 215.407 99.4269C215.244 99.4648 215.037 99.4838 214.787 99.4838C214.408 99.4838 214.037 99.4023 213.674 99.2394C213.314 99.0766 213.015 98.8285 212.776 98.4951C212.541 98.1618 212.424 97.7413 212.424 97.2338V88.5519ZM222.145 90.6428H223.486V100.006C223.486 100.544 223.393 101.01 223.208 101.404C223.026 101.798 222.749 102.103 222.378 102.319C222.011 102.535 221.547 102.643 220.986 102.643C220.941 102.643 220.895 102.643 220.85 102.643C220.804 102.643 220.759 102.643 220.713 102.643V101.393C220.759 101.393 220.801 101.393 220.838 101.393C220.876 101.393 220.918 101.393 220.963 101.393C221.373 101.393 221.672 101.272 221.861 101.029C222.051 100.791 222.145 100.45 222.145 100.006V90.6428ZM222.804 89.1883C222.543 89.1883 222.318 89.0993 222.128 88.9213C221.943 88.7432 221.85 88.5292 221.85 88.2792C221.85 88.0292 221.943 87.8152 222.128 87.6372C222.318 87.4591 222.543 87.3701 222.804 87.3701C223.066 87.3701 223.289 87.4591 223.475 87.6372C223.664 87.8152 223.759 88.0292 223.759 88.2792C223.759 88.5292 223.664 88.7432 223.475 88.9213C223.289 89.0993 223.066 89.1883 222.804 89.1883ZM231.442 95.8019V90.6428H232.783V99.3701H231.442V97.8928H231.351C231.147 98.336 230.828 98.7129 230.397 99.0235C229.965 99.3303 229.419 99.4838 228.76 99.4838C228.215 99.4838 227.73 99.3644 227.306 99.1258C226.882 98.8834 226.548 98.5197 226.306 98.0349C226.063 97.5463 225.942 96.9307 225.942 96.1883V90.6428H227.283V96.0974C227.283 96.7338 227.461 97.2413 227.817 97.6201C228.177 97.9989 228.635 98.1883 229.192 98.1883C229.525 98.1883 229.864 98.1031 230.209 97.9326C230.558 97.7622 230.849 97.5008 231.084 97.1485C231.323 96.7963 231.442 96.3474 231.442 95.8019ZM241.421 92.5974L240.216 92.9383C240.141 92.7375 240.029 92.5425 239.881 92.3531C239.737 92.1599 239.54 92.0008 239.29 91.8758C239.04 91.7508 238.72 91.6883 238.33 91.6883C237.796 91.6883 237.351 91.8114 236.995 92.0576C236.642 92.3 236.466 92.6088 236.466 92.9838C236.466 93.3171 236.587 93.5803 236.83 93.7735C237.072 93.9667 237.451 94.1277 237.966 94.2565L239.262 94.5747C240.042 94.7641 240.623 95.0538 241.006 95.444C241.389 95.8303 241.58 96.3285 241.58 96.9383C241.58 97.4383 241.436 97.8853 241.148 98.2792C240.864 98.6731 240.466 98.9838 239.955 99.211C239.444 99.4383 238.849 99.5519 238.171 99.5519C237.281 99.5519 236.544 99.3588 235.961 98.9724C235.377 98.586 235.008 98.0216 234.853 97.2792L236.125 96.961C236.247 97.4307 236.476 97.783 236.813 98.0178C237.154 98.2527 237.599 98.3701 238.148 98.3701C238.773 98.3701 239.269 98.2375 239.637 97.9724C240.008 97.7035 240.194 97.3815 240.194 97.0065C240.194 96.7035 240.087 96.4497 239.875 96.2451C239.663 96.0368 239.337 95.8815 238.898 95.7792L237.444 95.4383C236.644 95.2489 236.057 94.9553 235.682 94.5576C235.311 94.1561 235.125 93.6542 235.125 93.0519C235.125 92.5595 235.264 92.1239 235.54 91.7451C235.82 91.3663 236.201 91.069 236.682 90.8531C237.167 90.6372 237.716 90.5292 238.33 90.5292C239.194 90.5292 239.872 90.7186 240.364 91.0974C240.86 91.4762 241.212 91.9762 241.421 92.5974ZM247.394 90.6428V91.7792H242.871V90.6428H247.394ZM244.189 88.5519H245.53V96.8701C245.53 97.2489 245.585 97.533 245.695 97.7224C245.809 97.908 245.953 98.033 246.127 98.0974C246.305 98.158 246.492 98.1883 246.689 98.1883C246.837 98.1883 246.958 98.1807 247.053 98.1656C247.148 98.1466 247.223 98.1315 247.28 98.1201L247.553 99.3247C247.462 99.3588 247.335 99.3928 247.172 99.4269C247.009 99.4648 246.803 99.4838 246.553 99.4838C246.174 99.4838 245.803 99.4023 245.439 99.2394C245.079 99.0766 244.78 98.8285 244.542 98.4951C244.307 98.1618 244.189 97.7413 244.189 97.2338V88.5519ZM31.7134 123.575C31.1604 123.575 30.6585 123.47 30.2077 123.262C29.757 123.05 29.399 122.745 29.1339 122.347C28.8687 121.946 28.7362 121.461 28.7362 120.893C28.7362 120.393 28.8346 119.988 29.0316 119.677C29.2286 119.363 29.4918 119.116 29.8214 118.938C30.1509 118.76 30.5146 118.628 30.9123 118.541C31.3138 118.45 31.7172 118.378 32.1225 118.325C32.6528 118.256 33.0827 118.205 33.4123 118.171C33.7456 118.133 33.988 118.071 34.1396 117.984C34.2949 117.897 34.3725 117.745 34.3725 117.529V117.484C34.3725 116.923 34.2191 116.488 33.9123 116.177C33.6093 115.866 33.149 115.711 32.5316 115.711C31.8915 115.711 31.3896 115.851 31.0259 116.131C30.6623 116.412 30.4066 116.711 30.2589 117.029L28.9862 116.575C29.2134 116.044 29.5165 115.631 29.8952 115.336C30.2778 115.037 30.6945 114.828 31.1452 114.711C31.5998 114.59 32.0468 114.529 32.4862 114.529C32.7665 114.529 33.0884 114.563 33.4521 114.631C33.8195 114.696 34.1737 114.83 34.5146 115.035C34.8593 115.239 35.1452 115.548 35.3725 115.961C35.5998 116.374 35.7134 116.927 35.7134 117.62V123.37H34.3725V122.188H34.3043C34.2134 122.378 34.0619 122.58 33.8498 122.796C33.6377 123.012 33.3555 123.196 33.0032 123.347C32.6509 123.499 32.221 123.575 31.7134 123.575ZM31.918 122.37C32.4483 122.37 32.8952 122.266 33.2589 122.058C33.6263 121.849 33.9028 121.58 34.0884 121.251C34.2778 120.921 34.3725 120.575 34.3725 120.211V118.984C34.3157 119.052 34.1907 119.114 33.9975 119.171C33.8081 119.224 33.5884 119.272 33.3384 119.313C33.0922 119.351 32.8517 119.385 32.6168 119.416C32.3858 119.442 32.1983 119.465 32.0543 119.484C31.7058 119.529 31.3801 119.603 31.0771 119.705C30.7778 119.804 30.5354 119.953 30.3498 120.154C30.168 120.351 30.0771 120.62 30.0771 120.961C30.0771 121.427 30.2494 121.779 30.5941 122.018C30.9426 122.253 31.3839 122.37 31.918 122.37ZM44.3427 116.597L43.1381 116.938C43.0624 116.738 42.9506 116.542 42.8029 116.353C42.659 116.16 42.462 116.001 42.212 115.876C41.962 115.751 41.6419 115.688 41.2518 115.688C40.7177 115.688 40.2726 115.811 39.9165 116.058C39.5643 116.3 39.3881 116.609 39.3881 116.984C39.3881 117.317 39.5094 117.58 39.7518 117.774C39.9942 117.967 40.373 118.128 40.8881 118.256L42.1836 118.575C42.9639 118.764 43.5453 119.054 43.9279 119.444C44.3105 119.83 44.5018 120.328 44.5018 120.938C44.5018 121.438 44.3578 121.885 44.07 122.279C43.7859 122.673 43.3881 122.984 42.8768 123.211C42.3654 123.438 41.7707 123.552 41.0927 123.552C40.2025 123.552 39.4658 123.359 38.8825 122.972C38.2991 122.586 37.9298 122.022 37.7745 121.279L39.0472 120.961C39.1684 121.431 39.3976 121.783 39.7347 122.018C40.0756 122.253 40.5207 122.37 41.07 122.37C41.695 122.37 42.1912 122.238 42.5586 121.972C42.9298 121.703 43.1154 121.381 43.1154 121.006C43.1154 120.703 43.0094 120.45 42.7972 120.245C42.5851 120.037 42.2594 119.881 41.82 119.779L40.3654 119.438C39.5662 119.249 38.979 118.955 38.604 118.558C38.2328 118.156 38.0472 117.654 38.0472 117.052C38.0472 116.56 38.1855 116.124 38.462 115.745C38.7423 115.366 39.123 115.069 39.604 114.853C40.0889 114.637 40.6381 114.529 41.2518 114.529C42.1154 114.529 42.7934 114.719 43.2859 115.097C43.7821 115.476 44.1344 115.976 44.3427 116.597ZM52.7021 116.597L51.4975 116.938C51.4218 116.738 51.31 116.542 51.1623 116.353C51.0183 116.16 50.8214 116.001 50.5714 115.876C50.3214 115.751 50.0013 115.688 49.6112 115.688C49.0771 115.688 48.632 115.811 48.2759 116.058C47.9237 116.3 47.7475 116.609 47.7475 116.984C47.7475 117.317 47.8687 117.58 48.1112 117.774C48.3536 117.967 48.7324 118.128 49.2475 118.256L50.543 118.575C51.3233 118.764 51.9047 119.054 52.2873 119.444C52.6699 119.83 52.8612 120.328 52.8612 120.938C52.8612 121.438 52.7172 121.885 52.4293 122.279C52.1452 122.673 51.7475 122.984 51.2362 123.211C50.7248 123.438 50.1301 123.552 49.4521 123.552C48.5619 123.552 47.8252 123.359 47.2418 122.972C46.6585 122.586 46.2892 122.022 46.1339 121.279L47.4066 120.961C47.5278 121.431 47.757 121.783 48.0941 122.018C48.435 122.253 48.8801 122.37 49.4293 122.37C50.0543 122.37 50.5505 122.238 50.918 121.972C51.2892 121.703 51.4748 121.381 51.4748 121.006C51.4748 120.703 51.3687 120.45 51.1566 120.245C50.9445 120.037 50.6187 119.881 50.1793 119.779L48.7248 119.438C47.9255 119.249 47.3384 118.955 46.9634 118.558C46.5922 118.156 46.4066 117.654 46.4066 117.052C46.4066 116.56 46.5449 116.124 46.8214 115.745C47.1017 115.366 47.4824 115.069 47.9634 114.853C48.4483 114.637 48.9975 114.529 49.6112 114.529C50.4748 114.529 51.1528 114.719 51.6452 115.097C52.1415 115.476 52.4937 115.976 52.7021 116.597ZM60.3796 119.802V114.643H61.7205V123.37H60.3796V121.893H60.2887C60.0842 122.336 59.766 122.713 59.3342 123.024C58.9023 123.33 58.3569 123.484 57.6978 123.484C57.1523 123.484 56.6675 123.364 56.2433 123.126C55.819 122.883 55.4857 122.52 55.2433 122.035C55.0008 121.546 54.8796 120.931 54.8796 120.188V114.643H56.2205V120.097C56.2205 120.734 56.3986 121.241 56.7546 121.62C57.1145 121.999 57.5728 122.188 58.1296 122.188C58.463 122.188 58.802 122.103 59.1467 121.933C59.4951 121.762 59.7868 121.501 60.0217 121.149C60.2603 120.796 60.3796 120.347 60.3796 119.802ZM64.1765 123.37V114.643H65.4719V116.006H65.5856C65.7674 115.541 66.061 115.179 66.4663 114.921C66.8716 114.66 67.3583 114.529 67.9265 114.529C68.5022 114.529 68.9814 114.66 69.364 114.921C69.7504 115.179 70.0515 115.541 70.2674 116.006H70.3583C70.5818 115.556 70.917 115.198 71.364 114.933C71.811 114.664 72.3469 114.529 72.9719 114.529C73.7522 114.529 74.3905 114.774 74.8867 115.262C75.3829 115.747 75.631 116.503 75.631 117.529V123.37H74.2901V117.529C74.2901 116.885 74.114 116.425 73.7617 116.149C73.4094 115.872 72.9947 115.734 72.5174 115.734C71.9038 115.734 71.4284 115.919 71.0913 116.291C70.7541 116.658 70.5856 117.124 70.5856 117.688V123.37H69.2219V117.393C69.2219 116.897 69.061 116.497 68.739 116.194C68.417 115.887 68.0022 115.734 67.4947 115.734C67.1462 115.734 66.8204 115.827 66.5174 116.012C66.2182 116.198 65.9757 116.455 65.7901 116.785C65.6083 117.111 65.5174 117.488 65.5174 117.916V123.37H64.1765ZM78.0827 126.643V114.643H79.3782V116.029H79.5373C79.6358 115.878 79.7721 115.685 79.9464 115.45C80.1244 115.211 80.3782 114.999 80.7077 114.813C81.0411 114.624 81.4918 114.529 82.06 114.529C82.7949 114.529 83.4426 114.713 84.0032 115.08C84.5638 115.448 85.0013 115.969 85.3157 116.643C85.6301 117.317 85.7873 118.113 85.7873 119.029C85.7873 119.953 85.6301 120.755 85.3157 121.433C85.0013 122.107 84.5657 122.63 84.0089 123.001C83.4521 123.368 82.81 123.552 82.0827 123.552C81.5221 123.552 81.0733 123.459 80.7362 123.274C80.399 123.084 80.1396 122.87 79.9577 122.631C79.7759 122.389 79.6358 122.188 79.5373 122.029H79.4237V126.643H78.0827ZM79.4009 119.006C79.4009 119.666 79.4975 120.247 79.6907 120.751C79.8839 121.251 80.1661 121.643 80.5373 121.927C80.9085 122.207 81.363 122.347 81.9009 122.347C82.4615 122.347 82.9293 122.2 83.3043 121.904C83.6831 121.605 83.9672 121.203 84.1566 120.7C84.3498 120.192 84.4464 119.628 84.4464 119.006C84.4464 118.393 84.3517 117.84 84.1623 117.347C83.9767 116.851 83.6945 116.459 83.3157 116.171C82.9407 115.88 82.4691 115.734 81.9009 115.734C81.3555 115.734 80.8971 115.872 80.5259 116.149C80.1547 116.421 79.8744 116.804 79.685 117.296C79.4956 117.785 79.4009 118.355 79.4009 119.006ZM91.6282 114.643V115.779H87.1055V114.643H91.6282ZM88.4237 112.552H89.7646V120.87C89.7646 121.249 89.8195 121.533 89.9293 121.722C90.043 121.908 90.1869 122.033 90.3612 122.097C90.5392 122.158 90.7267 122.188 90.9237 122.188C91.0714 122.188 91.1926 122.181 91.2873 122.166C91.382 122.147 91.4577 122.131 91.5146 122.12L91.7873 123.325C91.6964 123.359 91.5695 123.393 91.4066 123.427C91.2437 123.465 91.0373 123.484 90.7873 123.484C90.4085 123.484 90.0373 123.402 89.6737 123.239C89.3138 123.077 89.0146 122.828 88.7759 122.495C88.5411 122.162 88.4237 121.741 88.4237 121.234V112.552ZM93.6452 123.37V114.643H94.9862V123.37H93.6452ZM94.3271 113.188C94.0657 113.188 93.8403 113.099 93.6509 112.921C93.4653 112.743 93.3725 112.529 93.3725 112.279C93.3725 112.029 93.4653 111.815 93.6509 111.637C93.8403 111.459 94.0657 111.37 94.3271 111.37C94.5884 111.37 94.8119 111.459 94.9975 111.637C95.1869 111.815 95.2816 112.029 95.2816 112.279C95.2816 112.529 95.1869 112.743 94.9975 112.921C94.8119 113.099 94.5884 113.188 94.3271 113.188ZM100.988 123.552C100.2 123.552 99.5084 123.364 98.9137 122.989C98.3228 122.614 97.8607 122.09 97.5273 121.416C97.1978 120.741 97.033 119.953 97.033 119.052C97.033 118.143 97.1978 117.349 97.5273 116.671C97.8607 115.993 98.3228 115.467 98.9137 115.092C99.5084 114.717 100.2 114.529 100.988 114.529C101.775 114.529 102.465 114.717 103.056 115.092C103.65 115.467 104.113 115.993 104.442 116.671C104.775 117.349 104.942 118.143 104.942 119.052C104.942 119.953 104.775 120.741 104.442 121.416C104.113 122.09 103.65 122.614 103.056 122.989C102.465 123.364 101.775 123.552 100.988 123.552ZM100.988 122.347C101.586 122.347 102.078 122.194 102.465 121.887C102.851 121.58 103.137 121.177 103.323 120.677C103.508 120.177 103.601 119.635 103.601 119.052C103.601 118.469 103.508 117.925 103.323 117.421C103.137 116.917 102.851 116.51 102.465 116.2C102.078 115.889 101.586 115.734 100.988 115.734C100.389 115.734 99.8967 115.889 99.5103 116.2C99.1239 116.51 98.8379 116.917 98.6523 117.421C98.4667 117.925 98.3739 118.469 98.3739 119.052C98.3739 119.635 98.4667 120.177 98.6523 120.677C98.8379 121.177 99.1239 121.58 99.5103 121.887C99.8967 122.194 100.389 122.347 100.988 122.347ZM108.33 118.12V123.37H106.989V114.643H108.284V116.006H108.398C108.603 115.563 108.913 115.207 109.33 114.938C109.747 114.666 110.284 114.529 110.944 114.529C111.534 114.529 112.051 114.65 112.495 114.893C112.938 115.131 113.283 115.495 113.529 115.984C113.775 116.469 113.898 117.082 113.898 117.825V123.37H112.557V117.916C112.557 117.23 112.379 116.696 112.023 116.313C111.667 115.927 111.178 115.734 110.557 115.734C110.129 115.734 109.747 115.827 109.409 116.012C109.076 116.198 108.813 116.469 108.62 116.825C108.426 117.181 108.33 117.613 108.33 118.12ZM122.53 116.597L121.326 116.938C121.25 116.738 121.138 116.542 120.99 116.353C120.846 116.16 120.65 116.001 120.4 115.876C120.15 115.751 119.829 115.688 119.439 115.688C118.905 115.688 118.46 115.811 118.104 116.058C117.752 116.3 117.576 116.609 117.576 116.984C117.576 117.317 117.697 117.58 117.939 117.774C118.182 117.967 118.56 118.128 119.076 118.256L120.371 118.575C121.151 118.764 121.733 119.054 122.115 119.444C122.498 119.83 122.689 120.328 122.689 120.938C122.689 121.438 122.545 121.885 122.257 122.279C121.973 122.673 121.576 122.984 121.064 123.211C120.553 123.438 119.958 123.552 119.28 123.552C118.39 123.552 117.653 123.359 117.07 122.972C116.487 122.586 116.117 122.022 115.962 121.279L117.235 120.961C117.356 121.431 117.585 121.783 117.922 122.018C118.263 122.253 118.708 122.37 119.257 122.37C119.882 122.37 120.379 122.238 120.746 121.972C121.117 121.703 121.303 121.381 121.303 121.006C121.303 120.703 121.197 120.45 120.985 120.245C120.773 120.037 120.447 119.881 120.007 119.779L118.553 119.438C117.754 119.249 117.167 118.955 116.792 118.558C116.42 118.156 116.235 117.654 116.235 117.052C116.235 116.56 116.373 116.124 116.65 115.745C116.93 115.366 117.31 115.069 117.792 114.853C118.276 114.637 118.826 114.529 119.439 114.529C120.303 114.529 120.981 114.719 121.473 115.097C121.97 115.476 122.322 115.976 122.53 116.597ZM132.753 123.552C131.965 123.552 131.274 123.364 130.679 122.989C130.088 122.614 129.626 122.09 129.293 121.416C128.963 120.741 128.799 119.953 128.799 119.052C128.799 118.143 128.963 117.349 129.293 116.671C129.626 115.993 130.088 115.467 130.679 115.092C131.274 114.717 131.965 114.529 132.753 114.529C133.541 114.529 134.23 114.717 134.821 115.092C135.416 115.467 135.878 115.993 136.208 116.671C136.541 117.349 136.708 118.143 136.708 119.052C136.708 119.953 136.541 120.741 136.208 121.416C135.878 122.09 135.416 122.614 134.821 122.989C134.23 123.364 133.541 123.552 132.753 123.552ZM132.753 122.347C133.352 122.347 133.844 122.194 134.23 121.887C134.617 121.58 134.903 121.177 135.088 120.677C135.274 120.177 135.367 119.635 135.367 119.052C135.367 118.469 135.274 117.925 135.088 117.421C134.903 116.917 134.617 116.51 134.23 116.2C133.844 115.889 133.352 115.734 132.753 115.734C132.155 115.734 131.662 115.889 131.276 116.2C130.89 116.51 130.604 116.917 130.418 117.421C130.232 117.925 130.14 118.469 130.14 119.052C130.14 119.635 130.232 120.177 130.418 120.677C130.604 121.177 130.89 121.58 131.276 121.887C131.662 122.194 132.155 122.347 132.753 122.347ZM138.755 123.37V114.643H140.05V115.961H140.141C140.3 115.529 140.588 115.179 141.005 114.91C141.421 114.641 141.891 114.506 142.414 114.506C142.512 114.506 142.635 114.508 142.783 114.512C142.931 114.516 143.042 114.522 143.118 114.529V115.893C143.073 115.881 142.969 115.864 142.806 115.842C142.647 115.815 142.478 115.802 142.3 115.802C141.876 115.802 141.497 115.891 141.164 116.069C140.834 116.243 140.573 116.486 140.38 116.796C140.19 117.103 140.096 117.453 140.096 117.847V123.37H138.755ZM153.003 114.643V115.779H148.48V114.643H153.003ZM149.799 112.552H151.14V120.87C151.14 121.249 151.194 121.533 151.304 121.722C151.418 121.908 151.562 122.033 151.736 122.097C151.914 122.158 152.102 122.188 152.299 122.188C152.446 122.188 152.568 122.181 152.662 122.166C152.757 122.147 152.833 122.131 152.89 122.12L153.162 123.325C153.071 123.359 152.944 123.393 152.782 123.427C152.619 123.465 152.412 123.484 152.162 123.484C151.783 123.484 151.412 123.402 151.049 123.239C150.689 123.077 150.39 122.828 150.151 122.495C149.916 122.162 149.799 121.741 149.799 121.234V112.552ZM155.02 123.37V114.643H156.316V115.961H156.407C156.566 115.529 156.854 115.179 157.27 114.91C157.687 114.641 158.157 114.506 158.679 114.506C158.778 114.506 158.901 114.508 159.049 114.512C159.196 114.516 159.308 114.522 159.384 114.529V115.893C159.338 115.881 159.234 115.864 159.071 115.842C158.912 115.815 158.744 115.802 158.566 115.802C158.141 115.802 157.763 115.891 157.429 116.069C157.1 116.243 156.838 116.486 156.645 116.796C156.456 117.103 156.361 117.453 156.361 117.847V123.37H155.02ZM164.367 123.552C163.526 123.552 162.801 123.366 162.191 122.995C161.585 122.62 161.117 122.097 160.787 121.427C160.462 120.753 160.299 119.969 160.299 119.075C160.299 118.181 160.462 117.393 160.787 116.711C161.117 116.025 161.575 115.491 162.162 115.109C162.753 114.722 163.443 114.529 164.23 114.529C164.685 114.529 165.134 114.605 165.577 114.756C166.02 114.908 166.424 115.154 166.787 115.495C167.151 115.832 167.441 116.279 167.657 116.836C167.873 117.393 167.98 118.078 167.98 118.893V119.461H161.253V118.302H166.617C166.617 117.81 166.518 117.37 166.321 116.984C166.128 116.597 165.852 116.292 165.492 116.069C165.136 115.845 164.715 115.734 164.23 115.734C163.696 115.734 163.234 115.866 162.844 116.131C162.458 116.393 162.16 116.734 161.952 117.154C161.744 117.575 161.64 118.025 161.64 118.506V119.279C161.64 119.938 161.753 120.497 161.98 120.955C162.212 121.41 162.532 121.756 162.941 121.995C163.35 122.23 163.825 122.347 164.367 122.347C164.719 122.347 165.037 122.298 165.321 122.2C165.609 122.097 165.857 121.946 166.066 121.745C166.274 121.541 166.435 121.287 166.549 120.984L167.844 121.347C167.708 121.787 167.479 122.173 167.157 122.506C166.835 122.836 166.437 123.094 165.963 123.279C165.49 123.461 164.958 123.552 164.367 123.552ZM171.361 118.12V123.37H170.02V114.643H171.316V116.006H171.429C171.634 115.563 171.944 115.207 172.361 114.938C172.778 114.666 173.316 114.529 173.975 114.529C174.566 114.529 175.083 114.65 175.526 114.893C175.969 115.131 176.314 115.495 176.56 115.984C176.806 116.469 176.929 117.082 176.929 117.825V123.37H175.588V117.916C175.588 117.23 175.41 116.696 175.054 116.313C174.698 115.927 174.21 115.734 173.588 115.734C173.16 115.734 172.778 115.827 172.441 116.012C172.107 116.198 171.844 116.469 171.651 116.825C171.458 117.181 171.361 117.613 171.361 118.12ZM182.675 123.552C181.948 123.552 181.306 123.368 180.749 123.001C180.192 122.63 179.757 122.107 179.442 121.433C179.128 120.755 178.971 119.953 178.971 119.029C178.971 118.113 179.128 117.317 179.442 116.643C179.757 115.969 180.194 115.448 180.755 115.08C181.315 114.713 181.963 114.529 182.698 114.529C183.266 114.529 183.715 114.624 184.044 114.813C184.378 114.999 184.632 115.211 184.806 115.45C184.984 115.685 185.122 115.878 185.221 116.029H185.334V111.734H186.675V123.37H185.38V122.029H185.221C185.122 122.188 184.982 122.389 184.8 122.631C184.618 122.87 184.359 123.084 184.022 123.274C183.685 123.459 183.236 123.552 182.675 123.552ZM182.857 122.347C183.395 122.347 183.849 122.207 184.221 121.927C184.592 121.643 184.874 121.251 185.067 120.751C185.26 120.247 185.357 119.666 185.357 119.006C185.357 118.355 185.262 117.785 185.073 117.296C184.883 116.804 184.603 116.421 184.232 116.149C183.861 115.872 183.402 115.734 182.857 115.734C182.289 115.734 181.815 115.88 181.436 116.171C181.061 116.459 180.779 116.851 180.59 117.347C180.404 117.84 180.311 118.393 180.311 119.006C180.311 119.628 180.406 120.192 180.596 120.7C180.789 121.203 181.073 121.605 181.448 121.904C181.827 122.2 182.296 122.347 182.857 122.347ZM195.499 116.597L194.294 116.938C194.219 116.738 194.107 116.542 193.959 116.353C193.815 116.16 193.618 116.001 193.368 115.876C193.118 115.751 192.798 115.688 192.408 115.688C191.874 115.688 191.429 115.811 191.073 116.058C190.721 116.3 190.544 116.609 190.544 116.984C190.544 117.317 190.666 117.58 190.908 117.774C191.15 117.967 191.529 118.128 192.044 118.256L193.34 118.575C194.12 118.764 194.702 119.054 195.084 119.444C195.467 119.83 195.658 120.328 195.658 120.938C195.658 121.438 195.514 121.885 195.226 122.279C194.942 122.673 194.544 122.984 194.033 123.211C193.522 123.438 192.927 123.552 192.249 123.552C191.359 123.552 190.622 123.359 190.039 122.972C189.455 122.586 189.086 122.022 188.931 121.279L190.203 120.961C190.325 121.431 190.554 121.783 190.891 122.018C191.232 122.253 191.677 122.37 192.226 122.37C192.851 122.37 193.347 122.238 193.715 121.972C194.086 121.703 194.272 121.381 194.272 121.006C194.272 120.703 194.166 120.45 193.953 120.245C193.741 120.037 193.416 119.881 192.976 119.779L191.522 119.438C190.722 119.249 190.135 118.955 189.76 118.558C189.389 118.156 189.203 117.654 189.203 117.052C189.203 116.56 189.342 116.124 189.618 115.745C189.899 115.366 190.279 115.069 190.76 114.853C191.245 114.637 191.794 114.529 192.408 114.529C193.272 114.529 193.95 114.719 194.442 115.097C194.938 115.476 195.291 115.976 195.499 116.597ZM198.654 123.461C198.373 123.461 198.133 123.361 197.932 123.16C197.731 122.959 197.631 122.719 197.631 122.438C197.631 122.158 197.731 121.917 197.932 121.717C198.133 121.516 198.373 121.416 198.654 121.416C198.934 121.416 199.175 121.516 199.375 121.717C199.576 121.917 199.676 122.158 199.676 122.438C199.676 122.624 199.629 122.794 199.534 122.95C199.444 123.105 199.32 123.23 199.165 123.325C199.014 123.416 198.843 123.461 198.654 123.461Z" fill="white"/>
</g>
<rect x="44.5" y="13.4287" width="30.0176" height="30.0176" rx="15.0088" transform="rotate(90 44.5 13.4287)" fill="url(#paint0_linear_8930_3820)"/>
<circle cx="29.4922" cy="28.4375" r="9.25" stroke="white" stroke-width="1.5"/>
<circle cx="29.4909" cy="28.4372" r="5.91667" stroke="white" stroke-width="1.5"/>
<circle cx="29.4926" cy="28.4379" r="2.02778" stroke="white" stroke-width="1.5"/>
</g>
<defs>
<filter id="filter0_d_8930_3820" x="-0.00171852" y="-0.000226259" width="306.992" height="156.964" filterUnits="userSpaceOnUse" color-interpolation-filters="sRGB">
<feFlood flood-opacity="0" result="BackgroundImageFix"/>
<feColorMatrix in="SourceAlpha" type="matrix" values="0 0 0 0 0 0 0 0 0 0 0 0 0 0 0 0 0 0 127 0" result="hardAlpha"/>
<feOffset dy="1.05325"/>
<feGaussianBlur stdDeviation="7.24109"/>
<feComposite in2="hardAlpha" operator="out"/>
<feColorMatrix type="matrix" values="0 0 0 0 0 0 0 0 0 0 0 0 0 0 0 0 0 0 0.05 0"/>
<feBlend mode="normal" in2="BackgroundImageFix" result="effect1_dropShadow_8930_3820"/>
<feBlend mode="normal" in="SourceGraphic" in2="effect1_dropShadow_8930_3820" result="shape"/>
</filter>
<linearGradient id="paint0_linear_8930_3820" x1="44.5" y1="28.4375" x2="74.5176" y2="28.4375" gradientUnits="userSpaceOnUse">
<stop stop-color="#194BFB"/>
<stop offset="1" stop-color="#7D3AED"/>
</linearGradient>
</defs>
</svg>
