<svg width="156" height="221" viewBox="0 0 156 221" fill="none" xmlns="http://www.w3.org/2000/svg">
<mask id="path-1-outside-1_9004_2657" maskUnits="userSpaceOnUse" x="-0.38208" y="-0.818115" width="179" height="221" fill="black">
<rect fill="white" x="-0.38208" y="-0.818115" width="179" height="221"/>
<path d="M1.00002 180.83V144.501L92.0867 1.00006H123.408V51.2841H104.871L47.4489 142.158V143.862H176.888V180.83H1.00002ZM105.723 219.182V169.75L106.575 153.663V1.00006H149.828V219.182H105.723Z"/>
</mask>
<path d="M1.00002 180.83H2.28882e-05V181.83H1.00002V180.83ZM1.00002 144.501L0.155743 143.966L2.28882e-05 144.211V144.501H1.00002ZM92.0867 1.00006V6.00815e-05H91.537L91.2424 0.464158L92.0867 1.00006ZM123.408 1.00006H124.408V6.00815e-05H123.408V1.00006ZM123.408 51.2841V52.2841H124.408V51.2841H123.408ZM104.871 51.2841V50.2841H104.32L104.025 50.75L104.871 51.2841ZM47.4489 142.158L46.6035 141.624L46.4489 141.868V142.158H47.4489ZM47.4489 143.862H46.4489V144.862H47.4489V143.862ZM176.888 143.862H177.888V142.862H176.888V143.862ZM176.888 180.83V181.83H177.888V180.83H176.888ZM105.723 219.182H104.723V220.182H105.723V219.182ZM105.723 169.75L104.724 169.697L104.723 169.724V169.75H105.723ZM106.575 153.663L107.574 153.716L107.575 153.69V153.663H106.575ZM106.575 1.00006V6.00815e-05H105.575V1.00006H106.575ZM149.828 1.00006H150.828V6.00815e-05H149.828V1.00006ZM149.828 219.182V220.182H150.828V219.182H149.828ZM1.00002 180.83H2.00002V144.501H1.00002H2.28882e-05V180.83H1.00002ZM1.00002 144.501L1.8443 145.037L92.931 1.53596L92.0867 1.00006L91.2424 0.464158L0.155743 143.966L1.00002 144.501ZM92.0867 1.00006V2.00006H123.408V1.00006V6.00815e-05H92.0867V1.00006ZM123.408 1.00006H122.408V51.2841H123.408H124.408V1.00006H123.408ZM123.408 51.2841V50.2841H104.871V51.2841V52.2841H123.408V51.2841ZM104.871 51.2841L104.025 50.75L46.6035 141.624L47.4489 142.158L48.2943 142.692L105.716 51.8183L104.871 51.2841ZM47.4489 142.158H46.4489V143.862H47.4489H48.4489V142.158H47.4489ZM47.4489 143.862V144.862H176.888V143.862V142.862H47.4489V143.862ZM176.888 143.862H175.888V180.83H176.888H177.888V143.862H176.888ZM176.888 180.83V179.83H1.00002V180.83V181.83H176.888V180.83ZM105.723 219.182H106.723V169.75H105.723H104.723V219.182H105.723ZM105.723 169.75L106.722 169.803L107.574 153.716L106.575 153.663L105.577 153.611L104.724 169.697L105.723 169.75ZM106.575 153.663H107.575V1.00006H106.575H105.575V153.663H106.575ZM106.575 1.00006V2.00006H149.828V1.00006V6.00815e-05H106.575V1.00006ZM149.828 1.00006H148.828V219.182H149.828H150.828V1.00006H149.828ZM149.828 219.182V218.182H105.723V219.182V220.182H149.828V219.182Z" fill="white" fill-opacity="0.25" mask="url(#path-1-outside-1_9004_2657)"/>
</svg>
