<svg width="307" height="157" viewBox="0 0 307 157" fill="none" xmlns="http://www.w3.org/2000/svg">
<g filter="url(#filter0_d_8931_3946)">
<mask id="mask0_8931_3946" style="mask-type:alpha" maskUnits="userSpaceOnUse" x="14" y="13" width="279" height="129">
<path d="M292.902 131.284C292.902 136.664 288.54 141.026 283.16 141.026L24.2248 141.026C18.8441 141.026 14.4822 136.664 14.4822 131.284L14.4823 58.0604C14.4823 52.6798 18.8442 48.3179 24.2248 48.3179L30.268 48.3179C40.4095 48.3179 48.5875 40.0154 48.4345 29.8751L48.3355 23.3186C48.2534 17.881 52.6388 13.429 58.077 13.429L283.159 13.429C288.54 13.429 292.902 17.7909 292.902 23.1715L292.902 131.284Z" fill="#3C3C3C"/>
</mask>
<g mask="url(#mask0_8931_3946)">
<path d="M292.508 131.207C292.508 136.586 288.148 140.948 282.768 140.949L24.2278 141.021C18.8461 141.022 14.4826 136.66 14.4826 131.278L14.4827 52.8405C14.4827 47.4598 18.8446 43.0979 24.2252 43.0979L30.2192 43.0979C40.3796 43.0979 48.5653 34.7657 48.385 24.6069L48.3625 23.341C48.2658 17.8947 52.6534 13.4272 58.1005 13.4255L282.762 13.355C288.144 13.3533 292.508 17.7157 292.508 23.0975L292.508 131.207Z" fill="#182137"/>
<path d="M66.7756 29.5429H69.6776L73.5639 39.0287H73.7173L77.6037 29.5429H80.5057V42.6338H78.2301V33.6402H78.1087L74.4908 42.5954H72.7905L69.1726 33.621H69.0511V42.6338H66.7756V29.5429ZM87.2685 42.8256C86.3097 42.8256 85.4787 42.6146 84.7756 42.1927C84.0724 41.7709 83.527 41.1807 83.1392 40.4221C82.7557 39.6636 82.5639 38.7773 82.5639 37.7631C82.5639 36.7488 82.7557 35.8604 83.1392 35.0976C83.527 34.3348 84.0724 33.7425 84.7756 33.3206C85.4787 32.8987 86.3097 32.6878 87.2685 32.6878C88.2273 32.6878 89.0582 32.8987 89.7614 33.3206C90.4645 33.7425 91.0078 34.3348 91.3913 35.0976C91.7791 35.8604 91.973 36.7488 91.973 37.7631C91.973 38.7773 91.7791 39.6636 91.3913 40.4221C91.0078 41.1807 90.4645 41.7709 89.7614 42.1927C89.0582 42.6146 88.2273 42.8256 87.2685 42.8256ZM87.2812 40.9719C87.8011 40.9719 88.2358 40.8291 88.5852 40.5436C88.9347 40.2538 89.1946 39.866 89.3651 39.3802C89.5398 38.8944 89.6271 38.3532 89.6271 37.7567C89.6271 37.1558 89.5398 36.6125 89.3651 36.1267C89.1946 35.6366 88.9347 35.2467 88.5852 34.9569C88.2358 34.6672 87.8011 34.5223 87.2812 34.5223C86.7486 34.5223 86.3054 34.6672 85.9517 34.9569C85.6023 35.2467 85.3402 35.6366 85.1655 36.1267C84.995 36.6125 84.9098 37.1558 84.9098 37.7567C84.9098 38.3532 84.995 38.8944 85.1655 39.3802C85.3402 39.866 85.6023 40.2538 85.9517 40.5436C86.3054 40.8291 86.7486 40.9719 87.2812 40.9719ZM97.5804 42.8064C96.8091 42.8064 96.1188 42.6082 95.5094 42.2119C94.9 41.8156 94.4185 41.2403 94.0648 40.4861C93.7111 39.7318 93.5343 38.8156 93.5343 37.7375C93.5343 36.6466 93.7132 35.7261 94.0712 34.9761C94.4334 34.2219 94.9213 33.653 95.535 33.2694C96.1486 32.8817 96.8326 32.6878 97.5868 32.6878C98.1621 32.6878 98.6351 32.7858 99.0059 32.9818C99.3766 33.1736 99.6706 33.4058 99.888 33.6785C100.105 33.947 100.274 34.2006 100.393 34.4392H100.489V29.5429H102.809V42.6338H100.534V41.0869H100.393C100.274 41.3256 100.101 41.5791 99.8752 41.8476C99.6493 42.1118 99.351 42.3376 98.9803 42.5251C98.6096 42.7126 98.1429 42.8064 97.5804 42.8064ZM98.226 40.9079C98.7161 40.9079 99.1337 40.7758 99.4789 40.5116C99.824 40.2432 100.086 39.8703 100.265 39.393C100.444 38.9157 100.534 38.3596 100.534 37.7247C100.534 37.0898 100.444 36.5379 100.265 36.0692C100.09 35.6004 99.8304 35.2361 99.4853 34.9761C99.1444 34.7162 98.7246 34.5862 98.226 34.5862C97.7104 34.5862 97.28 34.7204 96.9348 34.9889C96.5897 35.2574 96.3297 35.6281 96.155 36.1011C95.9803 36.5741 95.8929 37.1153 95.8929 37.7247C95.8929 38.3383 95.9803 38.8859 96.155 39.3675C96.334 39.8447 96.5961 40.2219 96.9412 40.4988C97.2907 40.7716 97.7189 40.9079 98.226 40.9079ZM109.621 42.8256C108.637 42.8256 107.787 42.621 107.071 42.2119C106.359 41.7986 105.812 41.2148 105.428 40.4605C105.045 39.702 104.853 38.8092 104.853 37.7822C104.853 36.7723 105.045 35.8859 105.428 35.1231C105.816 34.3561 106.357 33.7595 107.052 33.3334C107.746 32.903 108.562 32.6878 109.5 32.6878C110.105 32.6878 110.676 32.7858 111.213 32.9818C111.754 33.1736 112.232 33.4719 112.645 33.8767C113.063 34.2815 113.391 34.7971 113.629 35.4236C113.868 36.0457 113.987 36.7872 113.987 37.648V38.3575H105.94V36.7979H111.769C111.765 36.3547 111.669 35.9605 111.482 35.6153C111.294 35.2659 111.032 34.991 110.695 34.7907C110.363 34.5905 109.975 34.4903 109.532 34.4903C109.059 34.4903 108.643 34.6054 108.286 34.8355C107.928 35.0613 107.648 35.3596 107.448 35.7304C107.252 36.0969 107.152 36.4996 107.148 36.9385V38.3C107.148 38.871 107.252 39.3611 107.461 39.7702C107.67 40.175 107.962 40.4861 108.337 40.7034C108.712 40.9165 109.151 41.023 109.653 41.023C109.99 41.023 110.295 40.9761 110.567 40.8824C110.84 40.7844 111.077 40.6416 111.277 40.4541C111.477 40.2666 111.629 40.0344 111.731 39.7574L113.891 40.0003C113.755 40.5713 113.495 41.0699 113.112 41.496C112.732 41.9179 112.246 42.246 111.654 42.4804C111.062 42.7105 110.384 42.8256 109.621 42.8256ZM115.945 42.6338V32.8156H118.188V34.452H118.291C118.47 33.8852 118.776 33.4484 119.211 33.1416C119.65 32.8305 120.151 32.675 120.713 32.675C120.841 32.675 120.984 32.6814 121.142 32.6942C121.303 32.7027 121.438 32.7176 121.544 32.7389V34.8675C121.446 34.8334 121.291 34.8035 121.078 34.778C120.869 34.7481 120.666 34.7332 120.47 34.7332C120.048 34.7332 119.669 34.8248 119.333 35.0081C119 35.1871 118.738 35.4363 118.546 35.7559C118.355 36.0756 118.259 36.4442 118.259 36.8618V42.6338H115.945ZM125.395 36.8809V42.6338H123.081V32.8156H125.293V34.4839H125.408C125.634 33.9342 125.994 33.4974 126.488 33.1736C126.987 32.8497 127.603 32.6878 128.336 32.6878C129.013 32.6878 129.604 32.8327 130.106 33.1224C130.613 33.4122 131.006 33.8319 131.282 34.3817C131.564 34.9314 131.702 35.5983 131.698 36.3824V42.6338H129.384V36.7403C129.384 36.0841 129.214 35.5706 128.873 35.1998C128.536 34.8291 128.069 34.6437 127.473 34.6437C127.068 34.6437 126.708 34.7332 126.393 34.9122C126.081 35.0869 125.836 35.3405 125.657 35.6729C125.483 36.0052 125.395 36.4079 125.395 36.8809ZM142.427 42.8256C141.532 42.8256 140.763 42.6636 140.119 42.3398C139.476 42.0159 138.98 41.5791 138.63 41.0294C138.285 40.4754 138.112 39.8511 138.112 39.1565C138.112 38.6324 138.219 38.1679 138.432 37.7631C138.649 37.3582 138.948 36.9832 139.327 36.6381C139.71 36.2929 140.154 35.9498 140.656 35.6089L142.977 34.0301C143.318 33.8085 143.575 33.5741 143.75 33.327C143.929 33.0798 144.019 32.79 144.019 32.4577C144.019 32.1764 143.899 31.9101 143.661 31.6586C143.426 31.4072 143.102 31.2815 142.689 31.2815C142.412 31.2815 142.167 31.3476 141.954 31.4797C141.745 31.6075 141.581 31.7758 141.462 31.9846C141.347 32.1934 141.289 32.415 141.289 32.6494C141.289 32.9349 141.368 33.2247 141.526 33.5187C141.688 33.8128 141.896 34.1175 142.152 34.4328C142.412 34.7481 142.689 35.0827 142.983 35.4363L149.126 42.6338H146.62L141.519 36.7915C141.14 36.3483 140.774 35.9115 140.42 35.4811C140.07 35.0507 139.783 34.6032 139.557 34.1388C139.335 33.67 139.225 33.1629 139.225 32.6175C139.225 31.9996 139.367 31.4477 139.653 30.9619C139.938 30.4719 140.337 30.0862 140.848 29.805C141.364 29.5237 141.967 29.3831 142.657 29.3831C143.347 29.3831 143.94 29.5194 144.434 29.7922C144.928 30.0649 145.31 30.4271 145.578 30.8788C145.847 31.3305 145.981 31.8227 145.981 32.3554C145.981 32.9733 145.828 33.5273 145.521 34.0173C145.214 34.5031 144.788 34.9442 144.242 35.3405L141.596 37.2773C141.161 37.5926 140.85 37.9122 140.663 38.2361C140.475 38.5557 140.382 38.8284 140.382 39.0542C140.382 39.3994 140.469 39.7126 140.644 39.9939C140.818 40.2751 141.063 40.501 141.379 40.6714C141.698 40.8376 142.071 40.9207 142.497 40.9207C142.966 40.9207 143.428 40.8163 143.884 40.6075C144.34 40.3944 144.756 40.0919 145.131 39.6998C145.506 39.3078 145.804 38.839 146.026 38.2936C146.247 37.7439 146.358 37.1345 146.358 36.4655H148.346C148.346 37.2922 148.254 38.0123 148.071 38.626C147.888 39.2354 147.651 39.751 147.362 40.1729C147.072 40.5905 146.765 40.925 146.441 41.1764C146.339 41.2488 146.241 41.3213 146.147 41.3937C146.053 41.4662 145.955 41.5386 145.853 41.6111C145.393 42.0287 144.854 42.3355 144.236 42.5315C143.622 42.7275 143.019 42.8256 142.427 42.8256ZM162.132 33.1416C162.072 32.5834 161.821 32.1487 161.378 31.8376C160.939 31.5265 160.368 31.371 159.665 31.371C159.17 31.371 158.746 31.4456 158.393 31.5947C158.039 31.7439 157.768 31.9463 157.581 32.202C157.393 32.4577 157.298 32.7496 157.293 33.0777C157.293 33.3504 157.355 33.5869 157.479 33.7872C157.607 33.9875 157.779 34.1579 157.996 34.2986C158.214 34.4349 158.455 34.55 158.719 34.6437C158.983 34.7375 159.249 34.8163 159.518 34.8802L160.745 35.1871C161.239 35.3021 161.714 35.4577 162.17 35.6537C162.631 35.8497 163.042 36.0969 163.404 36.3952C163.771 36.6934 164.06 37.0535 164.273 37.4754C164.487 37.8973 164.593 38.3916 164.593 38.9584C164.593 39.7254 164.397 40.4008 164.005 40.9846C163.613 41.5642 163.046 42.018 162.305 42.3461C161.567 42.67 160.675 42.8319 159.626 42.8319C158.608 42.8319 157.724 42.6743 156.974 42.3589C156.228 42.0436 155.644 41.5834 155.222 40.9782C154.805 40.3731 154.579 39.6359 154.545 38.7666H156.878C156.912 39.2226 157.053 39.6018 157.3 39.9044C157.547 40.2069 157.869 40.4328 158.265 40.5819C158.665 40.7311 159.113 40.8057 159.607 40.8057C160.123 40.8057 160.575 40.729 160.962 40.5756C161.354 40.4179 161.661 40.2006 161.883 39.9236C162.104 39.6423 162.217 39.3142 162.222 38.9392C162.217 38.5983 162.117 38.317 161.921 38.0954C161.725 37.8696 161.45 37.6821 161.097 37.5329C160.747 37.3795 160.338 37.2432 159.869 37.1238L158.38 36.7403C157.302 36.4633 156.45 36.0436 155.823 35.4811C155.201 34.9143 154.89 34.1622 154.89 33.2247C154.89 32.4534 155.099 31.778 155.516 31.1984C155.938 30.6189 156.511 30.1693 157.236 29.8497C157.96 29.5258 158.781 29.3639 159.697 29.3639C160.626 29.3639 161.44 29.5258 162.138 29.8497C162.842 30.1693 163.393 30.6146 163.794 31.1856C164.195 31.7524 164.401 32.4044 164.414 33.1416H162.132ZM170.888 42.8256C169.907 42.8256 169.066 42.6104 168.363 42.18C167.664 41.7496 167.125 41.1551 166.746 40.3966C166.371 39.6338 166.183 38.7559 166.183 37.7631C166.183 36.7659 166.375 35.8859 166.758 35.1231C167.142 34.3561 167.683 33.7595 168.382 33.3334C169.085 32.903 169.916 32.6878 170.875 32.6878C171.672 32.6878 172.377 32.8348 172.991 33.1288C173.608 33.4186 174.101 33.8298 174.467 34.3625C174.834 34.8909 175.042 35.5088 175.094 36.2162H172.882C172.792 35.7432 172.579 35.349 172.243 35.0336C171.91 34.714 171.465 34.5542 170.907 34.5542C170.434 34.5542 170.018 34.6821 169.66 34.9378C169.302 35.1892 169.023 35.5514 168.823 36.0244C168.627 36.4974 168.529 37.0642 168.529 37.7247C168.529 38.3937 168.627 38.969 168.823 39.4506C169.019 39.9278 169.294 40.2964 169.648 40.5564C170.006 40.8121 170.425 40.9399 170.907 40.9399C171.248 40.9399 171.552 40.876 171.821 40.7481C172.094 40.616 172.322 40.4264 172.505 40.1792C172.688 39.9321 172.814 39.6317 172.882 39.278H175.094C175.038 39.9726 174.834 40.5883 174.48 41.1253C174.126 41.6579 173.645 42.0756 173.035 42.3781C172.426 42.6764 171.71 42.8256 170.888 42.8256ZM179.819 42.8319C179.197 42.8319 178.636 42.7211 178.138 42.4996C177.643 42.2737 177.251 41.9413 176.962 41.5024C176.676 41.0635 176.533 40.5223 176.533 39.8788C176.533 39.3248 176.636 38.8667 176.84 38.5045C177.045 38.1423 177.324 37.8525 177.678 37.6352C178.031 37.4179 178.43 37.2538 178.873 37.143C179.32 37.028 179.783 36.9449 180.26 36.8937C180.835 36.8341 181.302 36.7808 181.66 36.7339C182.018 36.6828 182.278 36.6061 182.44 36.5038C182.606 36.3973 182.689 36.2332 182.689 36.0116V35.9733C182.689 35.4917 182.546 35.1189 182.261 34.8547C181.975 34.5905 181.564 34.4584 181.027 34.4584C180.46 34.4584 180.011 34.5819 179.678 34.8291C179.35 35.0763 179.129 35.3682 179.013 35.7048L176.853 35.398C177.023 34.8014 177.305 34.3028 177.697 33.9023C178.089 33.4974 178.568 33.1949 179.135 32.9946C179.702 32.79 180.328 32.6878 181.014 32.6878C181.487 32.6878 181.958 32.7432 182.427 32.854C182.896 32.9648 183.324 33.148 183.712 33.4037C184.099 33.6551 184.411 33.9981 184.645 34.4328C184.884 34.8675 185.003 35.4108 185.003 36.0628V42.6338H182.778V41.2851H182.702C182.561 41.5578 182.363 41.8135 182.107 42.0521C181.856 42.2865 181.538 42.4761 181.155 42.621C180.776 42.7616 180.33 42.8319 179.819 42.8319ZM180.42 41.1317C180.884 41.1317 181.287 41.04 181.628 40.8568C181.969 40.6693 182.231 40.4221 182.414 40.1153C182.602 39.8085 182.695 39.474 182.695 39.1118V37.9548C182.623 38.0145 182.499 38.0699 182.325 38.121C182.154 38.1721 181.962 38.2169 181.749 38.2552C181.536 38.2936 181.325 38.3277 181.116 38.3575C180.908 38.3873 180.727 38.4129 180.573 38.4342C180.228 38.4811 179.919 38.5578 179.646 38.6643C179.374 38.7709 179.158 38.92 179.001 39.1118C178.843 39.2993 178.764 39.5422 178.764 39.8405C178.764 40.2666 178.92 40.5883 179.231 40.8057C179.542 41.023 179.938 41.1317 180.42 41.1317ZM189.643 29.5429V42.6338H187.33V29.5429H189.643ZM194.848 42.8319C194.226 42.8319 193.666 42.7211 193.167 42.4996C192.673 42.2737 192.281 41.9413 191.991 41.5024C191.705 41.0635 191.563 40.5223 191.563 39.8788C191.563 39.3248 191.665 38.8667 191.869 38.5045C192.074 38.1423 192.353 37.8525 192.707 37.6352C193.061 37.4179 193.459 37.2538 193.902 37.143C194.35 37.028 194.812 36.9449 195.289 36.8937C195.865 36.8341 196.331 36.7808 196.689 36.7339C197.047 36.6828 197.307 36.6061 197.469 36.5038C197.635 36.3973 197.718 36.2332 197.718 36.0116V35.9733C197.718 35.4917 197.575 35.1189 197.29 34.8547C197.004 34.5905 196.593 34.4584 196.056 34.4584C195.49 34.4584 195.04 34.5819 194.708 34.8291C194.379 35.0763 194.158 35.3682 194.043 35.7048L191.882 35.398C192.053 34.8014 192.334 34.3028 192.726 33.9023C193.118 33.4974 193.597 33.1949 194.164 32.9946C194.731 32.79 195.357 32.6878 196.044 32.6878C196.517 32.6878 196.987 32.7432 197.456 32.854C197.925 32.9648 198.353 33.148 198.741 33.4037C199.129 33.6551 199.44 33.9981 199.674 34.4328C199.913 34.8675 200.032 35.4108 200.032 36.0628V42.6338H197.808V41.2851H197.731C197.59 41.5578 197.392 41.8135 197.137 42.0521C196.885 42.2865 196.568 42.4761 196.184 42.621C195.805 42.7616 195.36 42.8319 194.848 42.8319ZM195.449 41.1317C195.914 41.1317 196.316 41.04 196.657 40.8568C196.998 40.6693 197.26 40.4221 197.443 40.1153C197.631 39.8085 197.725 39.474 197.725 39.1118V37.9548C197.652 38.0145 197.529 38.0699 197.354 38.121C197.183 38.1721 196.992 38.2169 196.779 38.2552C196.566 38.2936 196.355 38.3277 196.146 38.3575C195.937 38.3873 195.756 38.4129 195.602 38.4342C195.257 38.4811 194.948 38.5578 194.676 38.6643C194.403 38.7709 194.188 38.92 194.03 39.1118C193.872 39.2993 193.794 39.5422 193.794 39.8405C193.794 40.2666 193.949 40.5883 194.26 40.8057C194.571 41.023 194.968 41.1317 195.449 41.1317ZM202.461 42.6338V29.5429H204.775V34.4392H204.871C204.99 34.2006 205.159 33.947 205.376 33.6785C205.593 33.4058 205.887 33.1736 206.258 32.9818C206.629 32.7858 207.102 32.6878 207.677 32.6878C208.436 32.6878 209.119 32.8817 209.729 33.2694C210.343 33.653 210.828 34.2219 211.186 34.9761C211.548 35.7261 211.73 36.6466 211.73 37.7375C211.73 38.8156 211.553 39.7318 211.199 40.4861C210.845 41.2403 210.364 41.8156 209.754 42.2119C209.145 42.6082 208.455 42.8064 207.683 42.8064C207.121 42.8064 206.654 42.7126 206.284 42.5251C205.913 42.3376 205.615 42.1118 205.389 41.8476C205.167 41.5791 204.994 41.3256 204.871 41.0869H204.737V42.6338H202.461ZM204.73 37.7247C204.73 38.3596 204.82 38.9157 204.999 39.393C205.182 39.8703 205.444 40.2432 205.785 40.5116C206.13 40.7758 206.548 40.9079 207.038 40.9079C207.549 40.9079 207.977 40.7716 208.323 40.4988C208.668 40.2219 208.928 39.8447 209.102 39.3675C209.281 38.8859 209.371 38.3383 209.371 37.7247C209.371 37.1153 209.284 36.5741 209.109 36.1011C208.934 35.6281 208.674 35.2574 208.329 34.9889C207.984 34.7204 207.553 34.5862 207.038 34.5862C206.544 34.5862 206.124 34.7162 205.779 34.9761C205.433 35.2361 205.171 35.6004 204.992 36.0692C204.818 36.5379 204.73 37.0898 204.73 37.7247ZM216.011 29.5429V42.6338H213.697V29.5429H216.011ZM222.737 42.8256C221.752 42.8256 220.902 42.621 220.186 42.2119C219.475 41.7986 218.927 41.2148 218.544 40.4605C218.16 39.702 217.968 38.8092 217.968 37.7822C217.968 36.7723 218.16 35.8859 218.544 35.1231C218.931 34.3561 219.472 33.7595 220.167 33.3334C220.862 32.903 221.678 32.6878 222.615 32.6878C223.22 32.6878 223.791 32.7858 224.328 32.9818C224.869 33.1736 225.347 33.4719 225.76 33.8767C226.178 34.2815 226.506 34.7971 226.744 35.4236C226.983 36.0457 227.102 36.7872 227.102 37.648V38.3575H219.055V36.7979H224.884C224.88 36.3547 224.784 35.9605 224.597 35.6153C224.409 35.2659 224.147 34.991 223.811 34.7907C223.478 34.5905 223.09 34.4903 222.647 34.4903C222.174 34.4903 221.759 34.6054 221.401 34.8355C221.043 35.0613 220.764 35.3596 220.563 35.7304C220.367 36.0969 220.267 36.4996 220.263 36.9385V38.3C220.263 38.871 220.367 39.3611 220.576 39.7702C220.785 40.175 221.077 40.4861 221.452 40.7034C221.827 40.9165 222.266 41.023 222.769 41.023C223.105 41.023 223.41 40.9761 223.683 40.8824C223.955 40.7844 224.192 40.6416 224.392 40.4541C224.593 40.2666 224.744 40.0344 224.846 39.7574L227.007 40.0003C226.87 40.5713 226.61 41.0699 226.227 41.496C225.847 41.9179 225.362 42.246 224.769 42.4804C224.177 42.7105 223.499 42.8256 222.737 42.8256Z" fill="white"/>
<path d="M29.3271 75.3701V63.7338H30.7362V74.1201H36.1452V75.3701H29.3271ZM41.8043 75.5519C40.9634 75.5519 40.238 75.3663 39.6282 74.9951C39.0221 74.6201 38.5543 74.0974 38.2248 73.4269C37.899 72.7527 37.7362 71.9686 37.7362 71.0747C37.7362 70.1807 37.899 69.3928 38.2248 68.711C38.5543 68.0254 39.0127 67.4913 39.5998 67.1088C40.1907 66.7224 40.8801 66.5292 41.668 66.5292C42.1225 66.5292 42.5714 66.605 43.0146 66.7565C43.4577 66.908 43.8612 67.1542 44.2248 67.4951C44.5884 67.8322 44.8782 68.2792 45.0941 68.836C45.31 69.3928 45.418 70.0785 45.418 70.8928V71.461H38.6907V70.3019H44.0543C44.0543 69.8095 43.9558 69.3701 43.7589 68.9838C43.5657 68.5974 43.2892 68.2925 42.9293 68.069C42.5733 67.8455 42.1528 67.7338 41.668 67.7338C41.1339 67.7338 40.6718 67.8663 40.2816 68.1315C39.8952 68.3928 39.5979 68.7338 39.3896 69.1542C39.1812 69.5747 39.0771 70.0254 39.0771 70.5065V71.2792C39.0771 71.9383 39.1907 72.497 39.418 72.9553C39.649 73.4099 39.9691 73.7565 40.3782 73.9951C40.7873 74.23 41.2627 74.3474 41.8043 74.3474C42.1566 74.3474 42.4748 74.2981 42.7589 74.1997C43.0468 74.0974 43.2949 73.9459 43.5032 73.7451C43.7115 73.5406 43.8725 73.2868 43.9862 72.9838L45.2816 73.3474C45.1452 73.7868 44.9161 74.1731 44.5941 74.5065C44.2721 74.836 43.8744 75.0936 43.4009 75.2792C42.9274 75.461 42.3952 75.5519 41.8043 75.5519ZM54.3285 66.6428L51.1012 75.3701H49.7376L46.5103 66.6428H47.9648L50.3739 73.5974H50.4648L52.8739 66.6428H54.3285ZM59.445 75.5519C58.604 75.5519 57.8787 75.3663 57.2688 74.9951C56.6628 74.6201 56.195 74.0974 55.8654 73.4269C55.5397 72.7527 55.3768 71.9686 55.3768 71.0747C55.3768 70.1807 55.5397 69.3928 55.8654 68.711C56.195 68.0254 56.6533 67.4913 57.2404 67.1088C57.8313 66.7224 58.5207 66.5292 59.3086 66.5292C59.7631 66.5292 60.212 66.605 60.6552 66.7565C61.0984 66.908 61.5018 67.1542 61.8654 67.4951C62.229 67.8322 62.5188 68.2792 62.7347 68.836C62.9506 69.3928 63.0586 70.0785 63.0586 70.8928V71.461H56.3313V70.3019H61.695C61.695 69.8095 61.5965 69.3701 61.3995 68.9838C61.2063 68.5974 60.9298 68.2925 60.57 68.069C60.2139 67.8455 59.7934 67.7338 59.3086 67.7338C58.7745 67.7338 58.3124 67.8663 57.9222 68.1315C57.5359 68.3928 57.2385 68.7338 57.0302 69.1542C56.8219 69.5747 56.7177 70.0254 56.7177 70.5065V71.2792C56.7177 71.9383 56.8313 72.497 57.0586 72.9553C57.2897 73.4099 57.6097 73.7565 58.0188 73.9951C58.4279 74.23 58.9033 74.3474 59.445 74.3474C59.7972 74.3474 60.1154 74.2981 60.3995 74.1997C60.6874 74.0974 60.9355 73.9459 61.1438 73.7451C61.3522 73.5406 61.5131 73.2868 61.6268 72.9838L62.9222 73.3474C62.7859 73.7868 62.5567 74.1731 62.2347 74.5065C61.9128 74.836 61.515 75.0936 61.0415 75.2792C60.5681 75.461 60.0359 75.5519 59.445 75.5519ZM65.0984 75.3701V66.6428H66.3938V67.961H66.4847C66.6438 67.5292 66.9317 67.1788 67.3484 66.9099C67.765 66.6409 68.2347 66.5065 68.7575 66.5065C68.8559 66.5065 68.979 66.5084 69.1268 66.5122C69.2745 66.516 69.3862 66.5216 69.462 66.5292V67.8928C69.4165 67.8815 69.3124 67.8644 69.1495 67.8417C68.9904 67.8152 68.8219 67.8019 68.6438 67.8019C68.2196 67.8019 67.8408 67.891 67.5075 68.069C67.1779 68.2432 66.9165 68.4856 66.7234 68.7963C66.534 69.1031 66.4393 69.4535 66.4393 69.8474V75.3701H65.0984ZM73.6197 75.5747C73.0666 75.5747 72.5647 75.4705 72.114 75.2622C71.6632 75.05 71.3053 74.7451 71.0401 74.3474C70.775 73.9459 70.6424 73.461 70.6424 72.8928C70.6424 72.3928 70.7409 71.9875 70.9379 71.6769C71.1348 71.3625 71.3981 71.1163 71.7276 70.9383C72.0572 70.7603 72.4208 70.6277 72.8185 70.5406C73.2201 70.4497 73.6235 70.3777 74.0288 70.3247C74.5591 70.2565 74.989 70.2053 75.3185 70.1713C75.6519 70.1334 75.8943 70.0709 76.0458 69.9838C76.2011 69.8966 76.2788 69.7451 76.2788 69.5292V69.4838C76.2788 68.9231 76.1254 68.4875 75.8185 68.1769C75.5155 67.8663 75.0553 67.711 74.4379 67.711C73.7977 67.711 73.2958 67.8512 72.9322 68.1315C72.5685 68.4118 72.3129 68.711 72.1651 69.0292L70.8924 68.5747C71.1197 68.0444 71.4227 67.6315 71.8015 67.336C72.1841 67.0368 72.6007 66.8285 73.0515 66.711C73.506 66.5898 73.953 66.5292 74.3924 66.5292C74.6727 66.5292 74.9947 66.5633 75.3583 66.6315C75.7257 66.6959 76.0799 66.8303 76.4208 67.0349C76.7655 67.2394 77.0515 67.5481 77.2788 67.961C77.506 68.3739 77.6197 68.9269 77.6197 69.6201V75.3701H76.2788V74.1883H76.2106C76.1197 74.3777 75.9682 74.5803 75.756 74.7963C75.5439 75.0122 75.2617 75.1959 74.9094 75.3474C74.5572 75.4989 74.1272 75.5747 73.6197 75.5747ZM73.8242 74.3701C74.3545 74.3701 74.8015 74.266 75.1651 74.0576C75.5326 73.8493 75.8091 73.5803 75.9947 73.2508C76.1841 72.9213 76.2788 72.5747 76.2788 72.211V70.9838C76.2219 71.0519 76.0969 71.1144 75.9038 71.1713C75.7144 71.2243 75.4947 71.2716 75.2447 71.3133C74.9985 71.3512 74.7579 71.3853 74.5231 71.4156C74.292 71.4421 74.1045 71.4648 73.9606 71.4838C73.6121 71.5292 73.2863 71.6031 72.9833 71.7053C72.6841 71.8038 72.4416 71.9535 72.256 72.1542C72.0742 72.3512 71.9833 72.6201 71.9833 72.961C71.9833 73.4269 72.1557 73.7792 72.5004 74.0178C72.8488 74.2527 73.2901 74.3701 73.8242 74.3701ZM83.5898 78.8247C82.9421 78.8247 82.3853 78.7413 81.9194 78.5747C81.4535 78.4118 81.0652 78.1959 80.7546 77.9269C80.4478 77.6618 80.2035 77.3777 80.0217 77.0747L81.0898 76.3247C81.2111 76.4838 81.3645 76.6656 81.5501 76.8701C81.7357 77.0785 81.9895 77.2584 82.3114 77.4099C82.6372 77.5652 83.0633 77.6428 83.5898 77.6428C84.2944 77.6428 84.8758 77.4724 85.3342 77.1315C85.7925 76.7906 86.0217 76.2565 86.0217 75.5292V73.7565H85.908C85.8095 73.9156 85.6694 74.1125 85.4876 74.3474C85.3095 74.5785 85.052 74.7849 84.7148 74.9667C84.3815 75.1447 83.9308 75.2338 83.3626 75.2338C82.658 75.2338 82.0254 75.0671 81.4648 74.7338C80.908 74.4004 80.4667 73.9156 80.141 73.2792C79.819 72.6428 79.658 71.8701 79.658 70.961C79.658 70.0671 79.8152 69.2887 80.1296 68.6258C80.444 67.9591 80.8815 67.444 81.4421 67.0803C82.0027 66.7129 82.6504 66.5292 83.3853 66.5292C83.9535 66.5292 84.4042 66.6239 84.7376 66.8133C85.0747 66.9989 85.3323 67.211 85.5103 67.4497C85.6921 67.6845 85.8323 67.8777 85.9308 68.0292H86.0671V66.6428H87.3626V75.6201C87.3626 76.3701 87.1921 76.98 86.8512 77.4497C86.5141 77.9231 86.0595 78.2697 85.4876 78.4894C84.9194 78.7129 84.2868 78.8247 83.5898 78.8247ZM83.5444 74.0292C84.0823 74.0292 84.5368 73.9061 84.908 73.6599C85.2792 73.4137 85.5614 73.0595 85.7546 72.5974C85.9478 72.1353 86.0444 71.5822 86.0444 70.9383C86.0444 70.3095 85.9497 69.7546 85.7603 69.2735C85.5709 68.7925 85.2906 68.4156 84.9194 68.1428C84.5482 67.8701 84.0898 67.7338 83.5444 67.7338C82.9762 67.7338 82.5027 67.8777 82.1239 68.1656C81.7489 68.4535 81.4667 68.8398 81.2773 69.3247C81.0917 69.8095 80.9989 70.3474 80.9989 70.9383C80.9989 71.5444 81.0936 72.0803 81.283 72.5463C81.4762 73.0084 81.7603 73.372 82.1353 73.6372C82.5141 73.8985 82.9838 74.0292 83.5444 74.0292ZM89.8171 75.3701V66.6428H91.158V75.3701H89.8171ZM90.4989 65.1883C90.2376 65.1883 90.0122 65.0993 89.8228 64.9213C89.6372 64.7432 89.5444 64.5292 89.5444 64.2792C89.5444 64.0292 89.6372 63.8152 89.8228 63.6372C90.0122 63.4591 90.2376 63.3701 90.4989 63.3701C90.7603 63.3701 90.9838 63.4591 91.1694 63.6372C91.3588 63.8152 91.4535 64.0292 91.4535 64.2792C91.4535 64.5292 91.3588 64.7432 91.1694 64.9213C90.9838 65.0993 90.7603 65.1883 90.4989 65.1883ZM94.9549 70.1201V75.3701H93.614V66.6428H94.9094V68.0065H95.0231C95.2276 67.5633 95.5382 67.2072 95.9549 66.9383C96.3716 66.6656 96.9094 66.5292 97.5685 66.5292C98.1594 66.5292 98.6765 66.6504 99.1197 66.8928C99.5629 67.1315 99.9076 67.4951 100.154 67.9838C100.4 68.4686 100.523 69.0822 100.523 69.8247V75.3701H99.1822V69.9156C99.1822 69.23 99.0041 68.6959 98.6481 68.3133C98.292 67.9269 97.8034 67.7338 97.1822 67.7338C96.7541 67.7338 96.3716 67.8266 96.0344 68.0122C95.7011 68.1978 95.4379 68.4686 95.2447 68.8247C95.0515 69.1807 94.9549 69.6125 94.9549 70.1201ZM106.496 78.8247C105.848 78.8247 105.292 78.7413 104.826 78.5747C104.36 78.4118 103.971 78.1959 103.661 77.9269C103.354 77.6618 103.11 77.3777 102.928 77.0747L103.996 76.3247C104.117 76.4838 104.271 76.6656 104.456 76.8701C104.642 77.0785 104.896 77.2584 105.218 77.4099C105.543 77.5652 105.97 77.6428 106.496 77.6428C107.201 77.6428 107.782 77.4724 108.24 77.1315C108.699 76.7906 108.928 76.2565 108.928 75.5292V73.7565H108.814C108.716 73.9156 108.576 74.1125 108.394 74.3474C108.216 74.5785 107.958 74.7849 107.621 74.9667C107.288 75.1447 106.837 75.2338 106.269 75.2338C105.564 75.2338 104.932 75.0671 104.371 74.7338C103.814 74.4004 103.373 73.9156 103.047 73.2792C102.725 72.6428 102.564 71.8701 102.564 70.961C102.564 70.0671 102.721 69.2887 103.036 68.6258C103.35 67.9591 103.788 67.444 104.348 67.0803C104.909 66.7129 105.557 66.5292 106.292 66.5292C106.86 66.5292 107.31 66.6239 107.644 66.8133C107.981 66.9989 108.239 67.211 108.417 67.4497C108.598 67.6845 108.739 67.8777 108.837 68.0292H108.973V66.6428H110.269V75.6201C110.269 76.3701 110.098 76.98 109.757 77.4497C109.42 77.9231 108.966 78.2697 108.394 78.4894C107.826 78.7129 107.193 78.8247 106.496 78.8247ZM106.451 74.0292C106.989 74.0292 107.443 73.9061 107.814 73.6599C108.185 73.4137 108.468 73.0595 108.661 72.5974C108.854 72.1353 108.951 71.5822 108.951 70.9383C108.951 70.3095 108.856 69.7546 108.667 69.2735C108.477 68.7925 108.197 68.4156 107.826 68.1428C107.454 67.8701 106.996 67.7338 106.451 67.7338C105.882 67.7338 105.409 67.8777 105.03 68.1656C104.655 68.4535 104.373 68.8398 104.184 69.3247C103.998 69.8095 103.905 70.3474 103.905 70.9383C103.905 71.5444 104 72.0803 104.189 72.5463C104.382 73.0084 104.667 73.372 105.042 73.6372C105.42 73.8985 105.89 74.0292 106.451 74.0292ZM117.223 75.3701V66.6428H118.519V68.0065H118.632C118.814 67.5406 119.108 67.1788 119.513 66.9213C119.918 66.6599 120.405 66.5292 120.973 66.5292C121.549 66.5292 122.028 66.6599 122.411 66.9213C122.797 67.1788 123.098 67.5406 123.314 68.0065H123.405C123.629 67.5557 123.964 67.1978 124.411 66.9326C124.858 66.6637 125.394 66.5292 126.019 66.5292C126.799 66.5292 127.437 66.7735 127.934 67.2622C128.43 67.747 128.678 68.5027 128.678 69.5292V75.3701H127.337V69.5292C127.337 68.8853 127.161 68.425 126.809 68.1485C126.456 67.872 126.042 67.7338 125.564 67.7338C124.951 67.7338 124.475 67.9194 124.138 68.2906C123.801 68.658 123.632 69.1239 123.632 69.6883V75.3701H122.269V69.3928C122.269 68.8966 122.108 68.497 121.786 68.194C121.464 67.8872 121.049 67.7338 120.542 67.7338C120.193 67.7338 119.867 67.8266 119.564 68.0122C119.265 68.1978 119.023 68.4553 118.837 68.7849C118.655 69.1106 118.564 69.4875 118.564 69.9156V75.3701H117.223ZM134.675 75.5519C133.887 75.5519 133.196 75.3644 132.601 74.9894C132.01 74.6144 131.548 74.0898 131.215 73.4156C130.885 72.7413 130.721 71.9535 130.721 71.0519C130.721 70.1428 130.885 69.3493 131.215 68.6713C131.548 67.9932 132.01 67.4667 132.601 67.0917C133.196 66.7167 133.887 66.5292 134.675 66.5292C135.463 66.5292 136.152 66.7167 136.743 67.0917C137.338 67.4667 137.8 67.9932 138.13 68.6713C138.463 69.3493 138.63 70.1428 138.63 71.0519C138.63 71.9535 138.463 72.7413 138.13 73.4156C137.8 74.0898 137.338 74.6144 136.743 74.9894C136.152 75.3644 135.463 75.5519 134.675 75.5519ZM134.675 74.3474C135.274 74.3474 135.766 74.194 136.152 73.8872C136.539 73.5803 136.825 73.1769 137.01 72.6769C137.196 72.1769 137.289 71.6353 137.289 71.0519C137.289 70.4686 137.196 69.925 137.01 69.4213C136.825 68.9175 136.539 68.5103 136.152 68.1997C135.766 67.8891 135.274 67.7338 134.675 67.7338C134.077 67.7338 133.584 67.8891 133.198 68.1997C132.811 68.5103 132.525 68.9175 132.34 69.4213C132.154 69.925 132.061 70.4686 132.061 71.0519C132.061 71.6353 132.154 72.1769 132.34 72.6769C132.525 73.1769 132.811 73.5803 133.198 73.8872C133.584 74.194 134.077 74.3474 134.675 74.3474ZM143.972 75.5519C143.245 75.5519 142.603 75.3682 142.046 75.0008C141.489 74.6296 141.053 74.1069 140.739 73.4326C140.425 72.7546 140.267 71.9535 140.267 71.0292C140.267 70.1125 140.425 69.3171 140.739 68.6428C141.053 67.9686 141.491 67.4478 142.051 67.0803C142.612 66.7129 143.26 66.5292 143.995 66.5292C144.563 66.5292 145.012 66.6239 145.341 66.8133C145.675 66.9989 145.928 67.211 146.103 67.4497C146.281 67.6845 146.419 67.8777 146.517 68.0292H146.631V63.7338H147.972V75.3701H146.676V74.0292H146.517C146.419 74.1883 146.279 74.3891 146.097 74.6315C145.915 74.8701 145.656 75.0841 145.319 75.2735C144.981 75.4591 144.533 75.5519 143.972 75.5519ZM144.154 74.3474C144.692 74.3474 145.146 74.2072 145.517 73.9269C145.889 73.6428 146.171 73.2508 146.364 72.7508C146.557 72.247 146.654 71.6656 146.654 71.0065C146.654 70.355 146.559 69.7849 146.37 69.2963C146.18 68.8038 145.9 68.4213 145.529 68.1485C145.158 67.872 144.699 67.7338 144.154 67.7338C143.586 67.7338 143.112 67.8796 142.733 68.1713C142.358 68.4591 142.076 68.8512 141.887 69.3474C141.701 69.8398 141.608 70.3928 141.608 71.0065C141.608 71.6277 141.703 72.1921 141.892 72.6997C142.086 73.2035 142.37 73.605 142.745 73.9042C143.123 74.1997 143.593 74.3474 144.154 74.3474ZM154.273 75.5519C153.432 75.5519 152.707 75.3663 152.097 74.9951C151.491 74.6201 151.023 74.0974 150.694 73.4269C150.368 72.7527 150.205 71.9686 150.205 71.0747C150.205 70.1807 150.368 69.3928 150.694 68.711C151.023 68.0254 151.481 67.4913 152.069 67.1088C152.659 66.7224 153.349 66.5292 154.137 66.5292C154.591 66.5292 155.04 66.605 155.483 66.7565C155.926 66.908 156.33 67.1542 156.694 67.4951C157.057 67.8322 157.347 68.2792 157.563 68.836C157.779 69.3928 157.887 70.0785 157.887 70.8928V71.461H151.159V70.3019H156.523C156.523 69.8095 156.425 69.3701 156.228 68.9838C156.034 68.5974 155.758 68.2925 155.398 68.069C155.042 67.8455 154.622 67.7338 154.137 67.7338C153.603 67.7338 153.141 67.8663 152.75 68.1315C152.364 68.3928 152.067 68.7338 151.858 69.1542C151.65 69.5747 151.546 70.0254 151.546 70.5065V71.2792C151.546 71.9383 151.659 72.497 151.887 72.9553C152.118 73.4099 152.438 73.7565 152.847 73.9951C153.256 74.23 153.731 74.3474 154.273 74.3474C154.625 74.3474 154.944 74.2981 155.228 74.1997C155.516 74.0974 155.764 73.9459 155.972 73.7451C156.18 73.5406 156.341 73.2868 156.455 72.9838L157.75 73.3474C157.614 73.7868 157.385 74.1731 157.063 74.5065C156.741 74.836 156.343 75.0936 155.87 75.2792C155.396 75.461 154.864 75.5519 154.273 75.5519ZM159.926 75.3701V66.6428H161.222V67.961H161.313C161.472 67.5292 161.76 67.1788 162.176 66.9099C162.593 66.6409 163.063 66.5065 163.586 66.5065C163.684 66.5065 163.807 66.5084 163.955 66.5122C164.103 66.516 164.214 66.5216 164.29 66.5292V67.8928C164.245 67.8815 164.141 67.8644 163.978 67.8417C163.819 67.8152 163.65 67.8019 163.472 67.8019C163.048 67.8019 162.669 67.891 162.336 68.069C162.006 68.2432 161.745 68.4856 161.551 68.7963C161.362 69.1031 161.267 69.4535 161.267 69.8474V75.3701H159.926ZM167.221 70.1201V75.3701H165.88V66.6428H167.175V68.0065H167.289C167.493 67.5633 167.804 67.2072 168.221 66.9383C168.637 66.6656 169.175 66.5292 169.834 66.5292C170.425 66.5292 170.942 66.6504 171.385 66.8928C171.828 67.1315 172.173 67.4951 172.419 67.9838C172.666 68.4686 172.789 69.0822 172.789 69.8247V75.3701H171.448V69.9156C171.448 69.23 171.27 68.6959 170.914 68.3133C170.558 67.9269 170.069 67.7338 169.448 67.7338C169.02 67.7338 168.637 67.8266 168.3 68.0122C167.967 68.1978 167.703 68.4686 167.51 68.8247C167.317 69.1807 167.221 69.6125 167.221 70.1201ZM183.534 66.6428V67.7792H179.012V66.6428H183.534ZM180.33 64.5519H181.671V72.8701C181.671 73.2489 181.726 73.533 181.836 73.7224C181.949 73.908 182.093 74.033 182.267 74.0974C182.445 74.158 182.633 74.1883 182.83 74.1883C182.978 74.1883 183.099 74.1807 183.194 74.1656C183.288 74.1466 183.364 74.1315 183.421 74.1201L183.694 75.3247C183.603 75.3588 183.476 75.3928 183.313 75.4269C183.15 75.4648 182.944 75.4838 182.694 75.4838C182.315 75.4838 181.944 75.4023 181.58 75.2394C181.22 75.0766 180.921 74.8285 180.682 74.4951C180.447 74.1618 180.33 73.7413 180.33 73.2338V64.5519ZM189.003 75.5519C188.215 75.5519 187.524 75.3644 186.929 74.9894C186.338 74.6144 185.876 74.0898 185.543 73.4156C185.213 72.7413 185.049 71.9535 185.049 71.0519C185.049 70.1428 185.213 69.3493 185.543 68.6713C185.876 67.9932 186.338 67.4667 186.929 67.0917C187.524 66.7167 188.215 66.5292 189.003 66.5292C189.791 66.5292 190.48 66.7167 191.071 67.0917C191.666 67.4667 192.128 67.9932 192.458 68.6713C192.791 69.3493 192.958 70.1428 192.958 71.0519C192.958 71.9535 192.791 72.7413 192.458 73.4156C192.128 74.0898 191.666 74.6144 191.071 74.9894C190.48 75.3644 189.791 75.5519 189.003 75.5519ZM189.003 74.3474C189.602 74.3474 190.094 74.194 190.48 73.8872C190.867 73.5803 191.153 73.1769 191.338 72.6769C191.524 72.1769 191.617 71.6353 191.617 71.0519C191.617 70.4686 191.524 69.925 191.338 69.4213C191.153 68.9175 190.867 68.5103 190.48 68.1997C190.094 67.8891 189.602 67.7338 189.003 67.7338C188.405 67.7338 187.912 67.8891 187.526 68.1997C187.14 68.5103 186.854 68.9175 186.668 69.4213C186.482 69.925 186.39 70.4686 186.39 71.0519C186.39 71.6353 186.482 72.1769 186.668 72.6769C186.854 73.1769 187.14 73.5803 187.526 73.8872C187.912 74.194 188.405 74.3474 189.003 74.3474ZM198.55 75.5519C197.762 75.5519 197.071 75.3644 196.476 74.9894C195.885 74.6144 195.423 74.0898 195.09 73.4156C194.76 72.7413 194.596 71.9535 194.596 71.0519C194.596 70.1428 194.76 69.3493 195.09 68.6713C195.423 67.9932 195.885 67.4667 196.476 67.0917C197.071 66.7167 197.762 66.5292 198.55 66.5292C199.338 66.5292 200.027 66.7167 200.618 67.0917C201.213 67.4667 201.675 67.9932 202.005 68.6713C202.338 69.3493 202.505 70.1428 202.505 71.0519C202.505 71.9535 202.338 72.7413 202.005 73.4156C201.675 74.0898 201.213 74.6144 200.618 74.9894C200.027 75.3644 199.338 75.5519 198.55 75.5519ZM198.55 74.3474C199.149 74.3474 199.641 74.194 200.027 73.8872C200.414 73.5803 200.7 73.1769 200.885 72.6769C201.071 72.1769 201.164 71.6353 201.164 71.0519C201.164 70.4686 201.071 69.925 200.885 69.4213C200.7 68.9175 200.414 68.5103 200.027 68.1997C199.641 67.8891 199.149 67.7338 198.55 67.7338C197.952 67.7338 197.459 67.8891 197.073 68.1997C196.686 68.5103 196.4 68.9175 196.215 69.4213C196.029 69.925 195.936 70.4686 195.936 71.0519C195.936 71.6353 196.029 72.1769 196.215 72.6769C196.4 73.1769 196.686 73.5803 197.073 73.8872C197.459 74.194 197.952 74.3474 198.55 74.3474ZM205.892 63.7338V75.3701H204.551V63.7338H205.892ZM214.53 68.5974L213.326 68.9383C213.25 68.7375 213.138 68.5425 212.99 68.3531C212.846 68.1599 212.65 68.0008 212.4 67.8758C212.15 67.7508 211.829 67.6883 211.439 67.6883C210.905 67.6883 210.46 67.8114 210.104 68.0576C209.752 68.3 209.576 68.6088 209.576 68.9838C209.576 69.3171 209.697 69.5803 209.939 69.7735C210.182 69.9667 210.56 70.1277 211.076 70.2565L212.371 70.5747C213.151 70.7641 213.733 71.0538 214.115 71.444C214.498 71.8303 214.689 72.3285 214.689 72.9383C214.689 73.4383 214.545 73.8853 214.257 74.2792C213.973 74.6731 213.576 74.9838 213.064 75.211C212.553 75.4383 211.958 75.5519 211.28 75.5519C210.39 75.5519 209.653 75.3588 209.07 74.9724C208.487 74.586 208.117 74.0216 207.962 73.2792L209.235 72.961C209.356 73.4307 209.585 73.783 209.922 74.0178C210.263 74.2527 210.708 74.3701 211.257 74.3701C211.882 74.3701 212.379 74.2375 212.746 73.9724C213.117 73.7035 213.303 73.3815 213.303 73.0065C213.303 72.7035 213.197 72.4497 212.985 72.2451C212.773 72.0368 212.447 71.8815 212.007 71.7792L210.553 71.4383C209.754 71.2489 209.167 70.9553 208.792 70.5576C208.42 70.1561 208.235 69.6542 208.235 69.0519C208.235 68.5595 208.373 68.1239 208.65 67.7451C208.93 67.3663 209.31 67.069 209.792 66.8531C210.276 66.6372 210.826 66.5292 211.439 66.5292C212.303 66.5292 212.981 66.7186 213.473 67.0974C213.97 67.4762 214.322 67.9762 214.53 68.5974ZM223.776 75.5747C223.223 75.5747 222.721 75.4705 222.27 75.2622C221.819 75.05 221.462 74.7451 221.196 74.3474C220.931 73.9459 220.799 73.461 220.799 72.8928C220.799 72.3928 220.897 71.9875 221.094 71.6769C221.291 71.3625 221.554 71.1163 221.884 70.9383C222.213 70.7603 222.577 70.6277 222.975 70.5406C223.376 70.4497 223.78 70.3777 224.185 70.3247C224.715 70.2565 225.145 70.2053 225.475 70.1713C225.808 70.1334 226.051 70.0709 226.202 69.9838C226.357 69.8966 226.435 69.7451 226.435 69.5292V69.4838C226.435 68.9231 226.282 68.4875 225.975 68.1769C225.672 67.8663 225.212 67.711 224.594 67.711C223.954 67.711 223.452 67.8512 223.088 68.1315C222.725 68.4118 222.469 68.711 222.321 69.0292L221.049 68.5747C221.276 68.0444 221.579 67.6315 221.958 67.336C222.34 67.0368 222.757 66.8285 223.208 66.711C223.662 66.5898 224.109 66.5292 224.549 66.5292C224.829 66.5292 225.151 66.5633 225.515 66.6315C225.882 66.6959 226.236 66.8303 226.577 67.0349C226.922 67.2394 227.208 67.5481 227.435 67.961C227.662 68.3739 227.776 68.9269 227.776 69.6201V75.3701H226.435V74.1883H226.367C226.276 74.3777 226.124 74.5803 225.912 74.7963C225.7 75.0122 225.418 75.1959 225.066 75.3474C224.713 75.4989 224.283 75.5747 223.776 75.5747ZM223.98 74.3701C224.511 74.3701 224.958 74.266 225.321 74.0576C225.689 73.8493 225.965 73.5803 226.151 73.2508C226.34 72.9213 226.435 72.5747 226.435 72.211V70.9838C226.378 71.0519 226.253 71.1144 226.06 71.1713C225.871 71.2243 225.651 71.2716 225.401 71.3133C225.155 71.3512 224.914 71.3853 224.679 71.4156C224.448 71.4421 224.261 71.4648 224.117 71.4838C223.768 71.5292 223.443 71.6031 223.14 71.7053C222.84 71.8038 222.598 71.9535 222.412 72.1542C222.23 72.3512 222.14 72.6201 222.14 72.961C222.14 73.4269 222.312 73.7792 222.657 74.0178C223.005 74.2527 223.446 74.3701 223.98 74.3701ZM231.564 70.1201V75.3701H230.223V66.6428H231.519V68.0065H231.632C231.837 67.5633 232.148 67.2072 232.564 66.9383C232.981 66.6656 233.519 66.5292 234.178 66.5292C234.769 66.5292 235.286 66.6504 235.729 66.8928C236.172 67.1315 236.517 67.4951 236.763 67.9838C237.009 68.4686 237.132 69.0822 237.132 69.8247V75.3701H235.792V69.9156C235.792 69.23 235.614 68.6959 235.257 68.3133C234.901 67.9269 234.413 67.7338 233.792 67.7338C233.364 67.7338 232.981 67.8266 232.644 68.0122C232.31 68.1978 232.047 68.4686 231.854 68.8247C231.661 69.1807 231.564 69.6125 231.564 70.1201ZM242.878 75.5519C242.151 75.5519 241.509 75.3682 240.952 75.0008C240.395 74.6296 239.96 74.1069 239.645 73.4326C239.331 72.7546 239.174 71.9535 239.174 71.0292C239.174 70.1125 239.331 69.3171 239.645 68.6428C239.96 67.9686 240.397 67.4478 240.958 67.0803C241.518 66.7129 242.166 66.5292 242.901 66.5292C243.469 66.5292 243.918 66.6239 244.248 66.8133C244.581 66.9989 244.835 67.211 245.009 67.4497C245.187 67.6845 245.325 67.8777 245.424 68.0292H245.537V63.7338H246.878V75.3701H245.583V74.0292H245.424C245.325 74.1883 245.185 74.3891 245.003 74.6315C244.821 74.8701 244.562 75.0841 244.225 75.2735C243.888 75.4591 243.439 75.5519 242.878 75.5519ZM243.06 74.3474C243.598 74.3474 244.052 74.2072 244.424 73.9269C244.795 73.6428 245.077 73.2508 245.27 72.7508C245.463 72.247 245.56 71.6656 245.56 71.0065C245.56 70.355 245.465 69.7849 245.276 69.2963C245.087 68.8038 244.806 68.4213 244.435 68.1485C244.064 67.872 243.605 67.7338 243.06 67.7338C242.492 67.7338 242.018 67.8796 241.64 68.1713C241.265 68.4591 240.982 68.8512 240.793 69.3474C240.607 69.8398 240.515 70.3928 240.515 71.0065C240.515 71.6277 240.609 72.1921 240.799 72.6997C240.992 73.2035 241.276 73.605 241.651 73.9042C242.03 74.1997 242.499 74.3474 243.06 74.3474ZM254.679 75.3701H253.202L257.475 63.7338H258.929L263.202 75.3701H261.725L258.248 65.5747H258.157L254.679 75.3701ZM255.225 70.8247H261.179V72.0747H255.225V70.8247ZM266.424 63.7338V75.3701H265.015V63.7338H266.424ZM274.067 69.7565V71.0065H268.976V69.7565H274.067ZM31.7134 99.5747C31.1604 99.5747 30.6585 99.4705 30.2077 99.2622C29.757 99.05 29.399 98.7451 29.1339 98.3474C28.8687 97.9459 28.7362 97.461 28.7362 96.8928C28.7362 96.3928 28.8346 95.9875 29.0316 95.6769C29.2286 95.3625 29.4918 95.1163 29.8214 94.9383C30.1509 94.7603 30.5146 94.6277 30.9123 94.5406C31.3138 94.4497 31.7172 94.3777 32.1225 94.3247C32.6528 94.2565 33.0827 94.2053 33.4123 94.1713C33.7456 94.1334 33.988 94.0709 34.1396 93.9838C34.2949 93.8966 34.3725 93.7451 34.3725 93.5292V93.4838C34.3725 92.9231 34.2191 92.4875 33.9123 92.1769C33.6093 91.8663 33.149 91.711 32.5316 91.711C31.8915 91.711 31.3896 91.8512 31.0259 92.1315C30.6623 92.4118 30.4066 92.711 30.2589 93.0292L28.9862 92.5747C29.2134 92.0444 29.5165 91.6315 29.8952 91.336C30.2778 91.0368 30.6945 90.8285 31.1452 90.711C31.5998 90.5898 32.0468 90.5292 32.4862 90.5292C32.7665 90.5292 33.0884 90.5633 33.4521 90.6315C33.8195 90.6959 34.1737 90.8303 34.5146 91.0349C34.8593 91.2394 35.1452 91.5481 35.3725 91.961C35.5998 92.3739 35.7134 92.9269 35.7134 93.6201V99.3701H34.3725V98.1883H34.3043C34.2134 98.3777 34.0619 98.5803 33.8498 98.7963C33.6377 99.0122 33.3555 99.1959 33.0032 99.3474C32.6509 99.4989 32.221 99.5747 31.7134 99.5747ZM31.918 98.3701C32.4483 98.3701 32.8952 98.266 33.2589 98.0576C33.6263 97.8493 33.9028 97.5803 34.0884 97.2508C34.2778 96.9213 34.3725 96.5747 34.3725 96.211V94.9838C34.3157 95.0519 34.1907 95.1144 33.9975 95.1713C33.8081 95.2243 33.5884 95.2716 33.3384 95.3133C33.0922 95.3512 32.8517 95.3853 32.6168 95.4156C32.3858 95.4421 32.1983 95.4648 32.0543 95.4838C31.7058 95.5292 31.3801 95.6031 31.0771 95.7053C30.7778 95.8038 30.5354 95.9535 30.3498 96.1542C30.168 96.3512 30.0771 96.6201 30.0771 96.961C30.0771 97.4269 30.2494 97.7792 30.5941 98.0178C30.9426 98.2527 31.3839 98.3701 31.918 98.3701ZM44.3427 92.5974L43.1381 92.9383C43.0624 92.7375 42.9506 92.5425 42.8029 92.3531C42.659 92.1599 42.462 92.0008 42.212 91.8758C41.962 91.7508 41.6419 91.6883 41.2518 91.6883C40.7177 91.6883 40.2726 91.8114 39.9165 92.0576C39.5643 92.3 39.3881 92.6088 39.3881 92.9838C39.3881 93.3171 39.5094 93.5803 39.7518 93.7735C39.9942 93.9667 40.373 94.1277 40.8881 94.2565L42.1836 94.5747C42.9639 94.7641 43.5453 95.0538 43.9279 95.444C44.3105 95.8303 44.5018 96.3285 44.5018 96.9383C44.5018 97.4383 44.3578 97.8853 44.07 98.2792C43.7859 98.6731 43.3881 98.9838 42.8768 99.211C42.3654 99.4383 41.7707 99.5519 41.0927 99.5519C40.2025 99.5519 39.4658 99.3588 38.8825 98.9724C38.2991 98.586 37.9298 98.0216 37.7745 97.2792L39.0472 96.961C39.1684 97.4307 39.3976 97.783 39.7347 98.0178C40.0756 98.2527 40.5207 98.3701 41.07 98.3701C41.695 98.3701 42.1912 98.2375 42.5586 97.9724C42.9298 97.7035 43.1154 97.3815 43.1154 97.0065C43.1154 96.7035 43.0094 96.4497 42.7972 96.2451C42.5851 96.0368 42.2594 95.8815 41.82 95.7792L40.3654 95.4383C39.5662 95.2489 38.979 94.9553 38.604 94.5576C38.2328 94.1561 38.0472 93.6542 38.0472 93.0519C38.0472 92.5595 38.1855 92.1239 38.462 91.7451C38.7423 91.3663 39.123 91.069 39.604 90.8531C40.0889 90.6372 40.6381 90.5292 41.2518 90.5292C42.1154 90.5292 42.7934 90.7186 43.2859 91.0974C43.7821 91.4762 44.1344 91.9762 44.3427 92.5974ZM52.7021 92.5974L51.4975 92.9383C51.4218 92.7375 51.31 92.5425 51.1623 92.3531C51.0183 92.1599 50.8214 92.0008 50.5714 91.8758C50.3214 91.7508 50.0013 91.6883 49.6112 91.6883C49.0771 91.6883 48.632 91.8114 48.2759 92.0576C47.9237 92.3 47.7475 92.6088 47.7475 92.9838C47.7475 93.3171 47.8687 93.5803 48.1112 93.7735C48.3536 93.9667 48.7324 94.1277 49.2475 94.2565L50.543 94.5747C51.3233 94.7641 51.9047 95.0538 52.2873 95.444C52.6699 95.8303 52.8612 96.3285 52.8612 96.9383C52.8612 97.4383 52.7172 97.8853 52.4293 98.2792C52.1452 98.6731 51.7475 98.9838 51.2362 99.211C50.7248 99.4383 50.1301 99.5519 49.4521 99.5519C48.5619 99.5519 47.8252 99.3588 47.2418 98.9724C46.6585 98.586 46.2892 98.0216 46.1339 97.2792L47.4066 96.961C47.5278 97.4307 47.757 97.783 48.0941 98.0178C48.435 98.2527 48.8801 98.3701 49.4293 98.3701C50.0543 98.3701 50.5505 98.2375 50.918 97.9724C51.2892 97.7035 51.4748 97.3815 51.4748 97.0065C51.4748 96.7035 51.3687 96.4497 51.1566 96.2451C50.9445 96.0368 50.6187 95.8815 50.1793 95.7792L48.7248 95.4383C47.9255 95.2489 47.3384 94.9553 46.9634 94.5576C46.5922 94.1561 46.4066 93.6542 46.4066 93.0519C46.4066 92.5595 46.5449 92.1239 46.8214 91.7451C47.1017 91.3663 47.4824 91.069 47.9634 90.8531C48.4483 90.6372 48.9975 90.5292 49.6112 90.5292C50.4748 90.5292 51.1528 90.7186 51.6452 91.0974C52.1415 91.4762 52.4937 91.9762 52.7021 92.5974ZM54.8796 99.3701V90.6428H56.2205V99.3701H54.8796ZM55.5614 89.1883C55.3001 89.1883 55.0747 89.0993 54.8853 88.9213C54.6997 88.7432 54.6069 88.5292 54.6069 88.2792C54.6069 88.0292 54.6997 87.8152 54.8853 87.6372C55.0747 87.4591 55.3001 87.3701 55.5614 87.3701C55.8228 87.3701 56.0463 87.4591 56.2319 87.6372C56.4213 87.8152 56.516 88.0292 56.516 88.2792C56.516 88.5292 56.4213 88.7432 56.2319 88.9213C56.0463 89.0993 55.8228 89.1883 55.5614 89.1883ZM64.8583 92.5974L63.6538 92.9383C63.578 92.7375 63.4663 92.5425 63.3185 92.3531C63.1746 92.1599 62.9776 92.0008 62.7276 91.8758C62.4776 91.7508 62.1576 91.6883 61.7674 91.6883C61.2333 91.6883 60.7882 91.8114 60.4322 92.0576C60.0799 92.3 59.9038 92.6088 59.9038 92.9838C59.9038 93.3171 60.025 93.5803 60.2674 93.7735C60.5098 93.9667 60.8886 94.1277 61.4038 94.2565L62.6992 94.5747C63.4795 94.7641 64.061 95.0538 64.4435 95.444C64.8261 95.8303 65.0174 96.3285 65.0174 96.9383C65.0174 97.4383 64.8735 97.8853 64.5856 98.2792C64.3015 98.6731 63.9038 98.9838 63.3924 99.211C62.881 99.4383 62.2863 99.5519 61.6083 99.5519C60.7182 99.5519 59.9814 99.3588 59.3981 98.9724C58.8147 98.586 58.4454 98.0216 58.2901 97.2792L59.5629 96.961C59.6841 97.4307 59.9132 97.783 60.2504 98.0178C60.5913 98.2527 61.0363 98.3701 61.5856 98.3701C62.2106 98.3701 62.7068 98.2375 63.0742 97.9724C63.4454 97.7035 63.631 97.3815 63.631 97.0065C63.631 96.7035 63.525 96.4497 63.3129 96.2451C63.1007 96.0368 62.775 95.8815 62.3356 95.7792L60.881 95.4383C60.0818 95.2489 59.4947 94.9553 59.1197 94.5576C58.7485 94.1561 58.5629 93.6542 58.5629 93.0519C58.5629 92.5595 58.7011 92.1239 58.9776 91.7451C59.2579 91.3663 59.6386 91.069 60.1197 90.8531C60.6045 90.6372 61.1538 90.5292 61.7674 90.5292C62.631 90.5292 63.3091 90.7186 63.8015 91.0974C64.2977 91.4762 64.65 91.9762 64.8583 92.5974ZM70.8313 90.6428V91.7792H66.3086V90.6428H70.8313ZM67.6268 88.5519H68.9677V96.8701C68.9677 97.2489 69.0226 97.533 69.1325 97.7224C69.2461 97.908 69.39 98.033 69.5643 98.0974C69.7423 98.158 69.9298 98.1883 70.1268 98.1883C70.2745 98.1883 70.3957 98.1807 70.4904 98.1656C70.5851 98.1466 70.6609 98.1315 70.7177 98.1201L70.9904 99.3247C70.8995 99.3588 70.7726 99.3928 70.6097 99.4269C70.4469 99.4648 70.2404 99.4838 69.9904 99.4838C69.6116 99.4838 69.2404 99.4023 68.8768 99.2394C68.5169 99.0766 68.2177 98.8285 67.979 98.4951C67.7442 98.1618 67.6268 97.7413 67.6268 97.2338V88.5519ZM76.4137 99.5519C75.5728 99.5519 74.8474 99.3663 74.2376 98.9951C73.6315 98.6201 73.1637 98.0974 72.8342 97.4269C72.5084 96.7527 72.3455 95.9686 72.3455 95.0747C72.3455 94.1807 72.5084 93.3928 72.8342 92.711C73.1637 92.0254 73.622 91.4913 74.2092 91.1088C74.8001 90.7224 75.4895 90.5292 76.2773 90.5292C76.7319 90.5292 77.1808 90.605 77.6239 90.7565C78.0671 90.908 78.4705 91.1542 78.8342 91.4951C79.1978 91.8322 79.4876 92.2792 79.7035 92.836C79.9194 93.3928 80.0273 94.0785 80.0273 94.8928V95.461H73.3001V94.3019H78.6637C78.6637 93.8095 78.5652 93.3701 78.3683 92.9838C78.1751 92.5974 77.8986 92.2925 77.5387 92.069C77.1826 91.8455 76.7622 91.7338 76.2773 91.7338C75.7433 91.7338 75.2811 91.8663 74.891 92.1315C74.5046 92.3928 74.2073 92.7338 73.9989 93.1542C73.7906 93.5747 73.6864 94.0254 73.6864 94.5065V95.2792C73.6864 95.9383 73.8001 96.497 74.0273 96.9553C74.2584 97.4099 74.5785 97.7565 74.9876 97.9951C75.3967 98.23 75.872 98.3474 76.4137 98.3474C76.766 98.3474 77.0842 98.2981 77.3683 98.1997C77.6561 98.0974 77.9042 97.9459 78.1126 97.7451C78.3209 97.5406 78.4819 97.2868 78.5955 96.9838L79.891 97.3474C79.7546 97.7868 79.5254 98.1731 79.2035 98.5065C78.8815 98.836 78.4838 99.0936 78.0103 99.2792C77.5368 99.461 77.0046 99.5519 76.4137 99.5519ZM85.3626 99.5519C84.6353 99.5519 83.9933 99.3682 83.4364 99.0008C82.8796 98.6296 82.444 98.1069 82.1296 97.4326C81.8152 96.7546 81.658 95.9535 81.658 95.0292C81.658 94.1125 81.8152 93.3171 82.1296 92.6428C82.444 91.9686 82.8815 91.4478 83.4421 91.0803C84.0027 90.7129 84.6504 90.5292 85.3853 90.5292C85.9535 90.5292 86.4023 90.6239 86.7319 90.8133C87.0652 90.9989 87.319 91.211 87.4933 91.4497C87.6713 91.6845 87.8095 91.8777 87.908 92.0292H88.0217V87.7338H89.3626V99.3701H88.0671V98.0292H87.908C87.8095 98.1883 87.6694 98.3891 87.4876 98.6315C87.3058 98.8701 87.0463 99.0841 86.7092 99.2735C86.372 99.4591 85.9232 99.5519 85.3626 99.5519ZM85.5444 98.3474C86.0823 98.3474 86.5368 98.2072 86.908 97.9269C87.2792 97.6428 87.5614 97.2508 87.7546 96.7508C87.9478 96.247 88.0444 95.6656 88.0444 95.0065C88.0444 94.355 87.9497 93.7849 87.7603 93.2963C87.5709 92.8038 87.2906 92.4213 86.9194 92.1485C86.5482 91.872 86.0898 91.7338 85.5444 91.7338C84.9762 91.7338 84.5027 91.8796 84.1239 92.1713C83.7489 92.4591 83.4667 92.8512 83.2773 93.3474C83.0917 93.8398 82.9989 94.3928 82.9989 95.0065C82.9989 95.6277 83.0936 96.1921 83.283 96.6997C83.4762 97.2035 83.7603 97.605 84.1353 97.9042C84.5141 98.1997 84.9838 98.3474 85.5444 98.3474ZM98.4819 99.3701L95.8228 90.6428H97.2319L99.1183 97.3247H99.2092L101.073 90.6428H102.505L104.346 97.3019H104.436L106.323 90.6428H107.732L105.073 99.3701H103.755L101.846 92.6656H101.709L99.8001 99.3701H98.4819ZM112.753 99.5519C111.965 99.5519 111.274 99.3644 110.679 98.9894C110.088 98.6144 109.626 98.0898 109.293 97.4156C108.963 96.7413 108.799 95.9535 108.799 95.0519C108.799 94.1428 108.963 93.3493 109.293 92.6713C109.626 91.9932 110.088 91.4667 110.679 91.0917C111.274 90.7167 111.965 90.5292 112.753 90.5292C113.541 90.5292 114.23 90.7167 114.821 91.0917C115.416 91.4667 115.878 91.9932 116.208 92.6713C116.541 93.3493 116.708 94.1428 116.708 95.0519C116.708 95.9535 116.541 96.7413 116.208 97.4156C115.878 98.0898 115.416 98.6144 114.821 98.9894C114.23 99.3644 113.541 99.5519 112.753 99.5519ZM112.753 98.3474C113.352 98.3474 113.844 98.194 114.23 97.8872C114.617 97.5803 114.903 97.1769 115.088 96.6769C115.274 96.1769 115.367 95.6353 115.367 95.0519C115.367 94.4686 115.274 93.925 115.088 93.4213C114.903 92.9175 114.617 92.5103 114.23 92.1997C113.844 91.8891 113.352 91.7338 112.753 91.7338C112.155 91.7338 111.662 91.8891 111.276 92.1997C110.89 92.5103 110.604 92.9175 110.418 93.4213C110.232 93.925 110.14 94.4686 110.14 95.0519C110.14 95.6353 110.232 96.1769 110.418 96.6769C110.604 97.1769 110.89 97.5803 111.276 97.8872C111.662 98.194 112.155 98.3474 112.753 98.3474ZM118.755 99.3701V90.6428H120.05V91.961H120.141C120.3 91.5292 120.588 91.1788 121.005 90.9099C121.421 90.6409 121.891 90.5065 122.414 90.5065C122.512 90.5065 122.635 90.5084 122.783 90.5122C122.931 90.516 123.042 90.5216 123.118 90.5292V91.8928C123.073 91.8815 122.969 91.8644 122.806 91.8417C122.647 91.8152 122.478 91.8019 122.3 91.8019C121.876 91.8019 121.497 91.891 121.164 92.069C120.834 92.2432 120.573 92.4856 120.38 92.7963C120.19 93.1031 120.096 93.4535 120.096 93.8474V99.3701H118.755ZM125.958 96.1883L125.935 94.5292H126.208L130.026 90.6428H131.685L127.617 94.7565H127.503L125.958 96.1883ZM124.708 99.3701V87.7338H126.049V99.3701H124.708ZM130.253 99.3701L126.844 95.0519L127.799 94.1201L131.958 99.3701H130.253ZM137.297 90.6428V91.7792H132.593V90.6428H137.297ZM134.002 99.3701V89.4383C134.002 88.9383 134.119 88.5216 134.354 88.1883C134.589 87.855 134.894 87.605 135.269 87.4383C135.644 87.2716 136.04 87.1883 136.456 87.1883C136.786 87.1883 137.055 87.2148 137.263 87.2678C137.471 87.3209 137.627 87.3701 137.729 87.4156L137.343 88.5747C137.275 88.5519 137.18 88.5235 137.059 88.4894C136.941 88.4553 136.786 88.4383 136.593 88.4383C136.15 88.4383 135.829 88.55 135.632 88.7735C135.439 88.997 135.343 89.3247 135.343 89.7565V99.3701H134.002ZM140.517 87.7338V99.3701H139.176V87.7338H140.517ZM146.519 99.5519C145.731 99.5519 145.04 99.3644 144.445 98.9894C143.854 98.6144 143.392 98.0898 143.059 97.4156C142.729 96.7413 142.564 95.9535 142.564 95.0519C142.564 94.1428 142.729 93.3493 143.059 92.6713C143.392 91.9932 143.854 91.4667 144.445 91.0917C145.04 90.7167 145.731 90.5292 146.519 90.5292C147.307 90.5292 147.996 90.7167 148.587 91.0917C149.182 91.4667 149.644 91.9932 149.973 92.6713C150.307 93.3493 150.473 94.1428 150.473 95.0519C150.473 95.9535 150.307 96.7413 149.973 97.4156C149.644 98.0898 149.182 98.6144 148.587 98.9894C147.996 99.3644 147.307 99.5519 146.519 99.5519ZM146.519 98.3474C147.117 98.3474 147.61 98.194 147.996 97.8872C148.382 97.5803 148.668 97.1769 148.854 96.6769C149.04 96.1769 149.132 95.6353 149.132 95.0519C149.132 94.4686 149.04 93.925 148.854 93.4213C148.668 92.9175 148.382 92.5103 147.996 92.1997C147.61 91.8891 147.117 91.7338 146.519 91.7338C145.92 91.7338 145.428 91.8891 145.042 92.1997C144.655 92.5103 144.369 92.9175 144.184 93.4213C143.998 93.925 143.905 94.4686 143.905 95.0519C143.905 95.6353 143.998 96.1769 144.184 96.6769C144.369 97.1769 144.655 97.5803 145.042 97.8872C145.428 98.194 145.92 98.3474 146.519 98.3474ZM154.201 99.3701L151.542 90.6428H152.951L154.837 97.3247H154.928L156.792 90.6428H158.223L160.064 97.3019H160.155L162.042 90.6428H163.451L160.792 99.3701H159.473L157.564 92.6656H157.428L155.519 99.3701H154.201ZM171.405 92.5974L170.201 92.9383C170.125 92.7375 170.013 92.5425 169.865 92.3531C169.721 92.1599 169.525 92.0008 169.275 91.8758C169.025 91.7508 168.704 91.6883 168.314 91.6883C167.78 91.6883 167.335 91.8114 166.979 92.0576C166.627 92.3 166.451 92.6088 166.451 92.9838C166.451 93.3171 166.572 93.5803 166.814 93.7735C167.057 93.9667 167.435 94.1277 167.951 94.2565L169.246 94.5747C170.026 94.7641 170.608 95.0538 170.99 95.444C171.373 95.8303 171.564 96.3285 171.564 96.9383C171.564 97.4383 171.42 97.8853 171.132 98.2792C170.848 98.6731 170.451 98.9838 169.939 99.211C169.428 99.4383 168.833 99.5519 168.155 99.5519C167.265 99.5519 166.528 99.3588 165.945 98.9724C165.362 98.586 164.992 98.0216 164.837 97.2792L166.11 96.961C166.231 97.4307 166.46 97.783 166.797 98.0178C167.138 98.2527 167.583 98.3701 168.132 98.3701C168.757 98.3701 169.254 98.2375 169.621 97.9724C169.992 97.7035 170.178 97.3815 170.178 97.0065C170.178 96.7035 170.072 96.4497 169.86 96.2451C169.648 96.0368 169.322 95.8815 168.882 95.7792L167.428 95.4383C166.629 95.2489 166.042 94.9553 165.667 94.5576C165.295 94.1561 165.11 93.6542 165.11 93.0519C165.11 92.5595 165.248 92.1239 165.525 91.7451C165.805 91.3663 166.185 91.069 166.667 90.8531C167.151 90.6372 167.701 90.5292 168.314 90.5292C169.178 90.5292 169.856 90.7186 170.348 91.0974C170.845 91.4762 171.197 91.9762 171.405 92.5974ZM181.878 90.6428V91.7792H177.355V90.6428H181.878ZM178.674 88.5519H180.015V96.8701C180.015 97.2489 180.069 97.533 180.179 97.7224C180.293 97.908 180.437 98.033 180.611 98.0974C180.789 98.158 180.977 98.1883 181.174 98.1883C181.321 98.1883 181.443 98.1807 181.537 98.1656C181.632 98.1466 181.708 98.1315 181.765 98.1201L182.037 99.3247C181.946 99.3588 181.819 99.3928 181.657 99.4269C181.494 99.4648 181.287 99.4838 181.037 99.4838C180.658 99.4838 180.287 99.4023 179.924 99.2394C179.564 99.0766 179.265 98.8285 179.026 98.4951C178.791 98.1618 178.674 97.7413 178.674 97.2338V88.5519ZM187.347 99.5519C186.559 99.5519 185.868 99.3644 185.273 98.9894C184.682 98.6144 184.22 98.0898 183.887 97.4156C183.557 96.7413 183.392 95.9535 183.392 95.0519C183.392 94.1428 183.557 93.3493 183.887 92.6713C184.22 91.9932 184.682 91.4667 185.273 91.0917C185.868 90.7167 186.559 90.5292 187.347 90.5292C188.135 90.5292 188.824 90.7167 189.415 91.0917C190.01 91.4667 190.472 91.9932 190.801 92.6713C191.135 93.3493 191.301 94.1428 191.301 95.0519C191.301 95.9535 191.135 96.7413 190.801 97.4156C190.472 98.0898 190.01 98.6144 189.415 98.9894C188.824 99.3644 188.135 99.5519 187.347 99.5519ZM187.347 98.3474C187.945 98.3474 188.438 98.194 188.824 97.8872C189.211 97.5803 189.497 97.1769 189.682 96.6769C189.868 96.1769 189.961 95.6353 189.961 95.0519C189.961 94.4686 189.868 93.925 189.682 93.4213C189.497 92.9175 189.211 92.5103 188.824 92.1997C188.438 91.8891 187.945 91.7338 187.347 91.7338C186.748 91.7338 186.256 91.8891 185.87 92.1997C185.483 92.5103 185.197 92.9175 185.012 93.4213C184.826 93.925 184.733 94.4686 184.733 95.0519C184.733 95.6353 184.826 96.1769 185.012 96.6769C185.197 97.1769 185.483 97.5803 185.87 97.8872C186.256 98.194 186.748 98.3474 187.347 98.3474ZM201.144 99.5519C200.417 99.5519 199.775 99.3682 199.218 99.0008C198.661 98.6296 198.225 98.1069 197.911 97.4326C197.596 96.7546 197.439 95.9535 197.439 95.0292C197.439 94.1125 197.596 93.3171 197.911 92.6428C198.225 91.9686 198.663 91.4478 199.223 91.0803C199.784 90.7129 200.432 90.5292 201.167 90.5292C201.735 90.5292 202.184 90.6239 202.513 90.8133C202.846 90.9989 203.1 91.211 203.275 91.4497C203.453 91.6845 203.591 91.8777 203.689 92.0292H203.803V87.7338H205.144V99.3701H203.848V98.0292H203.689C203.591 98.1883 203.451 98.3891 203.269 98.6315C203.087 98.8701 202.828 99.0841 202.49 99.2735C202.153 99.4591 201.704 99.5519 201.144 99.5519ZM201.326 98.3474C201.864 98.3474 202.318 98.2072 202.689 97.9269C203.06 97.6428 203.343 97.2508 203.536 96.7508C203.729 96.247 203.826 95.6656 203.826 95.0065C203.826 94.355 203.731 93.7849 203.542 93.2963C203.352 92.8038 203.072 92.4213 202.701 92.1485C202.329 91.872 201.871 91.7338 201.326 91.7338C200.757 91.7338 200.284 91.8796 199.905 92.1713C199.53 92.4591 199.248 92.8512 199.059 93.3474C198.873 93.8398 198.78 94.3928 198.78 95.0065C198.78 95.6277 198.875 96.1921 199.064 96.6997C199.257 97.2035 199.542 97.605 199.917 97.9042C200.295 98.1997 200.765 98.3474 201.326 98.3474ZM211.445 99.5519C210.604 99.5519 209.879 99.3663 209.269 98.9951C208.663 98.6201 208.195 98.0974 207.865 97.4269C207.54 96.7527 207.377 95.9686 207.377 95.0747C207.377 94.1807 207.54 93.3928 207.865 92.711C208.195 92.0254 208.653 91.4913 209.24 91.1088C209.831 90.7224 210.521 90.5292 211.309 90.5292C211.763 90.5292 212.212 90.605 212.655 90.7565C213.098 90.908 213.502 91.1542 213.865 91.4951C214.229 91.8322 214.519 92.2792 214.735 92.836C214.951 93.3928 215.059 94.0785 215.059 94.8928V95.461H208.331V94.3019H213.695C213.695 93.8095 213.596 93.3701 213.4 92.9838C213.206 92.5974 212.93 92.2925 212.57 92.069C212.214 91.8455 211.793 91.7338 211.309 91.7338C210.775 91.7338 210.312 91.8663 209.922 92.1315C209.536 92.3928 209.239 92.7338 209.03 93.1542C208.822 93.5747 208.718 94.0254 208.718 94.5065V95.2792C208.718 95.9383 208.831 96.497 209.059 96.9553C209.29 97.4099 209.61 97.7565 210.019 97.9951C210.428 98.23 210.903 98.3474 211.445 98.3474C211.797 98.3474 212.115 98.2981 212.4 98.1997C212.687 98.0974 212.935 97.9459 213.144 97.7451C213.352 97.5406 213.513 97.2868 213.627 96.9838L214.922 97.3474C214.786 97.7868 214.557 98.1731 214.235 98.5065C213.913 98.836 213.515 99.0936 213.042 99.2792C212.568 99.461 212.036 99.5519 211.445 99.5519ZM218.439 87.7338V99.3701H217.098V87.7338H218.439ZM220.895 99.3701V90.6428H222.236V99.3701H220.895ZM221.577 89.1883C221.316 89.1883 221.09 89.0993 220.901 88.9213C220.715 88.7432 220.623 88.5292 220.623 88.2792C220.623 88.0292 220.715 87.8152 220.901 87.6372C221.09 87.4591 221.316 87.3701 221.577 87.3701C221.838 87.3701 222.062 87.4591 222.248 87.6372C222.437 87.8152 222.532 88.0292 222.532 88.2792C222.532 88.5292 222.437 88.7432 222.248 88.9213C222.062 89.0993 221.838 89.1883 221.577 89.1883ZM231.828 90.6428L228.601 99.3701H227.238L224.01 90.6428H225.465L227.874 97.5974H227.965L230.374 90.6428H231.828ZM236.945 99.5519C236.104 99.5519 235.379 99.3663 234.769 98.9951C234.163 98.6201 233.695 98.0974 233.365 97.4269C233.04 96.7527 232.877 95.9686 232.877 95.0747C232.877 94.1807 233.04 93.3928 233.365 92.711C233.695 92.0254 234.153 91.4913 234.74 91.1088C235.331 90.7224 236.021 90.5292 236.809 90.5292C237.263 90.5292 237.712 90.605 238.155 90.7565C238.598 90.908 239.002 91.1542 239.365 91.4951C239.729 91.8322 240.019 92.2792 240.235 92.836C240.451 93.3928 240.559 94.0785 240.559 94.8928V95.461H233.831V94.3019H239.195C239.195 93.8095 239.096 93.3701 238.9 92.9838C238.706 92.5974 238.43 92.2925 238.07 92.069C237.714 91.8455 237.293 91.7338 236.809 91.7338C236.275 91.7338 235.812 91.8663 235.422 92.1315C235.036 92.3928 234.739 92.7338 234.53 93.1542C234.322 93.5747 234.218 94.0254 234.218 94.5065V95.2792C234.218 95.9383 234.331 96.497 234.559 96.9553C234.79 97.4099 235.11 97.7565 235.519 97.9951C235.928 98.23 236.403 98.3474 236.945 98.3474C237.297 98.3474 237.615 98.2981 237.9 98.1997C238.187 98.0974 238.435 97.9459 238.644 97.7451C238.852 97.5406 239.013 97.2868 239.127 96.9838L240.422 97.3474C240.286 97.7868 240.057 98.1731 239.735 98.5065C239.413 98.836 239.015 99.0936 238.542 99.2792C238.068 99.461 237.536 99.5519 236.945 99.5519ZM242.598 99.3701V90.6428H243.894V91.961H243.985C244.144 91.5292 244.432 91.1788 244.848 90.9099C245.265 90.6409 245.735 90.5065 246.257 90.5065C246.356 90.5065 246.479 90.5084 246.627 90.5122C246.775 90.516 246.886 90.5216 246.962 90.5292V91.8928C246.917 91.8815 246.812 91.8644 246.65 91.8417C246.49 91.8152 246.322 91.8019 246.144 91.8019C245.72 91.8019 245.341 91.891 245.007 92.069C244.678 92.2432 244.417 92.4856 244.223 92.7963C244.034 93.1031 243.939 93.4535 243.939 93.8474V99.3701H242.598ZM29.1452 126.643V114.643H30.4407V116.029H30.5998C30.6983 115.878 30.8346 115.685 31.0089 115.45C31.1869 115.211 31.4407 114.999 31.7702 114.813C32.1036 114.624 32.5543 114.529 33.1225 114.529C33.8574 114.529 34.5051 114.713 35.0657 115.08C35.6263 115.448 36.0638 115.969 36.3782 116.643C36.6926 117.317 36.8498 118.113 36.8498 119.029C36.8498 119.953 36.6926 120.755 36.3782 121.433C36.0638 122.107 35.6282 122.63 35.0714 123.001C34.5146 123.368 33.8725 123.552 33.1452 123.552C32.5846 123.552 32.1358 123.459 31.7987 123.274C31.4615 123.084 31.2021 122.87 31.0202 122.631C30.8384 122.389 30.6983 122.188 30.5998 122.029H30.4862V126.643H29.1452ZM30.4634 119.006C30.4634 119.666 30.56 120.247 30.7532 120.751C30.9464 121.251 31.2286 121.643 31.5998 121.927C31.971 122.207 32.4255 122.347 32.9634 122.347C33.524 122.347 33.9918 122.2 34.3668 121.904C34.7456 121.605 35.0297 121.203 35.2191 120.7C35.4123 120.192 35.5089 119.628 35.5089 119.006C35.5089 118.393 35.4142 117.84 35.2248 117.347C35.0392 116.851 34.757 116.459 34.3782 116.171C34.0032 115.88 33.5316 115.734 32.9634 115.734C32.418 115.734 31.9596 115.872 31.5884 116.149C31.2172 116.421 30.9369 116.804 30.7475 117.296C30.5581 117.785 30.4634 118.355 30.4634 119.006ZM38.8952 123.37V114.643H40.1907V115.961H40.2816C40.4407 115.529 40.7286 115.179 41.1452 114.91C41.5619 114.641 42.0316 114.506 42.5543 114.506C42.6528 114.506 42.7759 114.508 42.9237 114.512C43.0714 114.516 43.1831 114.522 43.2589 114.529V115.893C43.2134 115.881 43.1093 115.864 42.9464 115.842C42.7873 115.815 42.6187 115.802 42.4407 115.802C42.0165 115.802 41.6377 115.891 41.3043 116.069C40.9748 116.243 40.7134 116.486 40.5202 116.796C40.3308 117.103 40.2362 117.453 40.2362 117.847V123.37H38.8952ZM48.2418 123.552C47.4009 123.552 46.6755 123.366 46.0657 122.995C45.4596 122.62 44.9918 122.097 44.6623 121.427C44.3365 120.753 44.1737 119.969 44.1737 119.075C44.1737 118.181 44.3365 117.393 44.6623 116.711C44.9918 116.025 45.4502 115.491 46.0373 115.109C46.6282 114.722 47.3176 114.529 48.1055 114.529C48.56 114.529 49.0089 114.605 49.4521 114.756C49.8952 114.908 50.2987 115.154 50.6623 115.495C51.0259 115.832 51.3157 116.279 51.5316 116.836C51.7475 117.393 51.8555 118.078 51.8555 118.893V119.461H45.1282V118.302H50.4918C50.4918 117.81 50.3933 117.37 50.1964 116.984C50.0032 116.597 49.7267 116.292 49.3668 116.069C49.0108 115.845 48.5903 115.734 48.1055 115.734C47.5714 115.734 47.1093 115.866 46.7191 116.131C46.3327 116.393 46.0354 116.734 45.8271 117.154C45.6187 117.575 45.5146 118.025 45.5146 118.506V119.279C45.5146 119.938 45.6282 120.497 45.8555 120.955C46.0865 121.41 46.4066 121.756 46.8157 121.995C47.2248 122.23 47.7002 122.347 48.2418 122.347C48.5941 122.347 48.9123 122.298 49.1964 122.2C49.4843 122.097 49.7324 121.946 49.9407 121.745C50.149 121.541 50.31 121.287 50.4237 120.984L51.7191 121.347C51.5827 121.787 51.3536 122.173 51.0316 122.506C50.7096 122.836 50.3119 123.094 49.8384 123.279C49.3649 123.461 48.8327 123.552 48.2418 123.552ZM57.4407 123.552C56.6225 123.552 55.918 123.359 55.3271 122.972C54.7362 122.586 54.2816 122.054 53.9634 121.376C53.6452 120.698 53.4862 119.923 53.4862 119.052C53.4862 118.166 53.649 117.383 53.9748 116.705C54.3043 116.024 54.7627 115.491 55.3498 115.109C55.9407 114.722 56.6301 114.529 57.418 114.529C58.0316 114.529 58.5846 114.643 59.0771 114.87C59.5695 115.097 59.9729 115.416 60.2873 115.825C60.6017 116.234 60.7968 116.711 60.8725 117.256H59.5316C59.4293 116.859 59.2021 116.506 58.8498 116.2C58.5013 115.889 58.0316 115.734 57.4407 115.734C56.918 115.734 56.4596 115.87 56.0657 116.143C55.6755 116.412 55.3706 116.792 55.1509 117.285C54.935 117.774 54.8271 118.347 54.8271 119.006C54.8271 119.681 54.9331 120.268 55.1452 120.768C55.3612 121.268 55.6642 121.656 56.0543 121.933C56.4483 122.209 56.9104 122.347 57.4407 122.347C57.7892 122.347 58.1055 122.287 58.3896 122.166C58.6737 122.044 58.9142 121.87 59.1112 121.643C59.3081 121.416 59.4483 121.143 59.5316 120.825H60.8725C60.7968 121.34 60.6093 121.804 60.31 122.217C60.0146 122.626 59.6225 122.952 59.1339 123.194C58.649 123.433 58.0846 123.552 57.4407 123.552ZM62.8327 123.37V114.643H64.1737V123.37H62.8327ZM63.5146 113.188C63.2532 113.188 63.0278 113.099 62.8384 112.921C62.6528 112.743 62.56 112.529 62.56 112.279C62.56 112.029 62.6528 111.815 62.8384 111.637C63.0278 111.459 63.2532 111.37 63.5146 111.37C63.7759 111.37 63.9994 111.459 64.185 111.637C64.3744 111.815 64.4691 112.029 64.4691 112.279C64.4691 112.529 64.3744 112.743 64.185 112.921C63.9994 113.099 63.7759 113.188 63.5146 113.188ZM72.8114 116.597L71.6069 116.938C71.5311 116.738 71.4194 116.542 71.2717 116.353C71.1277 116.16 70.9308 116.001 70.6808 115.876C70.4308 115.751 70.1107 115.688 69.7205 115.688C69.1864 115.688 68.7414 115.811 68.3853 116.058C68.033 116.3 67.8569 116.609 67.8569 116.984C67.8569 117.317 67.9781 117.58 68.2205 117.774C68.4629 117.967 68.8417 118.128 69.3569 118.256L70.6523 118.575C71.4326 118.764 72.0141 119.054 72.3967 119.444C72.7792 119.83 72.9705 120.328 72.9705 120.938C72.9705 121.438 72.8266 121.885 72.5387 122.279C72.2546 122.673 71.8569 122.984 71.3455 123.211C70.8342 123.438 70.2395 123.552 69.5614 123.552C68.6713 123.552 67.9345 123.359 67.3512 122.972C66.7679 122.586 66.3986 122.022 66.2433 121.279L67.516 120.961C67.6372 121.431 67.8664 121.783 68.2035 122.018C68.5444 122.253 68.9895 122.37 69.5387 122.37C70.1637 122.37 70.6599 122.238 71.0273 121.972C71.3986 121.703 71.5842 121.381 71.5842 121.006C71.5842 120.703 71.4781 120.45 71.266 120.245C71.0539 120.037 70.7281 119.881 70.2887 119.779L68.8342 119.438C68.0349 119.249 67.4478 118.955 67.0728 118.558C66.7016 118.156 66.516 117.654 66.516 117.052C66.516 116.56 66.6542 116.124 66.9308 115.745C67.2111 115.366 67.5917 115.069 68.0728 114.853C68.5576 114.637 69.1069 114.529 69.7205 114.529C70.5842 114.529 71.2622 114.719 71.7546 115.097C72.2508 115.476 72.6031 115.976 72.8114 116.597ZM78.6481 123.552C77.8072 123.552 77.0818 123.366 76.4719 122.995C75.8659 122.62 75.3981 122.097 75.0685 121.427C74.7428 120.753 74.5799 119.969 74.5799 119.075C74.5799 118.181 74.7428 117.393 75.0685 116.711C75.3981 116.025 75.8564 115.491 76.4435 115.109C77.0344 114.722 77.7238 114.529 78.5117 114.529C78.9663 114.529 79.4151 114.605 79.8583 114.756C80.3015 114.908 80.7049 115.154 81.0685 115.495C81.4322 115.832 81.7219 116.279 81.9379 116.836C82.1538 117.393 82.2617 118.078 82.2617 118.893V119.461H75.5344V118.302H80.8981C80.8981 117.81 80.7996 117.37 80.6026 116.984C80.4094 116.597 80.1329 116.292 79.7731 116.069C79.417 115.845 78.9966 115.734 78.5117 115.734C77.9776 115.734 77.5155 115.866 77.1254 116.131C76.739 116.393 76.4416 116.734 76.2333 117.154C76.025 117.575 75.9208 118.025 75.9208 118.506V119.279C75.9208 119.938 76.0344 120.497 76.2617 120.955C76.4928 121.41 76.8129 121.756 77.2219 121.995C77.631 122.23 78.1064 122.347 78.6481 122.347C79.0004 122.347 79.3185 122.298 79.6026 122.2C79.8905 122.097 80.1386 121.946 80.3469 121.745C80.5553 121.541 80.7163 121.287 80.8299 120.984L82.1254 121.347C81.989 121.787 81.7598 122.173 81.4379 122.506C81.1159 122.836 80.7182 123.094 80.2447 123.279C79.7712 123.461 79.239 123.552 78.6481 123.552ZM86.3015 121.779L86.2106 122.393C86.1462 122.825 86.0477 123.287 85.9151 123.779C85.7863 124.272 85.6519 124.736 85.5117 125.171C85.3716 125.607 85.256 125.953 85.1651 126.211H84.1424C84.1916 125.969 84.256 125.649 84.3356 125.251C84.4151 124.853 84.4947 124.408 84.5742 123.916C84.6576 123.427 84.7257 122.927 84.7788 122.416L84.8469 121.779H86.3015ZM99.4677 116.597L98.2631 116.938C98.1874 116.738 98.0756 116.542 97.9279 116.353C97.784 116.16 97.587 116.001 97.337 115.876C97.087 115.751 96.7669 115.688 96.3768 115.688C95.8427 115.688 95.3976 115.811 95.0415 116.058C94.6893 116.3 94.5131 116.609 94.5131 116.984C94.5131 117.317 94.6344 117.58 94.8768 117.774C95.1192 117.967 95.498 118.128 96.0131 118.256L97.3086 118.575C98.0889 118.764 98.6703 119.054 99.0529 119.444C99.4355 119.83 99.6268 120.328 99.6268 120.938C99.6268 121.438 99.4828 121.885 99.195 122.279C98.9109 122.673 98.5131 122.984 98.0018 123.211C97.4904 123.438 96.8957 123.552 96.2177 123.552C95.3275 123.552 94.5908 123.359 94.0075 122.972C93.4241 122.586 93.0548 122.022 92.8995 121.279L94.1722 120.961C94.2934 121.431 94.5226 121.783 94.8597 122.018C95.2006 122.253 95.6457 122.37 96.195 122.37C96.82 122.37 97.3162 122.238 97.6836 121.972C98.0548 121.703 98.2404 121.381 98.2404 121.006C98.2404 120.703 98.1344 120.45 97.9222 120.245C97.7101 120.037 97.3844 119.881 96.945 119.779L95.4904 119.438C94.6912 119.249 94.104 118.955 93.729 118.558C93.3578 118.156 93.1722 117.654 93.1722 117.052C93.1722 116.56 93.3105 116.124 93.587 115.745C93.8673 115.366 94.248 115.069 94.729 114.853C95.2139 114.637 95.7631 114.529 96.3768 114.529C97.2404 114.529 97.9184 114.719 98.4109 115.097C98.9071 115.476 99.2594 115.976 99.4677 116.597ZM105.191 123.552C104.373 123.552 103.668 123.359 103.077 122.972C102.486 122.586 102.032 122.054 101.713 121.376C101.395 120.698 101.236 119.923 101.236 119.052C101.236 118.166 101.399 117.383 101.725 116.705C102.054 116.024 102.513 115.491 103.1 115.109C103.691 114.722 104.38 114.529 105.168 114.529C105.782 114.529 106.335 114.643 106.827 114.87C107.319 115.097 107.723 115.416 108.037 115.825C108.352 116.234 108.547 116.711 108.623 117.256H107.282C107.179 116.859 106.952 116.506 106.6 116.2C106.251 115.889 105.782 115.734 105.191 115.734C104.668 115.734 104.21 115.87 103.816 116.143C103.426 116.412 103.121 116.792 102.901 117.285C102.685 117.774 102.577 118.347 102.577 119.006C102.577 119.681 102.683 120.268 102.895 120.768C103.111 121.268 103.414 121.656 103.804 121.933C104.198 122.209 104.66 122.347 105.191 122.347C105.539 122.347 105.855 122.287 106.14 122.166C106.424 122.044 106.664 121.87 106.861 121.643C107.058 121.416 107.198 121.143 107.282 120.825H108.623C108.547 121.34 108.359 121.804 108.06 122.217C107.765 122.626 107.373 122.952 106.884 123.194C106.399 123.433 105.835 123.552 105.191 123.552ZM113.151 123.575C112.598 123.575 112.096 123.47 111.645 123.262C111.194 123.05 110.837 122.745 110.571 122.347C110.306 121.946 110.174 121.461 110.174 120.893C110.174 120.393 110.272 119.988 110.469 119.677C110.666 119.363 110.929 119.116 111.259 118.938C111.588 118.76 111.952 118.628 112.35 118.541C112.751 118.45 113.155 118.378 113.56 118.325C114.09 118.256 114.52 118.205 114.85 118.171C115.183 118.133 115.426 118.071 115.577 117.984C115.732 117.897 115.81 117.745 115.81 117.529V117.484C115.81 116.923 115.657 116.488 115.35 116.177C115.047 115.866 114.587 115.711 113.969 115.711C113.329 115.711 112.827 115.851 112.463 116.131C112.1 116.412 111.844 116.711 111.696 117.029L110.424 116.575C110.651 116.044 110.954 115.631 111.333 115.336C111.715 115.037 112.132 114.828 112.583 114.711C113.037 114.59 113.484 114.529 113.924 114.529C114.204 114.529 114.526 114.563 114.89 114.631C115.257 114.696 115.611 114.83 115.952 115.035C116.297 115.239 116.583 115.548 116.81 115.961C117.037 116.374 117.151 116.927 117.151 117.62V123.37H115.81V122.188H115.742C115.651 122.378 115.499 122.58 115.287 122.796C115.075 123.012 114.793 123.196 114.441 123.347C114.088 123.499 113.658 123.575 113.151 123.575ZM113.355 122.37C113.886 122.37 114.333 122.266 114.696 122.058C115.064 121.849 115.34 121.58 115.526 121.251C115.715 120.921 115.81 120.575 115.81 120.211V118.984C115.753 119.052 115.628 119.114 115.435 119.171C115.246 119.224 115.026 119.272 114.776 119.313C114.53 119.351 114.289 119.385 114.054 119.416C113.823 119.442 113.636 119.465 113.492 119.484C113.143 119.529 112.818 119.603 112.515 119.705C112.215 119.804 111.973 119.953 111.787 120.154C111.605 120.351 111.515 120.62 111.515 120.961C111.515 121.427 111.687 121.779 112.032 122.018C112.38 122.253 112.821 122.37 113.355 122.37ZM120.939 111.734V123.37H119.598V111.734H120.939ZM125.963 123.575C125.41 123.575 124.908 123.47 124.458 123.262C124.007 123.05 123.649 122.745 123.384 122.347C123.119 121.946 122.986 121.461 122.986 120.893C122.986 120.393 123.085 119.988 123.282 119.677C123.479 119.363 123.742 119.116 124.071 118.938C124.401 118.76 124.765 118.628 125.162 118.541C125.564 118.45 125.967 118.378 126.373 118.325C126.903 118.256 127.333 118.205 127.662 118.171C127.996 118.133 128.238 118.071 128.39 117.984C128.545 117.897 128.623 117.745 128.623 117.529V117.484C128.623 116.923 128.469 116.488 128.162 116.177C127.859 115.866 127.399 115.711 126.782 115.711C126.141 115.711 125.64 115.851 125.276 116.131C124.912 116.412 124.657 116.711 124.509 117.029L123.236 116.575C123.463 116.044 123.766 115.631 124.145 115.336C124.528 115.037 124.944 114.828 125.395 114.711C125.85 114.59 126.297 114.529 126.736 114.529C127.016 114.529 127.338 114.563 127.702 114.631C128.069 114.696 128.424 114.83 128.765 115.035C129.109 115.239 129.395 115.548 129.623 115.961C129.85 116.374 129.963 116.927 129.963 117.62V123.37H128.623V122.188H128.554C128.463 122.378 128.312 122.58 128.1 122.796C127.888 123.012 127.605 123.196 127.253 123.347C126.901 123.499 126.471 123.575 125.963 123.575ZM126.168 122.37C126.698 122.37 127.145 122.266 127.509 122.058C127.876 121.849 128.153 121.58 128.338 121.251C128.528 120.921 128.623 120.575 128.623 120.211V118.984C128.566 119.052 128.441 119.114 128.248 119.171C128.058 119.224 127.838 119.272 127.588 119.313C127.342 119.351 127.102 119.385 126.867 119.416C126.636 119.442 126.448 119.465 126.304 119.484C125.956 119.529 125.63 119.603 125.327 119.705C125.028 119.804 124.785 119.953 124.6 120.154C124.418 120.351 124.327 120.62 124.327 120.961C124.327 121.427 124.499 121.779 124.844 122.018C125.193 122.253 125.634 122.37 126.168 122.37ZM132.593 123.37V111.734H133.934V116.029H134.047C134.146 115.878 134.282 115.685 134.456 115.45C134.634 115.211 134.888 114.999 135.218 114.813C135.551 114.624 136.002 114.529 136.57 114.529C137.305 114.529 137.953 114.713 138.513 115.08C139.074 115.448 139.511 115.969 139.826 116.643C140.14 117.317 140.297 118.113 140.297 119.029C140.297 119.953 140.14 120.755 139.826 121.433C139.511 122.107 139.076 122.63 138.519 123.001C137.962 123.368 137.32 123.552 136.593 123.552C136.032 123.552 135.583 123.459 135.246 123.274C134.909 123.084 134.65 122.87 134.468 122.631C134.286 122.389 134.146 122.188 134.047 122.029H133.888V123.37H132.593ZM133.911 119.006C133.911 119.666 134.007 120.247 134.201 120.751C134.394 121.251 134.676 121.643 135.047 121.927C135.418 122.207 135.873 122.347 136.411 122.347C136.971 122.347 137.439 122.2 137.814 121.904C138.193 121.605 138.477 121.203 138.667 120.7C138.86 120.192 138.956 119.628 138.956 119.006C138.956 118.393 138.862 117.84 138.672 117.347C138.487 116.851 138.204 116.459 137.826 116.171C137.451 115.88 136.979 115.734 136.411 115.734C135.865 115.734 135.407 115.872 135.036 116.149C134.665 116.421 134.384 116.804 134.195 117.296C134.006 117.785 133.911 118.355 133.911 119.006ZM143.689 111.734V123.37H142.348V111.734H143.689ZM149.804 123.552C148.963 123.552 148.238 123.366 147.628 122.995C147.022 122.62 146.554 122.097 146.225 121.427C145.899 120.753 145.736 119.969 145.736 119.075C145.736 118.181 145.899 117.393 146.225 116.711C146.554 116.025 147.013 115.491 147.6 115.109C148.191 114.722 148.88 114.529 149.668 114.529C150.123 114.529 150.571 114.605 151.015 114.756C151.458 114.908 151.861 115.154 152.225 115.495C152.588 115.832 152.878 116.279 153.094 116.836C153.31 117.393 153.418 118.078 153.418 118.893V119.461H146.691V118.302H152.054C152.054 117.81 151.956 117.37 151.759 116.984C151.566 116.597 151.289 116.292 150.929 116.069C150.573 115.845 150.153 115.734 149.668 115.734C149.134 115.734 148.672 115.866 148.282 116.131C147.895 116.393 147.598 116.734 147.39 117.154C147.181 117.575 147.077 118.025 147.077 118.506V119.279C147.077 119.938 147.191 120.497 147.418 120.955C147.649 121.41 147.969 121.756 148.378 121.995C148.787 122.23 149.263 122.347 149.804 122.347C150.157 122.347 150.475 122.298 150.759 122.2C151.047 122.097 151.295 121.946 151.503 121.745C151.712 121.541 151.873 121.287 151.986 120.984L153.282 121.347C153.145 121.787 152.916 122.173 152.594 122.506C152.272 122.836 151.874 123.094 151.401 123.279C150.927 123.461 150.395 123.552 149.804 123.552ZM166.14 116.597L164.935 116.938C164.859 116.738 164.748 116.542 164.6 116.353C164.456 116.16 164.259 116.001 164.009 115.876C163.759 115.751 163.439 115.688 163.049 115.688C162.515 115.688 162.069 115.811 161.713 116.058C161.361 116.3 161.185 116.609 161.185 116.984C161.185 117.317 161.306 117.58 161.549 117.774C161.791 117.967 162.17 118.128 162.685 118.256L163.98 118.575C164.761 118.764 165.342 119.054 165.725 119.444C166.107 119.83 166.299 120.328 166.299 120.938C166.299 121.438 166.155 121.885 165.867 122.279C165.583 122.673 165.185 122.984 164.674 123.211C164.162 123.438 163.568 123.552 162.89 123.552C161.999 123.552 161.263 123.359 160.679 122.972C160.096 122.586 159.727 122.022 159.571 121.279L160.844 120.961C160.965 121.431 161.194 121.783 161.532 122.018C161.873 122.253 162.318 122.37 162.867 122.37C163.492 122.37 163.988 122.238 164.355 121.972C164.727 121.703 164.912 121.381 164.912 121.006C164.912 120.703 164.806 120.45 164.594 120.245C164.382 120.037 164.056 119.881 163.617 119.779L162.162 119.438C161.363 119.249 160.776 118.955 160.401 118.558C160.03 118.156 159.844 117.654 159.844 117.052C159.844 116.56 159.982 116.124 160.259 115.745C160.539 115.366 160.92 115.069 161.401 114.853C161.886 114.637 162.435 114.529 163.049 114.529C163.912 114.529 164.59 114.719 165.083 115.097C165.579 115.476 165.931 115.976 166.14 116.597ZM169.181 126.643C168.953 126.643 168.751 126.624 168.573 126.586C168.395 126.552 168.272 126.518 168.203 126.484L168.544 125.302C168.87 125.385 169.158 125.416 169.408 125.393C169.658 125.37 169.88 125.258 170.073 125.058C170.27 124.861 170.45 124.541 170.613 124.097L170.863 123.416L167.635 114.643H169.09L171.499 121.597H171.59L173.999 114.643H175.453L171.749 124.643C171.582 125.094 171.376 125.467 171.13 125.762C170.883 126.061 170.597 126.283 170.272 126.427C169.95 126.571 169.586 126.643 169.181 126.643ZM183.405 116.597L182.201 116.938C182.125 116.738 182.013 116.542 181.865 116.353C181.721 116.16 181.525 116.001 181.275 115.876C181.025 115.751 180.704 115.688 180.314 115.688C179.78 115.688 179.335 115.811 178.979 116.058C178.627 116.3 178.451 116.609 178.451 116.984C178.451 117.317 178.572 117.58 178.814 117.774C179.057 117.967 179.435 118.128 179.951 118.256L181.246 118.575C182.026 118.764 182.608 119.054 182.99 119.444C183.373 119.83 183.564 120.328 183.564 120.938C183.564 121.438 183.42 121.885 183.132 122.279C182.848 122.673 182.451 122.984 181.939 123.211C181.428 123.438 180.833 123.552 180.155 123.552C179.265 123.552 178.528 123.359 177.945 122.972C177.362 122.586 176.992 122.022 176.837 121.279L178.11 120.961C178.231 121.431 178.46 121.783 178.797 122.018C179.138 122.253 179.583 122.37 180.132 122.37C180.757 122.37 181.254 122.238 181.621 121.972C181.992 121.703 182.178 121.381 182.178 121.006C182.178 120.703 182.072 120.45 181.86 120.245C181.648 120.037 181.322 119.881 180.882 119.779L179.428 119.438C178.629 119.249 178.042 118.955 177.667 118.558C177.295 118.156 177.11 117.654 177.11 117.052C177.11 116.56 177.248 116.124 177.525 115.745C177.805 115.366 178.185 115.069 178.667 114.853C179.151 114.637 179.701 114.529 180.314 114.529C181.178 114.529 181.856 114.719 182.348 115.097C182.845 115.476 183.197 115.976 183.405 116.597ZM189.378 114.643V115.779H184.855V114.643H189.378ZM186.174 112.552H187.515V120.87C187.515 121.249 187.569 121.533 187.679 121.722C187.793 121.908 187.937 122.033 188.111 122.097C188.289 122.158 188.477 122.188 188.674 122.188C188.821 122.188 188.943 122.181 189.037 122.166C189.132 122.147 189.208 122.131 189.265 122.12L189.537 123.325C189.446 123.359 189.319 123.393 189.157 123.427C188.994 123.465 188.787 123.484 188.537 123.484C188.158 123.484 187.787 123.402 187.424 123.239C187.064 123.077 186.765 122.828 186.526 122.495C186.291 122.162 186.174 121.741 186.174 121.234V112.552ZM194.961 123.552C194.12 123.552 193.394 123.366 192.784 122.995C192.178 122.62 191.711 122.097 191.381 121.427C191.055 120.753 190.892 119.969 190.892 119.075C190.892 118.181 191.055 117.393 191.381 116.711C191.711 116.025 192.169 115.491 192.756 115.109C193.347 114.722 194.036 114.529 194.824 114.529C195.279 114.529 195.728 114.605 196.171 114.756C196.614 114.908 197.017 115.154 197.381 115.495C197.745 115.832 198.034 116.279 198.25 116.836C198.466 117.393 198.574 118.078 198.574 118.893V119.461H191.847V118.302H197.211C197.211 117.81 197.112 117.37 196.915 116.984C196.722 116.597 196.445 116.292 196.086 116.069C195.73 115.845 195.309 115.734 194.824 115.734C194.29 115.734 193.828 115.866 193.438 116.131C193.051 116.393 192.754 116.734 192.546 117.154C192.337 117.575 192.233 118.025 192.233 118.506V119.279C192.233 119.938 192.347 120.497 192.574 120.955C192.805 121.41 193.125 121.756 193.534 121.995C193.944 122.23 194.419 122.347 194.961 122.347C195.313 122.347 195.631 122.298 195.915 122.2C196.203 122.097 196.451 121.946 196.659 121.745C196.868 121.541 197.029 121.287 197.142 120.984L198.438 121.347C198.301 121.787 198.072 122.173 197.75 122.506C197.428 122.836 197.031 123.094 196.557 123.279C196.084 123.461 195.551 123.552 194.961 123.552ZM200.614 123.37V114.643H201.909V116.006H202.023C202.205 115.541 202.498 115.179 202.904 114.921C203.309 114.66 203.796 114.529 204.364 114.529C204.94 114.529 205.419 114.66 205.801 114.921C206.188 115.179 206.489 115.541 206.705 116.006H206.796C207.019 115.556 207.355 115.198 207.801 114.933C208.248 114.664 208.784 114.529 209.409 114.529C210.19 114.529 210.828 114.774 211.324 115.262C211.82 115.747 212.069 116.503 212.069 117.529V123.37H210.728V117.529C210.728 116.885 210.551 116.425 210.199 116.149C209.847 115.872 209.432 115.734 208.955 115.734C208.341 115.734 207.866 115.919 207.529 116.291C207.192 116.658 207.023 117.124 207.023 117.688V123.37H205.659V117.393C205.659 116.897 205.498 116.497 205.176 116.194C204.855 115.887 204.44 115.734 203.932 115.734C203.584 115.734 203.258 115.827 202.955 116.012C202.656 116.198 202.413 116.455 202.228 116.785C202.046 117.111 201.955 117.488 201.955 117.916V123.37H200.614ZM220.702 116.597L219.498 116.938C219.422 116.738 219.31 116.542 219.162 116.353C219.018 116.16 218.821 116.001 218.571 115.876C218.321 115.751 218.001 115.688 217.611 115.688C217.077 115.688 216.632 115.811 216.276 116.058C215.924 116.3 215.748 116.609 215.748 116.984C215.748 117.317 215.869 117.58 216.111 117.774C216.354 117.967 216.732 118.128 217.248 118.256L218.543 118.575C219.323 118.764 219.905 119.054 220.287 119.444C220.67 119.83 220.861 120.328 220.861 120.938C220.861 121.438 220.717 121.885 220.429 122.279C220.145 122.673 219.748 122.984 219.236 123.211C218.725 123.438 218.13 123.552 217.452 123.552C216.562 123.552 215.825 123.359 215.242 122.972C214.658 122.586 214.289 122.022 214.134 121.279L215.407 120.961C215.528 121.431 215.757 121.783 216.094 122.018C216.435 122.253 216.88 122.37 217.429 122.37C218.054 122.37 218.551 122.238 218.918 121.972C219.289 121.703 219.475 121.381 219.475 121.006C219.475 120.703 219.369 120.45 219.157 120.245C218.944 120.037 218.619 119.881 218.179 119.779L216.725 119.438C215.926 119.249 215.338 118.955 214.963 118.558C214.592 118.156 214.407 117.654 214.407 117.052C214.407 116.56 214.545 116.124 214.821 115.745C215.102 115.366 215.482 115.069 215.963 114.853C216.448 114.637 216.998 114.529 217.611 114.529C218.475 114.529 219.153 114.719 219.645 115.097C220.141 115.476 220.494 115.976 220.702 116.597ZM223.857 123.461C223.577 123.461 223.336 123.361 223.135 123.16C222.935 122.959 222.834 122.719 222.834 122.438C222.834 122.158 222.935 121.917 223.135 121.717C223.336 121.516 223.577 121.416 223.857 121.416C224.137 121.416 224.378 121.516 224.578 121.717C224.779 121.917 224.88 122.158 224.88 122.438C224.88 122.624 224.832 122.794 224.738 122.95C224.647 123.105 224.524 123.23 224.368 123.325C224.217 123.416 224.046 123.461 223.857 123.461Z" fill="white"/>
</g>
<rect x="44.5" y="13.4287" width="30.0176" height="30.0176" rx="15.0088" transform="rotate(90 44.5 13.4287)" fill="url(#paint0_linear_8931_3946)"/>
<g clip-path="url(#clip0_8931_3946)">
<path d="M36.309 25.7969C36.2595 25.6883 36.1799 25.5961 36.0797 25.5314C35.9794 25.4666 35.8627 25.4318 35.7434 25.4312H30.884L32.959 19.9062C32.9943 19.8118 33.0062 19.7102 32.9938 19.6101C32.9813 19.5101 32.9448 19.4145 32.8874 19.3316C32.8299 19.2488 32.7533 19.181 32.6641 19.1341C32.5748 19.0872 32.4755 19.0627 32.3746 19.0625H27.3371C27.2166 19.063 27.0987 19.0984 26.9978 19.1644C26.8969 19.2304 26.8172 19.3241 26.7684 19.4344L22.6746 28.6688C22.6326 28.7637 22.6149 28.8676 22.623 28.9711C22.6312 29.0746 22.6651 29.1745 22.7215 29.2616C22.778 29.3488 22.8552 29.4205 22.9464 29.4703C23.0375 29.5201 23.1396 29.5464 23.2434 29.5469H27.4621L26.5871 32.8375L25.4746 37.0281C25.4379 37.165 25.4488 37.3103 25.5055 37.4401C25.5622 37.57 25.6614 37.6767 25.7867 37.7428C25.912 37.809 26.0561 37.8305 26.1953 37.804C26.3345 37.7775 26.4605 37.7044 26.5528 37.5969L36.2121 26.4656C36.2907 26.3752 36.3416 26.264 36.3588 26.1455C36.3759 26.0269 36.3587 25.9059 36.309 25.7969ZM27.3778 34.7406L28.8684 29.0813C28.8829 29.0156 28.8881 28.9483 28.884 28.8812C28.8737 28.7226 28.8033 28.5739 28.6872 28.4653C28.5711 28.3568 28.418 28.2965 28.259 28.2969H24.1965L27.7465 20.3125H31.4715L29.3965 25.8375C29.3611 25.9322 29.3493 26.0341 29.3619 26.1344C29.3745 26.2347 29.4113 26.3304 29.4691 26.4134C29.5268 26.4964 29.6039 26.5641 29.6936 26.6107C29.7833 26.6574 29.8829 26.6816 29.984 26.6812H34.359L27.3778 34.7406Z" fill="white"/>
</g>
</g>
<defs>
<filter id="filter0_d_8931_3946" x="-0.00171852" y="-0.000226259" width="306.992" height="156.964" filterUnits="userSpaceOnUse" color-interpolation-filters="sRGB">
<feFlood flood-opacity="0" result="BackgroundImageFix"/>
<feColorMatrix in="SourceAlpha" type="matrix" values="0 0 0 0 0 0 0 0 0 0 0 0 0 0 0 0 0 0 127 0" result="hardAlpha"/>
<feOffset dy="1.05325"/>
<feGaussianBlur stdDeviation="7.24109"/>
<feComposite in2="hardAlpha" operator="out"/>
<feColorMatrix type="matrix" values="0 0 0 0 0 0 0 0 0 0 0 0 0 0 0 0 0 0 0.05 0"/>
<feBlend mode="normal" in2="BackgroundImageFix" result="effect1_dropShadow_8931_3946"/>
<feBlend mode="normal" in="SourceGraphic" in2="effect1_dropShadow_8931_3946" result="shape"/>
</filter>
<linearGradient id="paint0_linear_8931_3946" x1="44.5" y1="28.4375" x2="74.5176" y2="28.4375" gradientUnits="userSpaceOnUse">
<stop stop-color="#194BFB"/>
<stop offset="1" stop-color="#7D3AED"/>
</linearGradient>
<clipPath id="clip0_8931_3946">
<rect width="20" height="20" fill="white" transform="translate(19.4922 18.4375)"/>
</clipPath>
</defs>
</svg>
