<svg width="152" height="224" viewBox="0 0 152 224" fill="none" xmlns="http://www.w3.org/2000/svg">
<mask id="path-1-outside-1_9004_2664" maskUnits="userSpaceOnUse" x="-0.407547" y="-0.818115" width="163" height="224" fill="black">
<rect fill="white" x="-0.407547" y="-0.818115" width="163" height="224"/>
<path d="M79.9646 222.165C64.9078 222.165 51.4845 219.395 39.6947 213.855C27.976 208.315 18.672 200.68 11.7828 190.95C4.89359 181.22 1.30694 170.07 1.02285 157.499H45.7672C46.2643 165.95 49.8155 172.804 56.4206 178.06C63.0257 183.315 70.8737 185.943 79.9646 185.943C87.2089 185.943 93.601 184.345 99.1408 181.149C104.752 177.882 109.119 173.372 112.244 167.619C115.44 161.796 117.038 155.119 117.038 147.591C117.038 139.921 115.405 133.173 112.138 127.349C108.942 121.526 104.503 116.98 98.8212 113.713C93.1393 110.446 86.6408 108.777 79.3254 108.706C72.9334 108.706 66.7189 110.02 60.6819 112.648C54.716 115.276 50.064 118.862 46.726 123.408L5.71035 116.057L16.0442 1.00006H149.425V38.7131H54.0768L48.4305 93.3651H49.7089C53.5442 87.9674 59.3325 83.493 67.074 79.9418C74.8155 76.3907 83.4802 74.6151 93.0683 74.6151C106.208 74.6151 117.926 77.7046 128.225 83.8836C138.523 90.0626 146.655 98.5498 152.621 109.345C158.587 120.07 161.534 132.428 161.463 146.419C161.534 161.121 158.125 174.189 151.236 185.624C144.418 196.987 134.865 205.936 122.578 212.47C110.362 218.933 96.1578 222.165 79.9646 222.165Z"/>
</mask>
<path d="M39.6947 213.855L39.2673 214.759L39.2695 214.76L39.6947 213.855ZM11.7828 190.95L12.5989 190.372V190.372L11.7828 190.95ZM1.02285 157.499V156.499H-3.8147e-06L0.0231056 157.521L1.02285 157.499ZM45.7672 157.499L46.7654 157.44L46.7101 156.499H45.7672V157.499ZM56.4206 178.06L57.0432 177.277V177.277L56.4206 178.06ZM99.1408 181.149L99.6405 182.015L99.6439 182.013L99.1408 181.149ZM112.244 167.619L111.368 167.138L111.366 167.142L112.244 167.619ZM112.138 127.349L111.261 127.831L111.266 127.839L112.138 127.349ZM98.8212 113.713L98.3227 114.58H98.3227L98.8212 113.713ZM79.3254 108.706L79.3351 107.706H79.3254V108.706ZM60.6819 112.648L60.2828 111.731L60.2788 111.733L60.6819 112.648ZM46.726 123.408L46.5496 124.392L47.1631 124.502L47.532 124L46.726 123.408ZM5.71035 116.057L4.71436 115.967L4.63243 116.88L5.53394 117.041L5.71035 116.057ZM16.0442 1.00006V6.00815e-05H15.1299L15.0482 0.910605L16.0442 1.00006ZM149.425 1.00006H150.425V6.00815e-05H149.425V1.00006ZM149.425 38.7131V39.7131H150.425V38.7131H149.425ZM54.0768 38.7131V37.7131H53.1748L53.0821 38.6104L54.0768 38.7131ZM48.4305 93.3651L47.4358 93.2624L47.3219 94.3651H48.4305V93.3651ZM49.7089 93.3651V94.3651H50.2251L50.5241 93.9443L49.7089 93.3651ZM67.074 79.9418L67.4909 80.8508V80.8508L67.074 79.9418ZM128.225 83.8836L128.739 83.0261H128.739L128.225 83.8836ZM152.621 109.345L151.746 109.829L151.747 109.831L152.621 109.345ZM161.463 146.419L160.463 146.414L160.463 146.424L161.463 146.419ZM151.236 185.624L150.379 185.108L150.378 185.109L151.236 185.624ZM122.578 212.47L123.046 213.354L123.048 213.353L122.578 212.47ZM79.9646 222.165V221.165C65.032 221.165 51.7575 218.418 40.12 212.95L39.6947 213.855L39.2695 214.76C51.2115 220.372 64.7836 223.165 79.9646 223.165V222.165ZM39.6947 213.855L40.1221 212.951C28.5449 207.478 19.3802 199.95 12.5989 190.372L11.7828 190.95L10.9667 191.528C17.9638 201.411 27.4071 209.153 39.2673 214.759L39.6947 213.855ZM11.7828 190.95L12.5989 190.372C5.83137 180.814 2.30244 169.859 2.0226 157.476L1.02285 157.499L0.0231056 157.521C0.311441 170.28 3.95581 181.626 10.9667 191.528L11.7828 190.95ZM1.02285 157.499V158.499H45.7672V157.499V156.499H1.02285V157.499ZM45.7672 157.499L44.7689 157.557C45.2827 166.292 48.9697 173.409 55.7979 178.842L56.4206 178.06L57.0432 177.277C50.6612 172.199 47.246 165.609 46.7654 157.44L45.7672 157.499ZM56.4206 178.06L55.7979 178.842C62.5941 184.25 70.6662 186.943 79.9646 186.943V185.943V184.943C71.0812 184.943 63.4573 182.381 57.0432 177.277L56.4206 178.06ZM79.9646 185.943V186.943C87.3606 186.943 93.9295 185.31 99.6405 182.015L99.1408 181.149L98.641 180.283C93.2725 183.38 87.0572 184.943 79.9646 184.943V185.943ZM99.1408 181.149L99.6439 182.013C105.414 178.653 109.912 174.009 113.123 168.097L112.244 167.619L111.366 167.142C108.327 172.735 104.089 177.111 98.6376 180.285L99.1408 181.149ZM112.244 167.619L113.121 168.1C116.408 162.11 118.038 155.265 118.038 147.591H117.038H116.038C116.038 154.974 114.473 161.481 111.368 167.138L112.244 167.619ZM117.038 147.591H118.038C118.038 139.775 116.373 132.855 113.01 126.86L112.138 127.349L111.266 127.839C114.437 133.492 116.038 140.066 116.038 147.591H117.038ZM112.138 127.349L113.015 126.868C109.732 120.886 105.163 116.206 99.3196 112.846L98.8212 113.713L98.3227 114.58C103.843 117.754 108.152 122.165 111.261 127.831L112.138 127.349ZM98.8212 113.713L99.3196 112.846C93.4723 109.484 86.8018 107.779 79.3351 107.706L79.3254 108.706L79.3157 109.706C86.4798 109.776 92.8064 111.408 98.3227 114.58L98.8212 113.713ZM79.3254 108.706V107.706C72.7919 107.706 66.4418 109.05 60.2828 111.731L60.6819 112.648L61.0811 113.565C66.9959 110.99 73.0749 109.706 79.3254 109.706V108.706ZM60.6819 112.648L60.2788 111.733C54.1779 114.42 49.3769 118.108 45.92 122.816L46.726 123.408L47.532 124C50.7512 119.616 55.2541 116.131 61.0851 113.563L60.6819 112.648ZM46.726 123.408L46.9024 122.423L5.88676 115.073L5.71035 116.057L5.53394 117.041L46.5496 124.392L46.726 123.408ZM5.71035 116.057L6.70634 116.146L17.0401 1.08951L16.0442 1.00006L15.0482 0.910605L4.71436 115.967L5.71035 116.057ZM16.0442 1.00006V2.00006H149.425V1.00006V6.00815e-05H16.0442V1.00006ZM149.425 1.00006H148.425V38.7131H149.425H150.425V1.00006H149.425ZM149.425 38.7131V37.7131H54.0768V38.7131V39.7131H149.425V38.7131ZM54.0768 38.7131L53.0821 38.6104L47.4358 93.2624L48.4305 93.3651L49.4252 93.4679L55.0715 38.8159L54.0768 38.7131ZM48.4305 93.3651V94.3651H49.7089V93.3651V92.3651H48.4305V93.3651ZM49.7089 93.3651L50.5241 93.9443C54.2327 88.7248 59.8642 84.3493 67.4909 80.8508L67.074 79.9418L66.6571 79.0329C58.8009 82.6367 52.8556 87.2099 48.8938 92.7859L49.7089 93.3651ZM67.074 79.9418L67.4909 80.8508C75.086 77.3668 83.606 75.6151 93.0683 75.6151V74.6151V73.6151C83.3545 73.6151 74.5449 75.4146 66.6571 79.0329L67.074 79.9418ZM93.0683 74.6151V75.6151C106.044 75.6151 117.582 78.664 127.71 84.7411L128.225 83.8836L128.739 83.0261C118.271 76.7452 106.371 73.6151 93.0683 73.6151V74.6151ZM128.225 83.8836L127.71 84.7411C137.853 90.8269 145.863 99.1833 151.746 109.829L152.621 109.345L153.496 108.862C147.447 97.9163 139.193 89.2982 128.739 83.0261L128.225 83.8836ZM152.621 109.345L151.747 109.831C157.618 120.386 160.533 132.57 160.463 146.414L161.463 146.419L162.463 146.424C162.535 132.285 159.555 119.754 153.495 108.859L152.621 109.345ZM161.463 146.419L160.463 146.424C160.533 160.961 157.164 173.846 150.379 185.108L151.236 185.624L152.092 186.14C159.086 174.532 162.535 161.28 162.463 146.414L161.463 146.419ZM151.236 185.624L150.378 185.109C143.658 196.309 134.244 205.134 122.109 211.587L122.578 212.47L123.048 213.353C135.487 206.738 145.177 197.665 152.093 186.138L151.236 185.624ZM122.578 212.47L122.111 211.586C110.062 217.961 96.0228 221.165 79.9646 221.165V222.165V223.165C96.2928 223.165 110.663 219.906 123.046 213.354L122.578 212.47Z" fill="white" fill-opacity="0.25" mask="url(#path-1-outside-1_9004_2664)"/>
</svg>
