<svg width="307" height="157" viewBox="0 0 307 157" fill="none" xmlns="http://www.w3.org/2000/svg">
<g filter="url(#filter0_d_8931_3958)">
<mask id="mask0_8931_3958" style="mask-type:alpha" maskUnits="userSpaceOnUse" x="14" y="13" width="279" height="129">
<path d="M292.902 131.284C292.902 136.664 288.54 141.026 283.16 141.026L24.2248 141.026C18.8441 141.026 14.4822 136.664 14.4822 131.284L14.4823 58.0604C14.4823 52.6798 18.8442 48.3179 24.2248 48.3179L30.268 48.3179C40.4095 48.3179 48.5875 40.0154 48.4345 29.8751L48.3355 23.3186C48.2534 17.881 52.6388 13.429 58.077 13.429L283.159 13.429C288.54 13.429 292.902 17.7909 292.902 23.1715L292.902 131.284Z" fill="#3C3C3C"/>
</mask>
<g mask="url(#mask0_8931_3958)">
<path d="M292.508 131.207C292.508 136.586 288.148 140.948 282.768 140.949L24.2278 141.021C18.8461 141.022 14.4826 136.66 14.4826 131.278L14.4827 52.8405C14.4827 47.4598 18.8446 43.0979 24.2252 43.0979L30.2192 43.0979C40.3796 43.0979 48.5653 34.7657 48.385 24.6069L48.3625 23.341C48.2658 17.8947 52.6534 13.4272 58.1005 13.4255L282.762 13.355C288.144 13.3533 292.508 17.7157 292.508 23.0975L292.508 131.207Z" fill="#182137"/>
<path d="M66.7756 42.6338V29.5429H71.7869C72.733 29.5429 73.5192 29.692 74.1456 29.9903C74.7763 30.2844 75.2472 30.6871 75.5582 31.1984C75.8736 31.7098 76.0312 32.2893 76.0312 32.9371C76.0312 33.4697 75.929 33.9257 75.7244 34.305C75.5199 34.68 75.245 34.9846 74.8999 35.219C74.5547 35.4534 74.169 35.6217 73.7429 35.724V35.8518C74.2074 35.8774 74.6527 36.0202 75.0788 36.2801C75.5092 36.5358 75.8608 36.898 76.1335 37.3667C76.4063 37.8355 76.5426 38.4023 76.5426 39.067C76.5426 39.7446 76.3786 40.354 76.0504 40.8952C75.7223 41.4321 75.228 41.8561 74.5675 42.1672C73.907 42.4782 73.076 42.6338 72.0746 42.6338H66.7756ZM69.147 40.6523H71.6974C72.5582 40.6523 73.1783 40.4882 73.5575 40.1601C73.9411 39.8277 74.1328 39.4015 74.1328 38.8817C74.1328 38.4939 74.0369 38.1444 73.8452 37.8334C73.6534 37.518 73.3807 37.2709 73.027 37.0919C72.6733 36.9086 72.2514 36.817 71.7614 36.817H69.147V40.6523ZM69.147 35.1104H71.4929C71.902 35.1104 72.2706 35.0358 72.5987 34.8866C72.9268 34.7332 73.1847 34.518 73.3722 34.241C73.5639 33.9598 73.6598 33.6274 73.6598 33.2439C73.6598 32.7368 73.4808 32.3192 73.1229 31.991C72.7692 31.6629 72.2429 31.4988 71.544 31.4988H69.147V35.1104ZM84.7612 38.5045V32.8156H87.0751V42.6338H84.8315V40.8888H84.7292C84.5076 41.4385 84.1433 41.8881 83.6362 42.2375C83.1333 42.5869 82.5133 42.7616 81.7761 42.7616C81.1326 42.7616 80.5637 42.6189 80.0694 42.3334C79.5794 42.0436 79.1958 41.6238 78.9189 41.0741C78.6419 40.5202 78.5034 39.8511 78.5034 39.067V32.8156H80.8173V38.7091C80.8173 39.3312 80.9877 39.8256 81.3287 40.192C81.6696 40.5585 82.117 40.7417 82.671 40.7417C83.0119 40.7417 83.3422 40.6586 83.6618 40.4925C83.9814 40.3263 84.2434 40.0791 84.448 39.751C84.6568 39.4186 84.7612 39.0031 84.7612 38.5045ZM97.2145 35.4108L95.1051 35.6409C95.0455 35.4278 94.9411 35.2275 94.7919 35.04C94.647 34.8525 94.451 34.7013 94.2038 34.5862C93.9567 34.4711 93.6541 34.4136 93.2962 34.4136C92.8146 34.4136 92.4098 34.518 92.0817 34.7268C91.7578 34.9356 91.598 35.2062 91.6023 35.5386C91.598 35.8241 91.7024 36.0564 91.9155 36.2354C92.1328 36.4143 92.4908 36.5613 92.9893 36.6764L94.6641 37.0344C95.593 37.2346 96.2834 37.5521 96.7351 37.9868C97.1911 38.4214 97.4212 38.9903 97.4254 39.6934C97.4212 40.3113 97.2401 40.8568 96.8821 41.3298C96.5284 41.7986 96.0362 42.165 95.4055 42.4292C94.7749 42.6934 94.0504 42.8256 93.2322 42.8256C92.0305 42.8256 91.0632 42.5741 90.3303 42.0713C89.5973 41.5642 89.1605 40.8589 89.0199 39.9555L91.2763 39.7382C91.3786 40.1814 91.5959 40.5159 91.9283 40.7417C92.2607 40.9676 92.6932 41.0805 93.2259 41.0805C93.7756 41.0805 94.2166 40.9676 94.549 40.7417C94.8857 40.5159 95.054 40.2368 95.054 39.9044C95.054 39.6231 94.9453 39.3909 94.728 39.2077C94.5149 39.0244 94.1825 38.8838 93.7308 38.7858L92.0561 38.4342C91.1143 38.2382 90.4176 37.9079 89.9659 37.4434C89.5142 36.9747 89.2905 36.3824 89.2947 35.6665C89.2905 35.0613 89.4545 34.5372 89.7869 34.094C90.1236 33.6466 90.5902 33.3014 91.1868 33.0585C91.7876 32.8113 92.4801 32.6878 93.2642 32.6878C94.4148 32.6878 95.3203 32.9328 95.9808 33.4229C96.6456 33.9129 97.0568 34.5756 97.2145 35.4108ZM99.3335 42.6338V32.8156H101.647V42.6338H99.3335ZM100.497 31.4221C100.13 31.4221 99.815 31.3007 99.5508 31.0578C99.2866 30.8106 99.1545 30.5145 99.1545 30.1693C99.1545 29.8199 99.2866 29.5237 99.5508 29.2808C99.815 29.0336 100.13 28.9101 100.497 28.9101C100.868 28.9101 101.183 29.0336 101.443 29.2808C101.707 29.5237 101.839 29.8199 101.839 30.1693C101.839 30.5145 101.707 30.8106 101.443 31.0578C101.183 31.3007 100.868 31.4221 100.497 31.4221ZM106.341 36.8809V42.6338H104.027V32.8156H106.238V34.4839H106.354C106.579 33.9342 106.939 33.4974 107.434 33.1736C107.932 32.8497 108.548 32.6878 109.281 32.6878C109.959 32.6878 110.549 32.8327 111.052 33.1224C111.559 33.4122 111.951 33.8319 112.228 34.3817C112.509 34.9314 112.648 35.5983 112.643 36.3824V42.6338H110.329V36.7403C110.329 36.0841 110.159 35.5706 109.818 35.1998C109.481 34.8291 109.015 34.6437 108.418 34.6437C108.013 34.6437 107.653 34.7332 107.338 34.9122C107.027 35.0869 106.782 35.3405 106.603 35.6729C106.428 36.0052 106.341 36.4079 106.341 36.8809ZM119.342 42.8256C118.358 42.8256 117.508 42.621 116.792 42.2119C116.08 41.7986 115.532 41.2148 115.149 40.4605C114.765 39.702 114.574 38.8092 114.574 37.7822C114.574 36.7723 114.765 35.8859 115.149 35.1231C115.537 34.3561 116.078 33.7595 116.773 33.3334C117.467 32.903 118.283 32.6878 119.221 32.6878C119.826 32.6878 120.397 32.7858 120.934 32.9818C121.475 33.1736 121.952 33.4719 122.366 33.8767C122.783 34.2815 123.111 34.7971 123.35 35.4236C123.589 36.0457 123.708 36.7872 123.708 37.648V38.3575H115.66V36.7979H121.49C121.486 36.3547 121.39 35.9605 121.202 35.6153C121.015 35.2659 120.753 34.991 120.416 34.7907C120.084 34.5905 119.696 34.4903 119.253 34.4903C118.78 34.4903 118.364 34.6054 118.006 34.8355C117.648 35.0613 117.369 35.3596 117.169 35.7304C116.973 36.0969 116.873 36.4996 116.868 36.9385V38.3C116.868 38.871 116.973 39.3611 117.182 39.7702C117.39 40.175 117.682 40.4861 118.057 40.7034C118.432 40.9165 118.871 41.023 119.374 41.023C119.711 41.023 120.015 40.9761 120.288 40.8824C120.561 40.7844 120.797 40.6416 120.998 40.4541C121.198 40.2666 121.349 40.0344 121.452 39.7574L123.612 40.0003C123.476 40.5713 123.216 41.0699 122.832 41.496C122.453 41.9179 121.967 42.246 121.375 42.4804C120.782 42.7105 120.105 42.8256 119.342 42.8256ZM133.425 35.4108L131.316 35.6409C131.256 35.4278 131.152 35.2275 131.003 35.04C130.858 34.8525 130.662 34.7013 130.415 34.5862C130.168 34.4711 129.865 34.4136 129.507 34.4136C129.026 34.4136 128.621 34.518 128.293 34.7268C127.969 34.9356 127.809 35.2062 127.813 35.5386C127.809 35.8241 127.913 36.0564 128.126 36.2354C128.344 36.4143 128.702 36.5613 129.2 36.6764L130.875 37.0344C131.804 37.2346 132.494 37.5521 132.946 37.9868C133.402 38.4214 133.632 38.9903 133.636 39.6934C133.632 40.3113 133.451 40.8568 133.093 41.3298C132.739 41.7986 132.247 42.165 131.616 42.4292C130.986 42.6934 130.261 42.8256 129.443 42.8256C128.241 42.8256 127.274 42.5741 126.541 42.0713C125.808 41.5642 125.371 40.8589 125.231 39.9555L127.487 39.7382C127.589 40.1814 127.807 40.5159 128.139 40.7417C128.472 40.9676 128.904 41.0805 129.437 41.0805C129.987 41.0805 130.428 40.9676 130.76 40.7417C131.097 40.5159 131.265 40.2368 131.265 39.9044C131.265 39.6231 131.156 39.3909 130.939 39.2077C130.726 39.0244 130.393 38.8838 129.942 38.7858L128.267 38.4342C127.325 38.2382 126.629 37.9079 126.177 37.4434C125.725 36.9747 125.501 36.3824 125.506 35.6665C125.501 35.0613 125.665 34.5372 125.998 34.094C126.335 33.6466 126.801 33.3014 127.398 33.0585C127.999 32.8113 128.691 32.6878 129.475 32.6878C130.626 32.6878 131.531 32.9328 132.192 33.4229C132.857 33.9129 133.268 34.5756 133.425 35.4108ZM143.304 35.4108L141.195 35.6409C141.135 35.4278 141.031 35.2275 140.882 35.04C140.737 34.8525 140.541 34.7013 140.294 34.5862C140.047 34.4711 139.744 34.4136 139.386 34.4136C138.904 34.4136 138.5 34.518 138.172 34.7268C137.848 34.9356 137.688 35.2062 137.692 35.5386C137.688 35.8241 137.792 36.0564 138.005 36.2354C138.223 36.4143 138.581 36.5613 139.079 36.6764L140.754 37.0344C141.683 37.2346 142.373 37.5521 142.825 37.9868C143.281 38.4214 143.511 38.9903 143.515 39.6934C143.511 40.3113 143.33 40.8568 142.972 41.3298C142.618 41.7986 142.126 42.165 141.495 42.4292C140.865 42.6934 140.14 42.8256 139.322 42.8256C138.12 42.8256 137.153 42.5741 136.42 42.0713C135.687 41.5642 135.25 40.8589 135.11 39.9555L137.366 39.7382C137.468 40.1814 137.686 40.5159 138.018 40.7417C138.35 40.9676 138.783 41.0805 139.316 41.0805C139.865 41.0805 140.306 40.9676 140.639 40.7417C140.975 40.5159 141.144 40.2368 141.144 39.9044C141.144 39.6231 141.035 39.3909 140.818 39.2077C140.605 39.0244 140.272 38.8838 139.821 38.7858L138.146 38.4342C137.204 38.2382 136.507 37.9079 136.056 37.4434C135.604 36.9747 135.38 36.3824 135.385 35.6665C135.38 35.0613 135.544 34.5372 135.877 34.094C136.213 33.6466 136.68 33.3014 137.277 33.0585C137.877 32.8113 138.57 32.6878 139.354 32.6878C140.505 32.6878 141.41 32.9328 142.071 33.4229C142.735 33.9129 143.147 34.5756 143.304 35.4108ZM151.672 42.6338H149.14L153.749 29.5429H156.676L161.292 42.6338H158.76L155.264 32.2275H155.162L151.672 42.6338ZM151.755 37.501H158.658V39.4058H151.755V37.501ZM165.227 29.5429V42.6338H162.914V29.5429H165.227ZM167.607 42.6338V32.8156H169.921V42.6338H167.607ZM168.77 31.4221C168.404 31.4221 168.088 31.3007 167.824 31.0578C167.56 30.8106 167.428 30.5145 167.428 30.1693C167.428 29.8199 167.56 29.5237 167.824 29.2808C168.088 29.0336 168.404 28.9101 168.77 28.9101C169.141 28.9101 169.456 29.0336 169.716 29.2808C169.98 29.5237 170.113 29.8199 170.113 30.1693C170.113 30.5145 169.98 30.8106 169.716 31.0578C169.456 31.3007 169.141 31.4221 168.77 31.4221ZM176.57 46.5202C175.739 46.5202 175.025 46.4072 174.429 46.1814C173.832 45.9598 173.353 45.6615 172.991 45.2865C172.628 44.9115 172.377 44.496 172.236 44.04L174.32 43.5351C174.414 43.7268 174.55 43.9165 174.729 44.104C174.908 44.2957 175.149 44.4534 175.452 44.577C175.758 44.7048 176.144 44.7687 176.608 44.7687C177.265 44.7687 177.808 44.6089 178.238 44.2893C178.669 43.974 178.884 43.4541 178.884 42.7297V40.8696H178.769C178.65 41.1082 178.475 41.3532 178.245 41.6047C178.019 41.8561 177.719 42.067 177.344 42.2375C176.973 42.4079 176.506 42.4932 175.944 42.4932C175.189 42.4932 174.506 42.3163 173.892 41.9626C173.282 41.6047 172.797 41.072 172.434 40.3646C172.077 39.653 171.898 38.7623 171.898 37.6927C171.898 36.6146 172.077 35.7048 172.434 34.9633C172.797 34.2176 173.285 33.653 173.898 33.2694C174.512 32.8817 175.196 32.6878 175.95 32.6878C176.525 32.6878 176.998 32.7858 177.369 32.9818C177.744 33.1736 178.042 33.4058 178.264 33.6785C178.486 33.947 178.654 34.2006 178.769 34.4392H178.897V32.8156H181.179V42.7936C181.179 43.6331 180.979 44.3277 180.578 44.8774C180.177 45.4271 179.63 45.8383 178.935 46.1111C178.241 46.3838 177.452 46.5202 176.57 46.5202ZM176.589 40.6778C177.079 40.6778 177.497 40.5585 177.842 40.3199C178.187 40.0812 178.449 39.7382 178.628 39.2907C178.807 38.8433 178.897 38.3064 178.897 37.68C178.897 37.0621 178.807 36.5209 178.628 36.0564C178.454 35.5919 178.194 35.2318 177.849 34.9761C177.508 34.7162 177.088 34.5862 176.589 34.5862C176.074 34.5862 175.643 34.7204 175.298 34.9889C174.953 35.2574 174.693 35.626 174.518 36.0947C174.344 36.5592 174.256 37.0876 174.256 37.68C174.256 38.2808 174.344 38.8071 174.518 39.2588C174.697 39.7062 174.959 40.0557 175.305 40.3071C175.654 40.5542 176.082 40.6778 176.589 40.6778ZM185.864 36.8809V42.6338H183.55V32.8156H185.762V34.4839H185.877C186.103 33.9342 186.463 33.4974 186.957 33.1736C187.456 32.8497 188.072 32.6878 188.805 32.6878C189.482 32.6878 190.072 32.8327 190.575 33.1224C191.082 33.4122 191.474 33.8319 191.751 34.3817C192.032 34.9314 192.171 35.5983 192.167 36.3824V42.6338H189.853V36.7403C189.853 36.0841 189.682 35.5706 189.341 35.1998C189.005 34.8291 188.538 34.6437 187.942 34.6437C187.537 34.6437 187.177 34.7332 186.861 34.9122C186.55 35.0869 186.305 35.3405 186.126 35.6729C185.952 36.0052 185.864 36.4079 185.864 36.8809ZM198.866 42.8256C197.881 42.8256 197.031 42.621 196.315 42.2119C195.604 41.7986 195.056 41.2148 194.672 40.4605C194.289 39.702 194.097 38.8092 194.097 37.7822C194.097 36.7723 194.289 35.8859 194.672 35.1231C195.06 34.3561 195.601 33.7595 196.296 33.3334C196.991 32.903 197.807 32.6878 198.744 32.6878C199.349 32.6878 199.92 32.7858 200.457 32.9818C200.998 33.1736 201.476 33.4719 201.889 33.8767C202.307 34.2815 202.635 34.7971 202.873 35.4236C203.112 36.0457 203.231 36.7872 203.231 37.648V38.3575H195.184V36.7979H201.013C201.009 36.3547 200.913 35.9605 200.726 35.6153C200.538 35.2659 200.276 34.991 199.939 34.7907C199.607 34.5905 199.219 34.4903 198.776 34.4903C198.303 34.4903 197.888 34.6054 197.53 34.8355C197.172 35.0613 196.893 35.3596 196.692 35.7304C196.496 36.0969 196.396 36.4996 196.392 36.9385V38.3C196.392 38.871 196.496 39.3611 196.705 39.7702C196.914 40.175 197.206 40.4861 197.581 40.7034C197.956 40.9165 198.395 41.023 198.898 41.023C199.234 41.023 199.539 40.9761 199.812 40.8824C200.084 40.7844 200.321 40.6416 200.521 40.4541C200.721 40.2666 200.873 40.0344 200.975 39.7574L203.135 40.0003C202.999 40.5713 202.739 41.0699 202.356 41.496C201.976 41.9179 201.491 42.246 200.898 42.4804C200.306 42.7105 199.628 42.8256 198.866 42.8256ZM208.832 42.8064C208.061 42.8064 207.371 42.6082 206.761 42.2119C206.152 41.8156 205.67 41.2403 205.317 40.4861C204.963 39.7318 204.786 38.8156 204.786 37.7375C204.786 36.6466 204.965 35.7261 205.323 34.9761C205.685 34.2219 206.173 33.653 206.787 33.2694C207.401 32.8817 208.085 32.6878 208.839 32.6878C209.414 32.6878 209.887 32.7858 210.258 32.9818C210.629 33.1736 210.923 33.4058 211.14 33.6785C211.357 33.947 211.526 34.2006 211.645 34.4392H211.741V29.5429H214.061V42.6338H211.786V41.0869H211.645C211.526 41.3256 211.353 41.5791 211.127 41.8476C210.901 42.1118 210.603 42.3376 210.232 42.5251C209.862 42.7126 209.395 42.8064 208.832 42.8064ZM209.478 40.9079C209.968 40.9079 210.386 40.7758 210.731 40.5116C211.076 40.2432 211.338 39.8703 211.517 39.393C211.696 38.9157 211.786 38.3596 211.786 37.7247C211.786 37.0898 211.696 36.5379 211.517 36.0692C211.342 35.6004 211.082 35.2361 210.737 34.9761C210.396 34.7162 209.977 34.5862 209.478 34.5862C208.962 34.5862 208.532 34.7204 208.187 34.9889C207.842 35.2574 207.582 35.6281 207.407 36.1011C207.232 36.5741 207.145 37.1153 207.145 37.7247C207.145 38.3383 207.232 38.8859 207.407 39.3675C207.586 39.8447 207.848 40.2219 208.193 40.4988C208.543 40.7716 208.971 40.9079 209.478 40.9079Z" fill="white"/>
<path d="M32.918 75.3701H29.3271V63.7338H33.0771C34.2058 63.7338 35.1718 63.9667 35.9748 64.4326C36.7778 64.8947 37.3933 65.5595 37.8214 66.4269C38.2494 67.2906 38.4634 68.3247 38.4634 69.5292C38.4634 70.7413 38.2475 71.7849 37.8157 72.6599C37.3839 73.5311 36.7551 74.2016 35.9293 74.6713C35.1036 75.1372 34.0998 75.3701 32.918 75.3701ZM30.7362 74.1201H32.8271C33.7892 74.1201 34.5865 73.9345 35.2191 73.5633C35.8517 73.1921 36.3233 72.6637 36.6339 71.9781C36.9445 71.2925 37.0998 70.4762 37.0998 69.5292C37.0998 68.5898 36.9464 67.7811 36.6396 67.1031C36.3327 66.4213 35.8744 65.8985 35.2646 65.5349C34.6547 65.1675 33.8952 64.9838 32.9862 64.9838H30.7362V74.1201ZM44.3043 75.5519C43.4634 75.5519 42.738 75.3663 42.1282 74.9951C41.5221 74.6201 41.0543 74.0974 40.7248 73.4269C40.399 72.7527 40.2362 71.9686 40.2362 71.0747C40.2362 70.1807 40.399 69.3928 40.7248 68.711C41.0543 68.0254 41.5127 67.4913 42.0998 67.1088C42.6907 66.7224 43.3801 66.5292 44.168 66.5292C44.6225 66.5292 45.0714 66.605 45.5146 66.7565C45.9577 66.908 46.3612 67.1542 46.7248 67.4951C47.0884 67.8322 47.3782 68.2792 47.5941 68.836C47.81 69.3928 47.918 70.0785 47.918 70.8928V71.461H41.1907V70.3019H46.5543C46.5543 69.8095 46.4558 69.3701 46.2589 68.9838C46.0657 68.5974 45.7892 68.2925 45.4293 68.069C45.0733 67.8455 44.6528 67.7338 44.168 67.7338C43.6339 67.7338 43.1718 67.8663 42.7816 68.1315C42.3952 68.3928 42.0979 68.7338 41.8896 69.1542C41.6812 69.5747 41.5771 70.0254 41.5771 70.5065V71.2792C41.5771 71.9383 41.6907 72.497 41.918 72.9553C42.149 73.4099 42.4691 73.7565 42.8782 73.9951C43.2873 74.23 43.7627 74.3474 44.3043 74.3474C44.6566 74.3474 44.9748 74.2981 45.2589 74.1997C45.5468 74.0974 45.7949 73.9459 46.0032 73.7451C46.2115 73.5406 46.3725 73.2868 46.4862 72.9838L47.7816 73.3474C47.6452 73.7868 47.4161 74.1731 47.0941 74.5065C46.7721 74.836 46.3744 75.0936 45.9009 75.2792C45.4274 75.461 44.8952 75.5519 44.3043 75.5519ZM51.2987 63.7338V75.3701H49.9577V63.7338H51.2987ZM53.7546 75.3701V66.6428H55.0955V75.3701H53.7546ZM54.4364 65.1883C54.1751 65.1883 53.9497 65.0993 53.7603 64.9213C53.5747 64.7432 53.4819 64.5292 53.4819 64.2792C53.4819 64.0292 53.5747 63.8152 53.7603 63.6372C53.9497 63.4591 54.1751 63.3701 54.4364 63.3701C54.6978 63.3701 54.9213 63.4591 55.1069 63.6372C55.2963 63.8152 55.391 64.0292 55.391 64.2792C55.391 64.5292 55.2963 64.7432 55.1069 64.9213C54.9213 65.0993 54.6978 65.1883 54.4364 65.1883ZM64.6879 66.6428L61.4606 75.3701H60.0969L56.8697 66.6428H58.3242L60.7333 73.5974H60.8242L63.2333 66.6428H64.6879ZM69.8043 75.5519C68.9634 75.5519 68.238 75.3663 67.6282 74.9951C67.0221 74.6201 66.5543 74.0974 66.2248 73.4269C65.899 72.7527 65.7362 71.9686 65.7362 71.0747C65.7362 70.1807 65.899 69.3928 66.2248 68.711C66.5543 68.0254 67.0127 67.4913 67.5998 67.1088C68.1907 66.7224 68.8801 66.5292 69.668 66.5292C70.1225 66.5292 70.5714 66.605 71.0146 66.7565C71.4577 66.908 71.8612 67.1542 72.2248 67.4951C72.5884 67.8322 72.8782 68.2792 73.0941 68.836C73.31 69.3928 73.418 70.0785 73.418 70.8928V71.461H66.6907V70.3019H72.0543C72.0543 69.8095 71.9558 69.3701 71.7589 68.9838C71.5657 68.5974 71.2892 68.2925 70.9293 68.069C70.5733 67.8455 70.1528 67.7338 69.668 67.7338C69.1339 67.7338 68.6718 67.8663 68.2816 68.1315C67.8952 68.3928 67.5979 68.7338 67.3896 69.1542C67.1812 69.5747 67.0771 70.0254 67.0771 70.5065V71.2792C67.0771 71.9383 67.1907 72.497 67.418 72.9553C67.649 73.4099 67.9691 73.7565 68.3782 73.9951C68.7873 74.23 69.2627 74.3474 69.8043 74.3474C70.1566 74.3474 70.4748 74.2981 70.7589 74.1997C71.0468 74.0974 71.2949 73.9459 71.5032 73.7451C71.7115 73.5406 71.8725 73.2868 71.9862 72.9838L73.2816 73.3474C73.1452 73.7868 72.9161 74.1731 72.5941 74.5065C72.2721 74.836 71.8744 75.0936 71.4009 75.2792C70.9274 75.461 70.3952 75.5519 69.8043 75.5519ZM75.4577 75.3701V66.6428H76.7532V67.961H76.8441C77.0032 67.5292 77.2911 67.1788 77.7077 66.9099C78.1244 66.6409 78.5941 66.5065 79.1168 66.5065C79.2153 66.5065 79.3384 66.5084 79.4862 66.5122C79.6339 66.516 79.7456 66.5216 79.8214 66.5292V67.8928C79.7759 67.8815 79.6718 67.8644 79.5089 67.8417C79.3498 67.8152 79.1812 67.8019 79.0032 67.8019C78.579 67.8019 78.2002 67.891 77.8668 68.069C77.5373 68.2432 77.2759 68.4856 77.0827 68.7963C76.8933 69.1031 76.7987 69.4535 76.7987 69.8474V75.3701H75.4577ZM81.4109 75.3701V66.6428H82.7518V75.3701H81.4109ZM82.0927 65.1883C81.8313 65.1883 81.6059 65.0993 81.4165 64.9213C81.2309 64.7432 81.1381 64.5292 81.1381 64.2792C81.1381 64.0292 81.2309 63.8152 81.4165 63.6372C81.6059 63.4591 81.8313 63.3701 82.0927 63.3701C82.354 63.3701 82.5775 63.4591 82.7631 63.6372C82.9525 63.8152 83.0472 64.0292 83.0472 64.2792C83.0472 64.5292 82.9525 64.7432 82.7631 64.9213C82.5775 65.0993 82.354 65.1883 82.0927 65.1883ZM86.5487 70.1201V75.3701H85.2077V66.6428H86.5032V68.0065H86.6168C86.8214 67.5633 87.132 67.2072 87.5487 66.9383C87.9653 66.6656 88.5032 66.5292 89.1623 66.5292C89.7532 66.5292 90.2702 66.6504 90.7134 66.8928C91.1566 67.1315 91.5013 67.4951 91.7475 67.9838C91.9937 68.4686 92.1168 69.0822 92.1168 69.8247V75.3701H90.7759V69.9156C90.7759 69.23 90.5979 68.6959 90.2418 68.3133C89.8858 67.9269 89.3971 67.7338 88.7759 67.7338C88.3479 67.7338 87.9653 67.8266 87.6282 68.0122C87.2949 68.1978 87.0316 68.4686 86.8384 68.8247C86.6452 69.1807 86.5487 69.6125 86.5487 70.1201ZM98.0898 78.8247C97.4421 78.8247 96.8853 78.7413 96.4194 78.5747C95.9535 78.4118 95.5652 78.1959 95.2546 77.9269C94.9478 77.6618 94.7035 77.3777 94.5217 77.0747L95.5898 76.3247C95.7111 76.4838 95.8645 76.6656 96.0501 76.8701C96.2357 77.0785 96.4895 77.2584 96.8114 77.4099C97.1372 77.5652 97.5633 77.6428 98.0898 77.6428C98.7944 77.6428 99.3758 77.4724 99.8342 77.1315C100.292 76.7906 100.522 76.2565 100.522 75.5292V73.7565H100.408C100.31 73.9156 100.169 74.1125 99.9876 74.3474C99.8095 74.5785 99.552 74.7849 99.2148 74.9667C98.8815 75.1447 98.4308 75.2338 97.8626 75.2338C97.158 75.2338 96.5254 75.0671 95.9648 74.7338C95.408 74.4004 94.9667 73.9156 94.641 73.2792C94.319 72.6428 94.158 71.8701 94.158 70.961C94.158 70.0671 94.3152 69.2887 94.6296 68.6258C94.944 67.9591 95.3815 67.444 95.9421 67.0803C96.5027 66.7129 97.1504 66.5292 97.8853 66.5292C98.4535 66.5292 98.9042 66.6239 99.2376 66.8133C99.5747 66.9989 99.8323 67.211 100.01 67.4497C100.192 67.6845 100.332 67.8777 100.431 68.0292H100.567V66.6428H101.863V75.6201C101.863 76.3701 101.692 76.98 101.351 77.4497C101.014 77.9231 100.56 78.2697 99.9876 78.4894C99.4194 78.7129 98.7868 78.8247 98.0898 78.8247ZM98.0444 74.0292C98.5823 74.0292 99.0368 73.9061 99.408 73.6599C99.7792 73.4137 100.061 73.0595 100.255 72.5974C100.448 72.1353 100.544 71.5822 100.544 70.9383C100.544 70.3095 100.45 69.7546 100.26 69.2735C100.071 68.7925 99.7906 68.4156 99.4194 68.1428C99.0482 67.8701 98.5898 67.7338 98.0444 67.7338C97.4762 67.7338 97.0027 67.8777 96.6239 68.1656C96.2489 68.4535 95.9667 68.8398 95.7773 69.3247C95.5917 69.8095 95.4989 70.3474 95.4989 70.9383C95.4989 71.5444 95.5936 72.0803 95.783 72.5463C95.9762 73.0084 96.2603 73.372 96.6353 73.6372C97.0141 73.8985 97.4838 74.0292 98.0444 74.0292ZM112.113 75.5519C111.385 75.5519 110.743 75.3682 110.186 75.0008C109.63 74.6296 109.194 74.1069 108.88 73.4326C108.565 72.7546 108.408 71.9535 108.408 71.0292C108.408 70.1125 108.565 69.3171 108.88 68.6428C109.194 67.9686 109.632 67.4478 110.192 67.0803C110.753 66.7129 111.4 66.5292 112.135 66.5292C112.703 66.5292 113.152 66.6239 113.482 66.8133C113.815 66.9989 114.069 67.211 114.243 67.4497C114.421 67.6845 114.56 67.8777 114.658 68.0292H114.772V63.7338H116.113V75.3701H114.817V74.0292H114.658C114.56 74.1883 114.419 74.3891 114.238 74.6315C114.056 74.8701 113.796 75.0841 113.459 75.2735C113.122 75.4591 112.673 75.5519 112.113 75.5519ZM112.294 74.3474C112.832 74.3474 113.287 74.2072 113.658 73.9269C114.029 73.6428 114.311 73.2508 114.505 72.7508C114.698 72.247 114.794 71.6656 114.794 71.0065C114.794 70.355 114.7 69.7849 114.51 69.2963C114.321 68.8038 114.041 68.4213 113.669 68.1485C113.298 67.872 112.84 67.7338 112.294 67.7338C111.726 67.7338 111.253 67.8796 110.874 68.1713C110.499 68.4591 110.217 68.8512 110.027 69.3474C109.842 69.8398 109.749 70.3928 109.749 71.0065C109.749 71.6277 109.844 72.1921 110.033 72.6997C110.226 73.2035 110.51 73.605 110.885 73.9042C111.264 74.1997 111.734 74.3474 112.294 74.3474ZM122.414 75.5519C121.573 75.5519 120.847 75.3663 120.238 74.9951C119.632 74.6201 119.164 74.0974 118.834 73.4269C118.508 72.7527 118.346 71.9686 118.346 71.0747C118.346 70.1807 118.508 69.3928 118.834 68.711C119.164 68.0254 119.622 67.4913 120.209 67.1088C120.8 66.7224 121.489 66.5292 122.277 66.5292C122.732 66.5292 123.181 66.605 123.624 66.7565C124.067 66.908 124.471 67.1542 124.834 67.4951C125.198 67.8322 125.488 68.2792 125.703 68.836C125.919 69.3928 126.027 70.0785 126.027 70.8928V71.461H119.3V70.3019H124.664C124.664 69.8095 124.565 69.3701 124.368 68.9838C124.175 68.5974 123.899 68.2925 123.539 68.069C123.183 67.8455 122.762 67.7338 122.277 67.7338C121.743 67.7338 121.281 67.8663 120.891 68.1315C120.505 68.3928 120.207 68.7338 119.999 69.1542C119.791 69.5747 119.686 70.0254 119.686 70.5065V71.2792C119.686 71.9383 119.8 72.497 120.027 72.9553C120.258 73.4099 120.578 73.7565 120.988 73.9951C121.397 74.23 121.872 74.3474 122.414 74.3474C122.766 74.3474 123.084 74.2981 123.368 74.1997C123.656 74.0974 123.904 73.9459 124.113 73.7451C124.321 73.5406 124.482 73.2868 124.596 72.9838L125.891 73.3474C125.755 73.7868 125.525 74.1731 125.203 74.5065C124.882 74.836 124.484 75.0936 124.01 75.2792C123.537 75.461 123.005 75.5519 122.414 75.5519ZM134.249 68.5974L133.044 68.9383C132.969 68.7375 132.857 68.5425 132.709 68.3531C132.565 68.1599 132.368 68.0008 132.118 67.8758C131.868 67.7508 131.548 67.6883 131.158 67.6883C130.624 67.6883 130.179 67.8114 129.823 68.0576C129.471 68.3 129.294 68.6088 129.294 68.9838C129.294 69.3171 129.416 69.5803 129.658 69.7735C129.9 69.9667 130.279 70.1277 130.794 70.2565L132.09 70.5747C132.87 70.7641 133.452 71.0538 133.834 71.444C134.217 71.8303 134.408 72.3285 134.408 72.9383C134.408 73.4383 134.264 73.8853 133.976 74.2792C133.692 74.6731 133.294 74.9838 132.783 75.211C132.272 75.4383 131.677 75.5519 130.999 75.5519C130.109 75.5519 129.372 75.3588 128.789 74.9724C128.205 74.586 127.836 74.0216 127.681 73.2792L128.953 72.961C129.075 73.4307 129.304 73.783 129.641 74.0178C129.982 74.2527 130.427 74.3701 130.976 74.3701C131.601 74.3701 132.097 74.2375 132.465 73.9724C132.836 73.7035 133.022 73.3815 133.022 73.0065C133.022 72.7035 132.916 72.4497 132.703 72.2451C132.491 72.0368 132.166 71.8815 131.726 71.7792L130.272 71.4383C129.472 71.2489 128.885 70.9553 128.51 70.5576C128.139 70.1561 127.953 69.6542 127.953 69.0519C127.953 68.5595 128.092 68.1239 128.368 67.7451C128.649 67.3663 129.029 67.069 129.51 66.8531C129.995 66.6372 130.544 66.5292 131.158 66.5292C132.022 66.5292 132.7 66.7186 133.192 67.0974C133.688 67.4762 134.041 67.9762 134.249 68.5974ZM136.426 75.3701V66.6428H137.767V75.3701H136.426ZM137.108 65.1883C136.847 65.1883 136.622 65.0993 136.432 64.9213C136.247 64.7432 136.154 64.5292 136.154 64.2792C136.154 64.0292 136.247 63.8152 136.432 63.6372C136.622 63.4591 136.847 63.3701 137.108 63.3701C137.37 63.3701 137.593 63.4591 137.779 63.6372C137.968 63.8152 138.063 64.0292 138.063 64.2792C138.063 64.5292 137.968 64.7432 137.779 64.9213C137.593 65.0993 137.37 65.1883 137.108 65.1883ZM143.746 78.8247C143.098 78.8247 142.542 78.7413 142.076 78.5747C141.61 78.4118 141.221 78.1959 140.911 77.9269C140.604 77.6618 140.36 77.3777 140.178 77.0747L141.246 76.3247C141.367 76.4838 141.521 76.6656 141.706 76.8701C141.892 77.0785 142.146 77.2584 142.468 77.4099C142.793 77.5652 143.22 77.6428 143.746 77.6428C144.451 77.6428 145.032 77.4724 145.49 77.1315C145.949 76.7906 146.178 76.2565 146.178 75.5292V73.7565H146.064C145.966 73.9156 145.826 74.1125 145.644 74.3474C145.466 74.5785 145.208 74.7849 144.871 74.9667C144.538 75.1447 144.087 75.2338 143.519 75.2338C142.814 75.2338 142.182 75.0671 141.621 74.7338C141.064 74.4004 140.623 73.9156 140.297 73.2792C139.975 72.6428 139.814 71.8701 139.814 70.961C139.814 70.0671 139.971 69.2887 140.286 68.6258C140.6 67.9591 141.038 67.444 141.598 67.0803C142.159 66.7129 142.807 66.5292 143.542 66.5292C144.11 66.5292 144.56 66.6239 144.894 66.8133C145.231 66.9989 145.489 67.211 145.667 67.4497C145.848 67.6845 145.989 67.8777 146.087 68.0292H146.223V66.6428H147.519V75.6201C147.519 76.3701 147.348 76.98 147.007 77.4497C146.67 77.9231 146.216 78.2697 145.644 78.4894C145.076 78.7129 144.443 78.8247 143.746 78.8247ZM143.701 74.0292C144.239 74.0292 144.693 73.9061 145.064 73.6599C145.435 73.4137 145.718 73.0595 145.911 72.5974C146.104 72.1353 146.201 71.5822 146.201 70.9383C146.201 70.3095 146.106 69.7546 145.917 69.2735C145.727 68.7925 145.447 68.4156 145.076 68.1428C144.704 67.8701 144.246 67.7338 143.701 67.7338C143.132 67.7338 142.659 67.8777 142.28 68.1656C141.905 68.4535 141.623 68.8398 141.434 69.3247C141.248 69.8095 141.155 70.3474 141.155 70.9383C141.155 71.5444 141.25 72.0803 141.439 72.5463C141.632 73.0084 141.917 73.372 142.292 73.6372C142.67 73.8985 143.14 74.0292 143.701 74.0292ZM151.314 70.1201V75.3701H149.973V66.6428H151.269V68.0065H151.382C151.587 67.5633 151.898 67.2072 152.314 66.9383C152.731 66.6656 153.269 66.5292 153.928 66.5292C154.519 66.5292 155.036 66.6504 155.479 66.8928C155.922 67.1315 156.267 67.4951 156.513 67.9838C156.759 68.4686 156.882 69.0822 156.882 69.8247V75.3701H155.542V69.9156C155.542 69.23 155.364 68.6959 155.007 68.3133C154.651 67.9269 154.163 67.7338 153.542 67.7338C153.114 67.7338 152.731 67.8266 152.394 68.0122C152.06 68.1978 151.797 68.4686 151.604 68.8247C151.411 69.1807 151.314 69.6125 151.314 70.1201ZM167.628 66.6428V67.7792H163.105V66.6428H167.628ZM164.424 64.5519H165.765V72.8701C165.765 73.2489 165.819 73.533 165.929 73.7224C166.043 73.908 166.187 74.033 166.361 74.0974C166.539 74.158 166.727 74.1883 166.924 74.1883C167.071 74.1883 167.193 74.1807 167.287 74.1656C167.382 74.1466 167.458 74.1315 167.515 74.1201L167.787 75.3247C167.696 75.3588 167.569 75.3928 167.407 75.4269C167.244 75.4648 167.037 75.4838 166.787 75.4838C166.408 75.4838 166.037 75.4023 165.674 75.2394C165.314 75.0766 165.015 74.8285 164.776 74.4951C164.541 74.1618 164.424 73.7413 164.424 73.2338V64.5519ZM171.174 70.1201V75.3701H169.833V63.7338H171.174V68.0065H171.287C171.492 67.5557 171.799 67.1978 172.208 66.9326C172.621 66.6637 173.17 66.5292 173.855 66.5292C174.45 66.5292 174.971 66.6485 175.418 66.8872C175.865 67.122 176.212 67.4838 176.458 67.9724C176.708 68.4572 176.833 69.0747 176.833 69.8247V75.3701H175.492V69.9156C175.492 69.2224 175.312 68.6864 174.952 68.3076C174.596 67.925 174.102 67.7338 173.469 67.7338C173.03 67.7338 172.636 67.8266 172.287 68.0122C171.943 68.1978 171.67 68.4686 171.469 68.8247C171.272 69.1807 171.174 69.6125 171.174 70.1201ZM181.854 75.5747C181.301 75.5747 180.799 75.4705 180.348 75.2622C179.898 75.05 179.54 74.7451 179.275 74.3474C179.009 73.9459 178.877 73.461 178.877 72.8928C178.877 72.3928 178.975 71.9875 179.172 71.6769C179.369 71.3625 179.632 71.1163 179.962 70.9383C180.292 70.7603 180.655 70.6277 181.053 70.5406C181.454 70.4497 181.858 70.3777 182.263 70.3247C182.793 70.2565 183.223 70.2053 183.553 70.1713C183.886 70.1334 184.129 70.0709 184.28 69.9838C184.435 69.8966 184.513 69.7451 184.513 69.5292V69.4838C184.513 68.9231 184.36 68.4875 184.053 68.1769C183.75 67.8663 183.29 67.711 182.672 67.711C182.032 67.711 181.53 67.8512 181.167 68.1315C180.803 68.4118 180.547 68.711 180.4 69.0292L179.127 68.5747C179.354 68.0444 179.657 67.6315 180.036 67.336C180.418 67.0368 180.835 66.8285 181.286 66.711C181.74 66.5898 182.187 66.5292 182.627 66.5292C182.907 66.5292 183.229 66.5633 183.593 66.6315C183.96 66.6959 184.314 66.8303 184.655 67.0349C185 67.2394 185.286 67.5481 185.513 67.961C185.74 68.3739 185.854 68.9269 185.854 69.6201V75.3701H184.513V74.1883H184.445C184.354 74.3777 184.203 74.5803 183.99 74.7963C183.778 75.0122 183.496 75.1959 183.144 75.3474C182.792 75.4989 182.362 75.5747 181.854 75.5747ZM182.059 74.3701C182.589 74.3701 183.036 74.266 183.4 74.0576C183.767 73.8493 184.043 73.5803 184.229 73.2508C184.418 72.9213 184.513 72.5747 184.513 72.211V70.9838C184.456 71.0519 184.331 71.1144 184.138 71.1713C183.949 71.2243 183.729 71.2716 183.479 71.3133C183.233 71.3512 182.992 71.3853 182.757 71.4156C182.526 71.4421 182.339 71.4648 182.195 71.4838C181.846 71.5292 181.521 71.6031 181.218 71.7053C180.918 71.8038 180.676 71.9535 180.49 72.1542C180.309 72.3512 180.218 72.6201 180.218 72.961C180.218 73.4269 180.39 73.7792 180.735 74.0178C181.083 74.2527 181.525 74.3701 182.059 74.3701ZM192.097 66.6428V67.7792H187.574V66.6428H192.097ZM188.892 64.5519H190.233V72.8701C190.233 73.2489 190.288 73.533 190.398 73.7224C190.512 73.908 190.656 74.033 190.83 74.0974C191.008 74.158 191.195 74.1883 191.392 74.1883C191.54 74.1883 191.661 74.1807 191.756 74.1656C191.851 74.1466 191.926 74.1315 191.983 74.1201L192.256 75.3247C192.165 75.3588 192.038 75.3928 191.875 75.4269C191.712 75.4648 191.506 75.4838 191.256 75.4838C190.877 75.4838 190.506 75.4023 190.142 75.2394C189.783 75.0766 189.483 74.8285 189.245 74.4951C189.01 74.1618 188.892 73.7413 188.892 73.2338V64.5519ZM201.909 75.5519C201.182 75.5519 200.54 75.3682 199.983 75.0008C199.426 74.6296 198.991 74.1069 198.676 73.4326C198.362 72.7546 198.205 71.9535 198.205 71.0292C198.205 70.1125 198.362 69.3171 198.676 68.6428C198.991 67.9686 199.428 67.4478 199.989 67.0803C200.55 66.7129 201.197 66.5292 201.932 66.5292C202.5 66.5292 202.949 66.6239 203.279 66.8133C203.612 66.9989 203.866 67.211 204.04 67.4497C204.218 67.6845 204.356 67.8777 204.455 68.0292H204.569V63.7338H205.909V75.3701H204.614V74.0292H204.455C204.356 74.1883 204.216 74.3891 204.034 74.6315C203.853 74.8701 203.593 75.0841 203.256 75.2735C202.919 75.4591 202.47 75.5519 201.909 75.5519ZM202.091 74.3474C202.629 74.3474 203.084 74.2072 203.455 73.9269C203.826 73.6428 204.108 73.2508 204.301 72.7508C204.495 72.247 204.591 71.6656 204.591 71.0065C204.591 70.355 204.497 69.7849 204.307 69.2963C204.118 68.8038 203.837 68.4213 203.466 68.1485C203.095 67.872 202.637 67.7338 202.091 67.7338C201.523 67.7338 201.05 67.8796 200.671 68.1713C200.296 68.4591 200.014 68.8512 199.824 69.3474C199.639 69.8398 199.546 70.3928 199.546 71.0065C199.546 71.6277 199.641 72.1921 199.83 72.6997C200.023 73.2035 200.307 73.605 200.682 73.9042C201.061 74.1997 201.531 74.3474 202.091 74.3474ZM208.551 75.3701V66.6428H209.847V67.961H209.938C210.097 67.5292 210.385 67.1788 210.801 66.9099C211.218 66.6409 211.688 66.5065 212.211 66.5065C212.309 66.5065 212.432 66.5084 212.58 66.5122C212.728 66.516 212.839 66.5216 212.915 66.5292V67.8928C212.87 67.8815 212.766 67.8644 212.603 67.8417C212.444 67.8152 212.275 67.8019 212.097 67.8019C211.673 67.8019 211.294 67.891 210.961 68.069C210.631 68.2432 210.37 68.4856 210.176 68.7963C209.987 69.1031 209.892 69.4535 209.892 69.8474V75.3701H208.551ZM214.505 75.3701V66.6428H215.846V75.3701H214.505ZM215.186 65.1883C214.925 65.1883 214.7 65.0993 214.51 64.9213C214.325 64.7432 214.232 64.5292 214.232 64.2792C214.232 64.0292 214.325 63.8152 214.51 63.6372C214.7 63.4591 214.925 63.3701 215.186 63.3701C215.448 63.3701 215.671 63.4591 215.857 63.6372C216.046 63.8152 216.141 64.0292 216.141 64.2792C216.141 64.5292 216.046 64.7432 215.857 64.9213C215.671 65.0993 215.448 65.1883 215.186 65.1883ZM225.438 66.6428L222.211 75.3701H220.847L217.62 66.6428H219.074L221.483 73.5974H221.574L223.983 66.6428H225.438ZM230.554 75.5519C229.713 75.5519 228.988 75.3663 228.378 74.9951C227.772 74.6201 227.304 74.0974 226.975 73.4269C226.649 72.7527 226.486 71.9686 226.486 71.0747C226.486 70.1807 226.649 69.3928 226.975 68.711C227.304 68.0254 227.763 67.4913 228.35 67.1088C228.941 66.7224 229.63 66.5292 230.418 66.5292C230.873 66.5292 231.321 66.605 231.765 66.7565C232.208 66.908 232.611 67.1542 232.975 67.4951C233.338 67.8322 233.628 68.2792 233.844 68.836C234.06 69.3928 234.168 70.0785 234.168 70.8928V71.461H227.441V70.3019H232.804C232.804 69.8095 232.706 69.3701 232.509 68.9838C232.316 68.5974 232.039 68.2925 231.679 68.069C231.323 67.8455 230.903 67.7338 230.418 67.7338C229.884 67.7338 229.422 67.8663 229.032 68.1315C228.645 68.3928 228.348 68.7338 228.14 69.1542C227.931 69.5747 227.827 70.0254 227.827 70.5065V71.2792C227.827 71.9383 227.941 72.497 228.168 72.9553C228.399 73.4099 228.719 73.7565 229.128 73.9951C229.537 74.23 230.013 74.3474 230.554 74.3474C230.907 74.3474 231.225 74.2981 231.509 74.1997C231.797 74.0974 232.045 73.9459 232.253 73.7451C232.462 73.5406 232.623 73.2868 232.736 72.9838L234.032 73.3474C233.895 73.7868 233.666 74.1731 233.344 74.5065C233.022 74.836 232.624 75.0936 232.151 75.2792C231.677 75.461 231.145 75.5519 230.554 75.5519ZM242.39 68.5974L241.185 68.9383C241.109 68.7375 240.998 68.5425 240.85 68.3531C240.706 68.1599 240.509 68.0008 240.259 67.8758C240.009 67.7508 239.689 67.6883 239.299 67.6883C238.765 67.6883 238.319 67.8114 237.963 68.0576C237.611 68.3 237.435 68.6088 237.435 68.9838C237.435 69.3171 237.556 69.5803 237.799 69.7735C238.041 69.9667 238.42 70.1277 238.935 70.2565L240.23 70.5747C241.011 70.7641 241.592 71.0538 241.975 71.444C242.357 71.8303 242.549 72.3285 242.549 72.9383C242.549 73.4383 242.405 73.8853 242.117 74.2792C241.833 74.6731 241.435 74.9838 240.924 75.211C240.412 75.4383 239.818 75.5519 239.14 75.5519C238.249 75.5519 237.513 75.3588 236.929 74.9724C236.346 74.586 235.977 74.0216 235.821 73.2792L237.094 72.961C237.215 73.4307 237.444 73.783 237.782 74.0178C238.123 74.2527 238.568 74.3701 239.117 74.3701C239.742 74.3701 240.238 74.2375 240.605 73.9724C240.977 73.7035 241.162 73.3815 241.162 73.0065C241.162 72.7035 241.056 72.4497 240.844 72.2451C240.632 72.0368 240.306 71.8815 239.867 71.7792L238.412 71.4383C237.613 71.2489 237.026 70.9553 236.651 70.5576C236.28 70.1561 236.094 69.6542 236.094 69.0519C236.094 68.5595 236.232 68.1239 236.509 67.7451C236.789 67.3663 237.17 67.069 237.651 66.8531C238.136 66.6372 238.685 66.5292 239.299 66.5292C240.162 66.5292 240.84 66.7186 241.333 67.0974C241.829 67.4762 242.181 67.9762 242.39 68.5974ZM29.1452 99.3701V90.6428H30.4407V92.0065H30.5543C30.7362 91.5406 31.0297 91.1788 31.435 90.9213C31.8403 90.6599 32.3271 90.5292 32.8952 90.5292C33.471 90.5292 33.9502 90.6599 34.3327 90.9213C34.7191 91.1788 35.0202 91.5406 35.2362 92.0065H35.3271C35.5505 91.5557 35.8858 91.1978 36.3327 90.9326C36.7797 90.6637 37.3157 90.5292 37.9407 90.5292C38.721 90.5292 39.3593 90.7735 39.8555 91.2622C40.3517 91.747 40.5998 92.5027 40.5998 93.5292V99.3701H39.2589V93.5292C39.2589 92.8853 39.0827 92.425 38.7305 92.1485C38.3782 91.872 37.9634 91.7338 37.4862 91.7338C36.8725 91.7338 36.3971 91.9194 36.06 92.2906C35.7229 92.658 35.5543 93.1239 35.5543 93.6883V99.3701H34.1907V93.3928C34.1907 92.8966 34.0297 92.497 33.7077 92.194C33.3858 91.8872 32.971 91.7338 32.4634 91.7338C32.1149 91.7338 31.7892 91.8266 31.4862 92.0122C31.1869 92.1978 30.9445 92.4553 30.7589 92.7849C30.5771 93.1106 30.4862 93.4875 30.4862 93.9156V99.3701H29.1452ZM46.7106 99.5519C45.8697 99.5519 45.1443 99.3663 44.5344 98.9951C43.9284 98.6201 43.4606 98.0974 43.131 97.4269C42.8053 96.7527 42.6424 95.9686 42.6424 95.0747C42.6424 94.1807 42.8053 93.3928 43.131 92.711C43.4606 92.0254 43.9189 91.4913 44.506 91.1088C45.0969 90.7224 45.7863 90.5292 46.5742 90.5292C47.0288 90.5292 47.4776 90.605 47.9208 90.7565C48.364 90.908 48.7674 91.1542 49.131 91.4951C49.4947 91.8322 49.7844 92.2792 50.0004 92.836C50.2163 93.3928 50.3242 94.0785 50.3242 94.8928V95.461H43.5969V94.3019H48.9606C48.9606 93.8095 48.8621 93.3701 48.6651 92.9838C48.4719 92.5974 48.1954 92.2925 47.8356 92.069C47.4795 91.8455 47.0591 91.7338 46.5742 91.7338C46.0401 91.7338 45.578 91.8663 45.1879 92.1315C44.8015 92.3928 44.5041 92.7338 44.2958 93.1542C44.0875 93.5747 43.9833 94.0254 43.9833 94.5065V95.2792C43.9833 95.9383 44.0969 96.497 44.3242 96.9553C44.5553 97.4099 44.8754 97.7565 45.2844 97.9951C45.6935 98.23 46.1689 98.3474 46.7106 98.3474C47.0629 98.3474 47.381 98.2981 47.6651 98.1997C47.953 98.0974 48.2011 97.9459 48.4094 97.7451C48.6178 97.5406 48.7788 97.2868 48.8924 96.9838L50.1879 97.3474C50.0515 97.7868 49.8223 98.1731 49.5004 98.5065C49.1784 98.836 48.7807 99.0936 48.3072 99.2792C47.8337 99.461 47.3015 99.5519 46.7106 99.5519ZM54.9322 99.5747C54.3791 99.5747 53.8772 99.4705 53.4265 99.2622C52.9757 99.05 52.6178 98.7451 52.3526 98.3474C52.0875 97.9459 51.9549 97.461 51.9549 96.8928C51.9549 96.3928 52.0534 95.9875 52.2504 95.6769C52.4473 95.3625 52.7106 95.1163 53.0401 94.9383C53.3697 94.7603 53.7333 94.6277 54.131 94.5406C54.5326 94.4497 54.936 94.3777 55.3413 94.3247C55.8716 94.2565 56.3015 94.2053 56.631 94.1713C56.9644 94.1334 57.2068 94.0709 57.3583 93.9838C57.5136 93.8966 57.5913 93.7451 57.5913 93.5292V93.4838C57.5913 92.9231 57.4379 92.4875 57.131 92.1769C56.828 91.8663 56.3678 91.711 55.7504 91.711C55.1102 91.711 54.6083 91.8512 54.2447 92.1315C53.881 92.4118 53.6254 92.711 53.4776 93.0292L52.2049 92.5747C52.4322 92.0444 52.7352 91.6315 53.114 91.336C53.4966 91.0368 53.9132 90.8285 54.364 90.711C54.8185 90.5898 55.2655 90.5292 55.7049 90.5292C55.9852 90.5292 56.3072 90.5633 56.6708 90.6315C57.0382 90.6959 57.3924 90.8303 57.7333 91.0349C58.078 91.2394 58.364 91.5481 58.5913 91.961C58.8185 92.3739 58.9322 92.9269 58.9322 93.6201V99.3701H57.5913V98.1883H57.5231C57.4322 98.3777 57.2807 98.5803 57.0685 98.7963C56.8564 99.0122 56.5742 99.1959 56.2219 99.3474C55.8697 99.4989 55.4397 99.5747 54.9322 99.5747ZM55.1367 98.3701C55.667 98.3701 56.114 98.266 56.4776 98.0576C56.8451 97.8493 57.1216 97.5803 57.3072 97.2508C57.4966 96.9213 57.5913 96.5747 57.5913 96.211V94.9838C57.5344 95.0519 57.4094 95.1144 57.2163 95.1713C57.0269 95.2243 56.8072 95.2716 56.5572 95.3133C56.311 95.3512 56.0704 95.3853 55.8356 95.4156C55.6045 95.4421 55.417 95.4648 55.2731 95.4838C54.9246 95.5292 54.5988 95.6031 54.2958 95.7053C53.9966 95.8038 53.7541 95.9535 53.5685 96.1542C53.3867 96.3512 53.2958 96.6201 53.2958 96.961C53.2958 97.4269 53.4682 97.7792 53.8129 98.0178C54.1613 98.2527 54.6026 98.3701 55.1367 98.3701ZM67.5614 92.5974L66.3569 92.9383C66.2811 92.7375 66.1694 92.5425 66.0217 92.3531C65.8777 92.1599 65.6808 92.0008 65.4308 91.8758C65.1808 91.7508 64.8607 91.6883 64.4705 91.6883C63.9364 91.6883 63.4914 91.8114 63.1353 92.0576C62.783 92.3 62.6069 92.6088 62.6069 92.9838C62.6069 93.3171 62.7281 93.5803 62.9705 93.7735C63.2129 93.9667 63.5917 94.1277 64.1069 94.2565L65.4023 94.5747C66.1826 94.7641 66.7641 95.0538 67.1467 95.444C67.5292 95.8303 67.7205 96.3285 67.7205 96.9383C67.7205 97.4383 67.5766 97.8853 67.2887 98.2792C67.0046 98.6731 66.6069 98.9838 66.0955 99.211C65.5842 99.4383 64.9895 99.5519 64.3114 99.5519C63.4213 99.5519 62.6845 99.3588 62.1012 98.9724C61.5179 98.586 61.1486 98.0216 60.9933 97.2792L62.266 96.961C62.3872 97.4307 62.6164 97.783 62.9535 98.0178C63.2944 98.2527 63.7395 98.3701 64.2887 98.3701C64.9137 98.3701 65.4099 98.2375 65.7773 97.9724C66.1486 97.7035 66.3342 97.3815 66.3342 97.0065C66.3342 96.7035 66.2281 96.4497 66.016 96.2451C65.8039 96.0368 65.4781 95.8815 65.0387 95.7792L63.5842 95.4383C62.7849 95.2489 62.1978 94.9553 61.8228 94.5576C61.4516 94.1561 61.266 93.6542 61.266 93.0519C61.266 92.5595 61.4042 92.1239 61.6808 91.7451C61.9611 91.3663 62.3417 91.069 62.8228 90.8531C63.3076 90.6372 63.8569 90.5292 64.4705 90.5292C65.3342 90.5292 66.0122 90.7186 66.5046 91.0974C67.0008 91.4762 67.3531 91.9762 67.5614 92.5974ZM75.239 95.8019V90.6428H76.5799V99.3701H75.239V97.8928H75.1481C74.9435 98.336 74.6254 98.7129 74.1935 99.0235C73.7617 99.3303 73.2163 99.4838 72.5572 99.4838C72.0117 99.4838 71.5269 99.3644 71.1026 99.1258C70.6784 98.8834 70.3451 98.5197 70.1026 98.0349C69.8602 97.5463 69.739 96.9307 69.739 96.1883V90.6428H71.0799V96.0974C71.0799 96.7338 71.2579 97.2413 71.614 97.6201C71.9738 97.9989 72.4322 98.1883 72.989 98.1883C73.3223 98.1883 73.6613 98.1031 74.006 97.9326C74.3545 97.7622 74.6462 97.5008 74.881 97.1485C75.1197 96.7963 75.239 96.3474 75.239 95.8019ZM79.0359 99.3701V90.6428H80.3313V91.961H80.4222C80.5813 91.5292 80.8692 91.1788 81.2859 90.9099C81.7025 90.6409 82.1722 90.5065 82.695 90.5065C82.7934 90.5065 82.9165 90.5084 83.0643 90.5122C83.212 90.516 83.3237 90.5216 83.3995 90.5292V91.8928C83.354 91.8815 83.2499 91.8644 83.087 91.8417C82.9279 91.8152 82.7594 91.8019 82.5813 91.8019C82.1571 91.8019 81.7783 91.891 81.445 92.069C81.1154 92.2432 80.854 92.4856 80.6609 92.7963C80.4715 93.1031 80.3768 93.4535 80.3768 93.8474V99.3701H79.0359ZM87.5572 99.5747C87.0041 99.5747 86.5022 99.4705 86.0515 99.2622C85.6007 99.05 85.2428 98.7451 84.9776 98.3474C84.7125 97.9459 84.5799 97.461 84.5799 96.8928C84.5799 96.3928 84.6784 95.9875 84.8754 95.6769C85.0723 95.3625 85.3356 95.1163 85.6651 94.9383C85.9947 94.7603 86.3583 94.6277 86.756 94.5406C87.1576 94.4497 87.561 94.3777 87.9663 94.3247C88.4966 94.2565 88.9265 94.2053 89.256 94.1713C89.5894 94.1334 89.8318 94.0709 89.9833 93.9838C90.1386 93.8966 90.2163 93.7451 90.2163 93.5292V93.4838C90.2163 92.9231 90.0629 92.4875 89.756 92.1769C89.453 91.8663 88.9928 91.711 88.3754 91.711C87.7352 91.711 87.2333 91.8512 86.8697 92.1315C86.506 92.4118 86.2504 92.711 86.1026 93.0292L84.8299 92.5747C85.0572 92.0444 85.3602 91.6315 85.739 91.336C86.1216 91.0368 86.5382 90.8285 86.989 90.711C87.4435 90.5898 87.8905 90.5292 88.3299 90.5292C88.6102 90.5292 88.9322 90.5633 89.2958 90.6315C89.6632 90.6959 90.0174 90.8303 90.3583 91.0349C90.703 91.2394 90.989 91.5481 91.2163 91.961C91.4435 92.3739 91.5572 92.9269 91.5572 93.6201V99.3701H90.2163V98.1883H90.1481C90.0572 98.3777 89.9057 98.5803 89.6935 98.7963C89.4814 99.0122 89.1992 99.1959 88.8469 99.3474C88.4947 99.4989 88.0647 99.5747 87.5572 99.5747ZM87.7617 98.3701C88.292 98.3701 88.739 98.266 89.1026 98.0576C89.4701 97.8493 89.7466 97.5803 89.9322 97.2508C90.1216 96.9213 90.2163 96.5747 90.2163 96.211V94.9838C90.1594 95.0519 90.0344 95.1144 89.8413 95.1713C89.6519 95.2243 89.4322 95.2716 89.1822 95.3133C88.936 95.3512 88.6954 95.3853 88.4606 95.4156C88.2295 95.4421 88.042 95.4648 87.8981 95.4838C87.5496 95.5292 87.2238 95.6031 86.9208 95.7053C86.6216 95.8038 86.3791 95.9535 86.1935 96.1542C86.0117 96.3512 85.9208 96.6201 85.9208 96.961C85.9208 97.4269 86.0932 97.7792 86.4379 98.0178C86.7863 98.2527 87.2276 98.3701 87.7617 98.3701ZM94.1864 99.3701V87.7338H95.5273V92.0292H95.641C95.7395 91.8777 95.8758 91.6845 96.0501 91.4497C96.2281 91.211 96.4819 90.9989 96.8114 90.8133C97.1448 90.6239 97.5955 90.5292 98.1637 90.5292C98.8986 90.5292 99.5463 90.7129 100.107 91.0803C100.667 91.4478 101.105 91.9686 101.419 92.6428C101.734 93.3171 101.891 94.1125 101.891 95.0292C101.891 95.9535 101.734 96.7546 101.419 97.4326C101.105 98.1069 100.669 98.6296 100.113 99.0008C99.5558 99.3682 98.9137 99.5519 98.1864 99.5519C97.6258 99.5519 97.177 99.4591 96.8398 99.2735C96.5027 99.0841 96.2433 98.8701 96.0614 98.6315C95.8796 98.3891 95.7395 98.1883 95.641 98.0292H95.4819V99.3701H94.1864ZM95.5046 95.0065C95.5046 95.6656 95.6012 96.247 95.7944 96.7508C95.9876 97.2508 96.2698 97.6428 96.641 97.9269C97.0122 98.2072 97.4667 98.3474 98.0046 98.3474C98.5652 98.3474 99.033 98.1997 99.408 97.9042C99.7868 97.605 100.071 97.2035 100.26 96.6997C100.453 96.1921 100.55 95.6277 100.55 95.0065C100.55 94.3928 100.455 93.8398 100.266 93.3474C100.08 92.8512 99.7982 92.4591 99.4194 92.1713C99.0444 91.8796 98.5728 91.7338 98.0046 91.7338C97.4592 91.7338 97.0008 91.872 96.6296 92.1485C96.2584 92.4213 95.9781 92.8038 95.7887 93.2963C95.5993 93.7849 95.5046 94.355 95.5046 95.0065ZM105.283 87.7338V99.3701H103.942V87.7338H105.283ZM111.398 99.5519C110.557 99.5519 109.832 99.3663 109.222 98.9951C108.616 98.6201 108.148 98.0974 107.819 97.4269C107.493 96.7527 107.33 95.9686 107.33 95.0747C107.33 94.1807 107.493 93.3928 107.819 92.711C108.148 92.0254 108.606 91.4913 109.194 91.1088C109.784 90.7224 110.474 90.5292 111.262 90.5292C111.716 90.5292 112.165 90.605 112.608 90.7565C113.051 90.908 113.455 91.1542 113.819 91.4951C114.182 91.8322 114.472 92.2792 114.688 92.836C114.904 93.3928 115.012 94.0785 115.012 94.8928V95.461H108.284V94.3019H113.648C113.648 93.8095 113.55 93.3701 113.353 92.9838C113.159 92.5974 112.883 92.2925 112.523 92.069C112.167 91.8455 111.747 91.7338 111.262 91.7338C110.728 91.7338 110.266 91.8663 109.875 92.1315C109.489 92.3928 109.192 92.7338 108.983 93.1542C108.775 93.5747 108.671 94.0254 108.671 94.5065V95.2792C108.671 95.9383 108.784 96.497 109.012 96.9553C109.243 97.4099 109.563 97.7565 109.972 97.9951C110.381 98.23 110.856 98.3474 111.398 98.3474C111.75 98.3474 112.069 98.2981 112.353 98.1997C112.641 98.0974 112.889 97.9459 113.097 97.7451C113.305 97.5406 113.466 97.2868 113.58 96.9838L114.875 97.3474C114.739 97.7868 114.51 98.1731 114.188 98.5065C113.866 98.836 113.468 99.0936 112.995 99.2792C112.521 99.461 111.989 99.5519 111.398 99.5519ZM125.074 102.825C124.426 102.825 123.87 102.741 123.404 102.575C122.938 102.412 122.55 102.196 122.239 101.927C121.932 101.662 121.688 101.378 121.506 101.075L122.574 100.325C122.695 100.484 122.849 100.666 123.034 100.87C123.22 101.078 123.474 101.258 123.796 101.41C124.122 101.565 124.548 101.643 125.074 101.643C125.779 101.643 126.36 101.472 126.819 101.131C127.277 100.791 127.506 100.256 127.506 99.5292V97.7565H127.392C127.294 97.9156 127.154 98.1125 126.972 98.3474C126.794 98.5785 126.536 98.7849 126.199 98.9667C125.866 99.1447 125.415 99.2338 124.847 99.2338C124.142 99.2338 123.51 99.0671 122.949 98.7338C122.392 98.4004 121.951 97.9156 121.625 97.2792C121.303 96.6428 121.142 95.8701 121.142 94.961C121.142 94.0671 121.3 93.2887 121.614 92.6258C121.928 91.9591 122.366 91.444 122.926 91.0803C123.487 90.7129 124.135 90.5292 124.87 90.5292C125.438 90.5292 125.889 90.6239 126.222 90.8133C126.559 90.9989 126.817 91.211 126.995 91.4497C127.176 91.6845 127.317 91.8777 127.415 92.0292H127.551V90.6428H128.847V99.6201C128.847 100.37 128.676 100.98 128.336 101.45C127.998 101.923 127.544 102.27 126.972 102.489C126.404 102.713 125.771 102.825 125.074 102.825ZM125.029 98.0292C125.567 98.0292 126.021 97.9061 126.392 97.6599C126.764 97.4137 127.046 97.0595 127.239 96.5974C127.432 96.1353 127.529 95.5822 127.529 94.9383C127.529 94.3095 127.434 93.7546 127.245 93.2735C127.055 92.7925 126.775 92.4156 126.404 92.1428C126.033 91.8701 125.574 91.7338 125.029 91.7338C124.461 91.7338 123.987 91.8777 123.608 92.1656C123.233 92.4535 122.951 92.8398 122.762 93.3247C122.576 93.8095 122.483 94.3474 122.483 94.9383C122.483 95.5444 122.578 96.0803 122.767 96.5463C122.961 97.0084 123.245 97.372 123.62 97.6372C123.998 97.8985 124.468 98.0292 125.029 98.0292ZM131.301 99.3701V90.6428H132.597V91.961H132.688C132.847 91.5292 133.135 91.1788 133.551 90.9099C133.968 90.6409 134.438 90.5065 134.961 90.5065C135.059 90.5065 135.182 90.5084 135.33 90.5122C135.478 90.516 135.589 90.5216 135.665 90.5292V91.8928C135.62 91.8815 135.516 91.8644 135.353 91.8417C135.194 91.8152 135.025 91.8019 134.847 91.8019C134.423 91.8019 134.044 91.891 133.711 92.069C133.381 92.2432 133.12 92.4856 132.926 92.7963C132.737 93.1031 132.642 93.4535 132.642 93.8474V99.3701H131.301ZM140.534 99.5519C139.747 99.5519 139.055 99.3644 138.461 98.9894C137.87 98.6144 137.408 98.0898 137.074 97.4156C136.745 96.7413 136.58 95.9535 136.58 95.0519C136.58 94.1428 136.745 93.3493 137.074 92.6713C137.408 91.9932 137.87 91.4667 138.461 91.0917C139.055 90.7167 139.747 90.5292 140.534 90.5292C141.322 90.5292 142.012 90.7167 142.603 91.0917C143.197 91.4667 143.659 91.9932 143.989 92.6713C144.322 93.3493 144.489 94.1428 144.489 95.0519C144.489 95.9535 144.322 96.7413 143.989 97.4156C143.659 98.0898 143.197 98.6144 142.603 98.9894C142.012 99.3644 141.322 99.5519 140.534 99.5519ZM140.534 98.3474C141.133 98.3474 141.625 98.194 142.012 97.8872C142.398 97.5803 142.684 97.1769 142.87 96.6769C143.055 96.1769 143.148 95.6353 143.148 95.0519C143.148 94.4686 143.055 93.925 142.87 93.4213C142.684 92.9175 142.398 92.5103 142.012 92.1997C141.625 91.8891 141.133 91.7338 140.534 91.7338C139.936 91.7338 139.444 91.8891 139.057 92.1997C138.671 92.5103 138.385 92.9175 138.199 93.4213C138.014 93.925 137.921 94.4686 137.921 95.0519C137.921 95.6353 138.014 96.1769 138.199 96.6769C138.385 97.1769 138.671 97.5803 139.057 97.8872C139.444 98.194 139.936 98.3474 140.534 98.3474ZM148.216 99.3701L145.557 90.6428H146.966L148.853 97.3247H148.944L150.807 90.6428H152.239L154.08 97.3019H154.171L156.057 90.6428H157.466L154.807 99.3701H153.489L151.58 92.6656H151.444L149.534 99.3701H148.216ZM163.034 90.6428V91.7792H158.512V90.6428H163.034ZM159.83 88.5519H161.171V96.8701C161.171 97.2489 161.226 97.533 161.336 97.7224C161.449 97.908 161.593 98.033 161.767 98.0974C161.945 98.158 162.133 98.1883 162.33 98.1883C162.478 98.1883 162.599 98.1807 162.694 98.1656C162.788 98.1466 162.864 98.1315 162.921 98.1201L163.194 99.3247C163.103 99.3588 162.976 99.3928 162.813 99.4269C162.65 99.4648 162.444 99.4838 162.194 99.4838C161.815 99.4838 161.444 99.4023 161.08 99.2394C160.72 99.0766 160.421 98.8285 160.182 98.4951C159.947 98.1618 159.83 97.7413 159.83 97.2338V88.5519ZM166.58 94.1201V99.3701H165.239V87.7338H166.58V92.0065H166.694C166.898 91.5557 167.205 91.1978 167.614 90.9326C168.027 90.6637 168.576 90.5292 169.262 90.5292C169.856 90.5292 170.377 90.6485 170.824 90.8872C171.271 91.122 171.618 91.4838 171.864 91.9724C172.114 92.4572 172.239 93.0747 172.239 93.8247V99.3701H170.898V93.9156C170.898 93.2224 170.718 92.6864 170.358 92.3076C170.002 91.925 169.508 91.7338 168.875 91.7338C168.436 91.7338 168.042 91.8266 167.694 92.0122C167.349 92.1978 167.076 92.4686 166.875 92.8247C166.678 93.1807 166.58 93.6125 166.58 94.1201ZM176.692 97.7792L176.601 98.3928C176.537 98.8247 176.438 99.2868 176.306 99.7792C176.177 100.272 176.042 100.736 175.902 101.171C175.762 101.607 175.647 101.953 175.556 102.211H174.533C174.582 101.969 174.647 101.649 174.726 101.251C174.806 100.853 174.885 100.408 174.965 99.9156C175.048 99.4269 175.116 98.9269 175.169 98.4156L175.238 97.7792H176.692ZM189.176 95.8019V90.6428H190.517V99.3701H189.176V97.8928H189.086C188.881 98.336 188.563 98.7129 188.131 99.0235C187.699 99.3303 187.154 99.4838 186.495 99.4838C185.949 99.4838 185.464 99.3644 185.04 99.1258C184.616 98.8834 184.283 98.5197 184.04 98.0349C183.798 97.5463 183.676 96.9307 183.676 96.1883V90.6428H185.017V96.0974C185.017 96.7338 185.195 97.2413 185.551 97.6201C185.911 97.9989 186.37 98.1883 186.926 98.1883C187.26 98.1883 187.599 98.1031 187.944 97.9326C188.292 97.7622 188.584 97.5008 188.819 97.1485C189.057 96.7963 189.176 96.3474 189.176 95.8019ZM199.155 92.5974L197.951 92.9383C197.875 92.7375 197.763 92.5425 197.615 92.3531C197.471 92.1599 197.275 92.0008 197.025 91.8758C196.775 91.7508 196.454 91.6883 196.064 91.6883C195.53 91.6883 195.085 91.8114 194.729 92.0576C194.377 92.3 194.201 92.6088 194.201 92.9838C194.201 93.3171 194.322 93.5803 194.564 93.7735C194.807 93.9667 195.185 94.1277 195.701 94.2565L196.996 94.5747C197.776 94.7641 198.358 95.0538 198.74 95.444C199.123 95.8303 199.314 96.3285 199.314 96.9383C199.314 97.4383 199.17 97.8853 198.882 98.2792C198.598 98.6731 198.201 98.9838 197.689 99.211C197.178 99.4383 196.583 99.5519 195.905 99.5519C195.015 99.5519 194.278 99.3588 193.695 98.9724C193.112 98.586 192.742 98.0216 192.587 97.2792L193.86 96.961C193.981 97.4307 194.21 97.783 194.547 98.0178C194.888 98.2527 195.333 98.3701 195.882 98.3701C196.507 98.3701 197.004 98.2375 197.371 97.9724C197.742 97.7035 197.928 97.3815 197.928 97.0065C197.928 96.7035 197.822 96.4497 197.61 96.2451C197.398 96.0368 197.072 95.8815 196.632 95.7792L195.178 95.4383C194.379 95.2489 193.792 94.9553 193.417 94.5576C193.045 94.1561 192.86 93.6542 192.86 93.0519C192.86 92.5595 192.998 92.1239 193.275 91.7451C193.555 91.3663 193.935 91.069 194.417 90.8531C194.901 90.6372 195.451 90.5292 196.064 90.5292C196.928 90.5292 197.606 90.7186 198.098 91.0974C198.595 91.4762 198.947 91.9762 199.155 92.5974ZM203.901 99.5747C203.348 99.5747 202.846 99.4705 202.395 99.2622C201.944 99.05 201.587 98.7451 201.321 98.3474C201.056 97.9459 200.924 97.461 200.924 96.8928C200.924 96.3928 201.022 95.9875 201.219 95.6769C201.416 95.3625 201.679 95.1163 202.009 94.9383C202.338 94.7603 202.702 94.6277 203.1 94.5406C203.501 94.4497 203.905 94.3777 204.31 94.3247C204.84 94.2565 205.27 94.2053 205.6 94.1713C205.933 94.1334 206.176 94.0709 206.327 93.9838C206.482 93.8966 206.56 93.7451 206.56 93.5292V93.4838C206.56 92.9231 206.407 92.4875 206.1 92.1769C205.797 91.8663 205.337 91.711 204.719 91.711C204.079 91.711 203.577 91.8512 203.213 92.1315C202.85 92.4118 202.594 92.711 202.446 93.0292L201.174 92.5747C201.401 92.0444 201.704 91.6315 202.083 91.336C202.465 91.0368 202.882 90.8285 203.333 90.711C203.787 90.5898 204.234 90.5292 204.674 90.5292C204.954 90.5292 205.276 90.5633 205.64 90.6315C206.007 90.6959 206.361 90.8303 206.702 91.0349C207.047 91.2394 207.333 91.5481 207.56 91.961C207.787 92.3739 207.901 92.9269 207.901 93.6201V99.3701H206.56V98.1883H206.492C206.401 98.3777 206.249 98.5803 206.037 98.7963C205.825 99.0122 205.543 99.1959 205.191 99.3474C204.838 99.4989 204.408 99.5747 203.901 99.5747ZM204.105 98.3701C204.636 98.3701 205.083 98.266 205.446 98.0576C205.814 97.8493 206.09 97.5803 206.276 97.2508C206.465 96.9213 206.56 96.5747 206.56 96.211V94.9838C206.503 95.0519 206.378 95.1144 206.185 95.1713C205.996 95.2243 205.776 95.2716 205.526 95.3133C205.28 95.3512 205.039 95.3853 204.804 95.4156C204.573 95.4421 204.386 95.4648 204.242 95.4838C203.893 95.5292 203.568 95.6031 203.265 95.7053C202.965 95.8038 202.723 95.9535 202.537 96.1542C202.355 96.3512 202.265 96.6201 202.265 96.961C202.265 97.4269 202.437 97.7792 202.782 98.0178C203.13 98.2527 203.571 98.3701 204.105 98.3701ZM210.53 99.3701V87.7338H211.871V92.0292H211.985C212.083 91.8777 212.22 91.6845 212.394 91.4497C212.572 91.211 212.826 90.9989 213.155 90.8133C213.489 90.6239 213.939 90.5292 214.507 90.5292C215.242 90.5292 215.89 90.7129 216.451 91.0803C217.011 91.4478 217.449 91.9686 217.763 92.6428C218.078 93.3171 218.235 94.1125 218.235 95.0292C218.235 95.9535 218.078 96.7546 217.763 97.4326C217.449 98.1069 217.013 98.6296 216.456 99.0008C215.9 99.3682 215.257 99.5519 214.53 99.5519C213.97 99.5519 213.521 99.4591 213.184 99.2735C212.846 99.0841 212.587 98.8701 212.405 98.6315C212.223 98.3891 212.083 98.1883 211.985 98.0292H211.826V99.3701H210.53ZM211.848 95.0065C211.848 95.6656 211.945 96.247 212.138 96.7508C212.331 97.2508 212.614 97.6428 212.985 97.9269C213.356 98.2072 213.81 98.3474 214.348 98.3474C214.909 98.3474 215.377 98.1997 215.752 97.9042C216.131 97.605 216.415 97.2035 216.604 96.6997C216.797 96.1921 216.894 95.6277 216.894 95.0065C216.894 94.3928 216.799 93.8398 216.61 93.3474C216.424 92.8512 216.142 92.4591 215.763 92.1713C215.388 91.8796 214.917 91.7338 214.348 91.7338C213.803 91.7338 213.345 91.872 212.973 92.1485C212.602 92.4213 212.322 92.8038 212.132 93.2963C211.943 93.7849 211.848 94.355 211.848 95.0065ZM220.286 99.3701V90.6428H221.627V99.3701H220.286ZM220.968 89.1883C220.706 89.1883 220.481 89.0993 220.292 88.9213C220.106 88.7432 220.013 88.5292 220.013 88.2792C220.013 88.0292 220.106 87.8152 220.292 87.6372C220.481 87.4591 220.706 87.3701 220.968 87.3701C221.229 87.3701 221.453 87.4591 221.638 87.6372C221.828 87.8152 221.922 88.0292 221.922 88.2792C221.922 88.5292 221.828 88.7432 221.638 88.9213C221.453 89.0993 221.229 89.1883 220.968 89.1883ZM225.424 87.7338V99.3701H224.083V87.7338H225.424ZM227.88 99.3701V90.6428H229.221V99.3701H227.88ZM228.561 89.1883C228.3 89.1883 228.075 89.0993 227.885 88.9213C227.7 88.7432 227.607 88.5292 227.607 88.2792C227.607 88.0292 227.7 87.8152 227.885 87.6372C228.075 87.4591 228.3 87.3701 228.561 87.3701C228.823 87.3701 229.046 87.4591 229.232 87.6372C229.421 87.8152 229.516 88.0292 229.516 88.2792C229.516 88.5292 229.421 88.7432 229.232 88.9213C229.046 89.0993 228.823 89.1883 228.561 89.1883ZM235.472 90.6428V91.7792H230.949V90.6428H235.472ZM232.267 88.5519H233.608V96.8701C233.608 97.2489 233.663 97.533 233.773 97.7224C233.887 97.908 234.031 98.033 234.205 98.0974C234.383 98.158 234.57 98.1883 234.767 98.1883C234.915 98.1883 235.036 98.1807 235.131 98.1656C235.226 98.1466 235.301 98.1315 235.358 98.1201L235.631 99.3247C235.54 99.3588 235.413 99.3928 235.25 99.4269C235.087 99.4648 234.881 99.4838 234.631 99.4838C234.252 99.4838 233.881 99.4023 233.517 99.2394C233.158 99.0766 232.858 98.8285 232.62 98.4951C232.385 98.1618 232.267 97.7413 232.267 97.2338V88.5519ZM238.353 102.643C238.125 102.643 237.923 102.624 237.745 102.586C237.567 102.552 237.444 102.518 237.375 102.484L237.716 101.302C238.042 101.385 238.33 101.416 238.58 101.393C238.83 101.37 239.051 101.258 239.245 101.058C239.442 100.861 239.622 100.541 239.784 100.097L240.034 99.4156L236.807 90.6428H238.262L240.671 97.5974H240.762L243.171 90.6428H244.625L240.921 100.643C240.754 101.094 240.548 101.467 240.301 101.762C240.055 102.061 239.769 102.283 239.444 102.427C239.122 102.571 238.758 102.643 238.353 102.643ZM247.848 97.7792L247.757 98.3928C247.693 98.8247 247.595 99.2868 247.462 99.7792C247.333 100.272 247.199 100.736 247.059 101.171C246.918 101.607 246.803 101.953 246.712 102.211H245.689C245.739 101.969 245.803 101.649 245.882 101.251C245.962 100.853 246.042 100.408 246.121 99.9156C246.204 99.4269 246.273 98.9269 246.326 98.4156L246.394 97.7792H247.848ZM31.7134 123.575C31.1604 123.575 30.6585 123.47 30.2077 123.262C29.757 123.05 29.399 122.745 29.1339 122.347C28.8687 121.946 28.7362 121.461 28.7362 120.893C28.7362 120.393 28.8346 119.988 29.0316 119.677C29.2286 119.363 29.4918 119.116 29.8214 118.938C30.1509 118.76 30.5146 118.628 30.9123 118.541C31.3138 118.45 31.7172 118.378 32.1225 118.325C32.6528 118.256 33.0827 118.205 33.4123 118.171C33.7456 118.133 33.988 118.071 34.1396 117.984C34.2949 117.897 34.3725 117.745 34.3725 117.529V117.484C34.3725 116.923 34.2191 116.488 33.9123 116.177C33.6093 115.866 33.149 115.711 32.5316 115.711C31.8915 115.711 31.3896 115.851 31.0259 116.131C30.6623 116.412 30.4066 116.711 30.2589 117.029L28.9862 116.575C29.2134 116.044 29.5165 115.631 29.8952 115.336C30.2778 115.037 30.6945 114.828 31.1452 114.711C31.5998 114.59 32.0468 114.529 32.4862 114.529C32.7665 114.529 33.0884 114.563 33.4521 114.631C33.8195 114.696 34.1737 114.83 34.5146 115.035C34.8593 115.239 35.1452 115.548 35.3725 115.961C35.5998 116.374 35.7134 116.927 35.7134 117.62V123.37H34.3725V122.188H34.3043C34.2134 122.378 34.0619 122.58 33.8498 122.796C33.6377 123.012 33.3555 123.196 33.0032 123.347C32.6509 123.499 32.221 123.575 31.7134 123.575ZM31.918 122.37C32.4483 122.37 32.8952 122.266 33.2589 122.058C33.6263 121.849 33.9028 121.58 34.0884 121.251C34.2778 120.921 34.3725 120.575 34.3725 120.211V118.984C34.3157 119.052 34.1907 119.114 33.9975 119.171C33.8081 119.224 33.5884 119.272 33.3384 119.313C33.0922 119.351 32.8517 119.385 32.6168 119.416C32.3858 119.442 32.1983 119.465 32.0543 119.484C31.7058 119.529 31.3801 119.603 31.0771 119.705C30.7778 119.804 30.5354 119.953 30.3498 120.154C30.168 120.351 30.0771 120.62 30.0771 120.961C30.0771 121.427 30.2494 121.779 30.5941 122.018C30.9426 122.253 31.3839 122.37 31.918 122.37ZM39.5018 118.12V123.37H38.1609V114.643H39.4563V116.006H39.57C39.7745 115.563 40.0851 115.207 40.5018 114.938C40.9184 114.666 41.4563 114.529 42.1154 114.529C42.7063 114.529 43.2234 114.65 43.6665 114.893C44.1097 115.131 44.4544 115.495 44.7006 115.984C44.9469 116.469 45.07 117.082 45.07 117.825V123.37H43.729V117.916C43.729 117.23 43.551 116.696 43.195 116.313C42.8389 115.927 42.3503 115.734 41.729 115.734C41.301 115.734 40.9184 115.827 40.5813 116.012C40.248 116.198 39.9847 116.469 39.7915 116.825C39.5984 117.181 39.5018 117.613 39.5018 118.12ZM50.8157 123.552C50.0884 123.552 49.4464 123.368 48.8896 123.001C48.3327 122.63 47.8971 122.107 47.5827 121.433C47.2683 120.755 47.1112 119.953 47.1112 119.029C47.1112 118.113 47.2683 117.317 47.5827 116.643C47.8971 115.969 48.3346 115.448 48.8952 115.08C49.4558 114.713 50.1036 114.529 50.8384 114.529C51.4066 114.529 51.8555 114.624 52.185 114.813C52.5183 114.999 52.7721 115.211 52.9464 115.45C53.1244 115.685 53.2627 115.878 53.3612 116.029H53.4748V111.734H54.8157V123.37H53.5202V122.029H53.3612C53.2627 122.188 53.1225 122.389 52.9407 122.631C52.7589 122.87 52.4994 123.084 52.1623 123.274C51.8252 123.459 51.3763 123.552 50.8157 123.552ZM50.9975 122.347C51.5354 122.347 51.9899 122.207 52.3612 121.927C52.7324 121.643 53.0146 121.251 53.2077 120.751C53.4009 120.247 53.4975 119.666 53.4975 119.006C53.4975 118.355 53.4028 117.785 53.2134 117.296C53.024 116.804 52.7437 116.421 52.3725 116.149C52.0013 115.872 51.543 115.734 50.9975 115.734C50.4293 115.734 49.9558 115.88 49.5771 116.171C49.2021 116.459 48.9199 116.851 48.7305 117.347C48.5449 117.84 48.4521 118.393 48.4521 119.006C48.4521 119.628 48.5468 120.192 48.7362 120.7C48.9293 121.203 49.2134 121.605 49.5884 121.904C49.9672 122.2 50.4369 122.347 50.9975 122.347ZM67.4577 119.802V114.643H68.7987V123.37H67.4577V121.893H67.3668C67.1623 122.336 66.8441 122.713 66.4123 123.024C65.9805 123.33 65.435 123.484 64.7759 123.484C64.2305 123.484 63.7456 123.364 63.3214 123.126C62.8971 122.883 62.5638 122.52 62.3214 122.035C62.079 121.546 61.9577 120.931 61.9577 120.188V114.643H63.2987V120.097C63.2987 120.734 63.4767 121.241 63.8327 121.62C64.1926 121.999 64.6509 122.188 65.2077 122.188C65.5411 122.188 65.8801 122.103 66.2248 121.933C66.5733 121.762 66.8649 121.501 67.0998 121.149C67.3384 120.796 67.4577 120.347 67.4577 119.802ZM77.4364 116.597L76.2319 116.938C76.1561 116.738 76.0444 116.542 75.8967 116.353C75.7527 116.16 75.5558 116.001 75.3058 115.876C75.0558 115.751 74.7357 115.688 74.3455 115.688C73.8114 115.688 73.3664 115.811 73.0103 116.058C72.658 116.3 72.4819 116.609 72.4819 116.984C72.4819 117.317 72.6031 117.58 72.8455 117.774C73.0879 117.967 73.4667 118.128 73.9819 118.256L75.2773 118.575C76.0576 118.764 76.6391 119.054 77.0217 119.444C77.4042 119.83 77.5955 120.328 77.5955 120.938C77.5955 121.438 77.4516 121.885 77.1637 122.279C76.8796 122.673 76.4819 122.984 75.9705 123.211C75.4592 123.438 74.8645 123.552 74.1864 123.552C73.2963 123.552 72.5595 123.359 71.9762 122.972C71.3929 122.586 71.0236 122.022 70.8683 121.279L72.141 120.961C72.2622 121.431 72.4914 121.783 72.8285 122.018C73.1694 122.253 73.6145 122.37 74.1637 122.37C74.7887 122.37 75.2849 122.238 75.6523 121.972C76.0236 121.703 76.2092 121.381 76.2092 121.006C76.2092 120.703 76.1031 120.45 75.891 120.245C75.6789 120.037 75.3531 119.881 74.9137 119.779L73.4592 119.438C72.6599 119.249 72.0728 118.955 71.6978 118.558C71.3266 118.156 71.141 117.654 71.141 117.052C71.141 116.56 71.2792 116.124 71.5558 115.745C71.8361 115.366 72.2167 115.069 72.6978 114.853C73.1826 114.637 73.7319 114.529 74.3455 114.529C75.2092 114.529 75.8872 114.719 76.3796 115.097C76.8758 115.476 77.2281 115.976 77.4364 116.597ZM83.2731 123.552C82.4322 123.552 81.7068 123.366 81.0969 122.995C80.4909 122.62 80.0231 122.097 79.6935 121.427C79.3678 120.753 79.2049 119.969 79.2049 119.075C79.2049 118.181 79.3678 117.393 79.6935 116.711C80.0231 116.025 80.4814 115.491 81.0685 115.109C81.6594 114.722 82.3488 114.529 83.1367 114.529C83.5913 114.529 84.0401 114.605 84.4833 114.756C84.9265 114.908 85.3299 115.154 85.6935 115.495C86.0572 115.832 86.3469 116.279 86.5629 116.836C86.7788 117.393 86.8867 118.078 86.8867 118.893V119.461H80.1594V118.302H85.5231C85.5231 117.81 85.4246 117.37 85.2276 116.984C85.0344 116.597 84.7579 116.292 84.3981 116.069C84.042 115.845 83.6216 115.734 83.1367 115.734C82.6026 115.734 82.1405 115.866 81.7504 116.131C81.364 116.393 81.0666 116.734 80.8583 117.154C80.65 117.575 80.5458 118.025 80.5458 118.506V119.279C80.5458 119.938 80.6594 120.497 80.8867 120.955C81.1178 121.41 81.4379 121.756 81.8469 121.995C82.256 122.23 82.7314 122.347 83.2731 122.347C83.6254 122.347 83.9435 122.298 84.2276 122.2C84.5155 122.097 84.7636 121.946 84.9719 121.745C85.1803 121.541 85.3413 121.287 85.4549 120.984L86.7504 121.347C86.614 121.787 86.3848 122.173 86.0629 122.506C85.7409 122.836 85.3432 123.094 84.8697 123.279C84.3962 123.461 83.864 123.552 83.2731 123.552ZM88.9265 123.37V114.643H90.2219V115.961H90.3129C90.4719 115.529 90.7598 115.179 91.1765 114.91C91.5932 114.641 92.0629 114.506 92.5856 114.506C92.6841 114.506 92.8072 114.508 92.9549 114.512C93.1026 114.516 93.2144 114.522 93.2901 114.529V115.893C93.2447 115.881 93.1405 115.864 92.9776 115.842C92.8185 115.815 92.65 115.802 92.4719 115.802C92.0477 115.802 91.6689 115.891 91.3356 116.069C91.006 116.243 90.7447 116.486 90.5515 116.796C90.3621 117.103 90.2674 117.453 90.2674 117.847V123.37H88.9265ZM102.925 123.552C102.107 123.552 101.402 123.359 100.811 122.972C100.221 122.586 99.766 122.054 99.4478 121.376C99.1296 120.698 98.9705 119.923 98.9705 119.052C98.9705 118.166 99.1334 117.383 99.4592 116.705C99.7887 116.024 100.247 115.491 100.834 115.109C101.425 114.722 102.114 114.529 102.902 114.529C103.516 114.529 104.069 114.643 104.561 114.87C105.054 115.097 105.457 115.416 105.772 115.825C106.086 116.234 106.281 116.711 106.357 117.256H105.016C104.914 116.859 104.686 116.506 104.334 116.2C103.986 115.889 103.516 115.734 102.925 115.734C102.402 115.734 101.944 115.87 101.55 116.143C101.16 116.412 100.855 116.792 100.635 117.285C100.419 117.774 100.311 118.347 100.311 119.006C100.311 119.681 100.417 120.268 100.63 120.768C100.846 121.268 101.149 121.656 101.539 121.933C101.933 122.209 102.395 122.347 102.925 122.347C103.274 122.347 103.59 122.287 103.874 122.166C104.158 122.044 104.399 121.87 104.596 121.643C104.792 121.416 104.933 121.143 105.016 120.825H106.357C106.281 121.34 106.094 121.804 105.794 122.217C105.499 122.626 105.107 122.952 104.618 123.194C104.133 123.433 103.569 123.552 102.925 123.552ZM111.863 123.552C111.075 123.552 110.383 123.364 109.789 122.989C109.198 122.614 108.736 122.09 108.402 121.416C108.073 120.741 107.908 119.953 107.908 119.052C107.908 118.143 108.073 117.349 108.402 116.671C108.736 115.993 109.198 115.467 109.789 115.092C110.383 114.717 111.075 114.529 111.863 114.529C112.65 114.529 113.34 114.717 113.931 115.092C114.525 115.467 114.988 115.993 115.317 116.671C115.65 117.349 115.817 118.143 115.817 119.052C115.817 119.953 115.65 120.741 115.317 121.416C114.988 122.09 114.525 122.614 113.931 122.989C113.34 123.364 112.65 123.552 111.863 123.552ZM111.863 122.347C112.461 122.347 112.953 122.194 113.34 121.887C113.726 121.58 114.012 121.177 114.198 120.677C114.383 120.177 114.476 119.635 114.476 119.052C114.476 118.469 114.383 117.925 114.198 117.421C114.012 116.917 113.726 116.51 113.34 116.2C112.953 115.889 112.461 115.734 111.863 115.734C111.264 115.734 110.772 115.889 110.385 116.2C109.999 116.51 109.713 116.917 109.527 117.421C109.342 117.925 109.249 118.469 109.249 119.052C109.249 119.635 109.342 120.177 109.527 120.677C109.713 121.177 109.999 121.58 110.385 121.887C110.772 122.194 111.264 122.347 111.863 122.347ZM119.205 118.12V123.37H117.864V114.643H119.159V116.006H119.273C119.478 115.563 119.788 115.207 120.205 114.938C120.622 114.666 121.159 114.529 121.819 114.529C122.409 114.529 122.926 114.65 123.37 114.893C123.813 115.131 124.158 115.495 124.404 115.984C124.65 116.469 124.773 117.082 124.773 117.825V123.37H123.432V117.916C123.432 117.23 123.254 116.696 122.898 116.313C122.542 115.927 122.053 115.734 121.432 115.734C121.004 115.734 120.622 115.827 120.284 116.012C119.951 116.198 119.688 116.469 119.495 116.825C119.301 117.181 119.205 117.613 119.205 118.12ZM131.11 114.643V115.779H126.405V114.643H131.11ZM127.814 123.37V113.438C127.814 112.938 127.932 112.522 128.167 112.188C128.401 111.855 128.706 111.605 129.081 111.438C129.456 111.272 129.852 111.188 130.269 111.188C130.598 111.188 130.867 111.215 131.076 111.268C131.284 111.321 131.439 111.37 131.542 111.416L131.155 112.575C131.087 112.552 130.992 112.524 130.871 112.489C130.754 112.455 130.598 112.438 130.405 112.438C129.962 112.438 129.642 112.55 129.445 112.774C129.252 112.997 129.155 113.325 129.155 113.756V123.37H127.814ZM132.989 123.37V114.643H134.33V123.37H132.989ZM133.671 113.188C133.409 113.188 133.184 113.099 132.995 112.921C132.809 112.743 132.716 112.529 132.716 112.279C132.716 112.029 132.809 111.815 132.995 111.637C133.184 111.459 133.409 111.37 133.671 111.37C133.932 111.37 134.156 111.459 134.341 111.637C134.531 111.815 134.625 112.029 134.625 112.279C134.625 112.529 134.531 112.743 134.341 112.921C134.156 113.099 133.932 113.188 133.671 113.188ZM140.081 123.552C139.354 123.552 138.712 123.368 138.155 123.001C137.598 122.63 137.163 122.107 136.848 121.433C136.534 120.755 136.377 119.953 136.377 119.029C136.377 118.113 136.534 117.317 136.848 116.643C137.163 115.969 137.6 115.448 138.161 115.08C138.721 114.713 139.369 114.529 140.104 114.529C140.672 114.529 141.121 114.624 141.451 114.813C141.784 114.999 142.038 115.211 142.212 115.45C142.39 115.685 142.528 115.878 142.627 116.029H142.74V111.734H144.081V123.37H142.786V122.029H142.627C142.528 122.188 142.388 122.389 142.206 122.631C142.025 122.87 141.765 123.084 141.428 123.274C141.091 123.459 140.642 123.552 140.081 123.552ZM140.263 122.347C140.801 122.347 141.256 122.207 141.627 121.927C141.998 121.643 142.28 121.251 142.473 120.751C142.667 120.247 142.763 119.666 142.763 119.006C142.763 118.355 142.668 117.785 142.479 117.296C142.29 116.804 142.009 116.421 141.638 116.149C141.267 115.872 140.809 115.734 140.263 115.734C139.695 115.734 139.221 115.88 138.843 116.171C138.468 116.459 138.185 116.851 137.996 117.347C137.81 117.84 137.718 118.393 137.718 119.006C137.718 119.628 137.812 120.192 138.002 120.7C138.195 121.203 138.479 121.605 138.854 121.904C139.233 122.2 139.703 122.347 140.263 122.347ZM150.382 123.552C149.542 123.552 148.816 123.366 148.206 122.995C147.6 122.62 147.132 122.097 146.803 121.427C146.477 120.753 146.314 119.969 146.314 119.075C146.314 118.181 146.477 117.393 146.803 116.711C147.132 116.025 147.591 115.491 148.178 115.109C148.769 114.722 149.458 114.529 150.246 114.529C150.701 114.529 151.15 114.605 151.593 114.756C152.036 114.908 152.439 115.154 152.803 115.495C153.167 115.832 153.456 116.279 153.672 116.836C153.888 117.393 153.996 118.078 153.996 118.893V119.461H147.269V118.302H152.632C152.632 117.81 152.534 117.37 152.337 116.984C152.144 116.597 151.867 116.292 151.507 116.069C151.151 115.845 150.731 115.734 150.246 115.734C149.712 115.734 149.25 115.866 148.86 116.131C148.473 116.393 148.176 116.734 147.968 117.154C147.759 117.575 147.655 118.025 147.655 118.506V119.279C147.655 119.938 147.769 120.497 147.996 120.955C148.227 121.41 148.547 121.756 148.956 121.995C149.365 122.23 149.841 122.347 150.382 122.347C150.735 122.347 151.053 122.298 151.337 122.2C151.625 122.097 151.873 121.946 152.081 121.745C152.29 121.541 152.451 121.287 152.564 120.984L153.86 121.347C153.723 121.787 153.494 122.173 153.172 122.506C152.85 122.836 152.453 123.094 151.979 123.279C151.506 123.461 150.973 123.552 150.382 123.552ZM157.377 118.12V123.37H156.036V114.643H157.331V116.006H157.445C157.65 115.563 157.96 115.207 158.377 114.938C158.793 114.666 159.331 114.529 159.99 114.529C160.581 114.529 161.098 114.65 161.542 114.893C161.985 115.131 162.329 115.495 162.576 115.984C162.822 116.469 162.945 117.082 162.945 117.825V123.37H161.604V117.916C161.604 117.23 161.426 116.696 161.07 116.313C160.714 115.927 160.225 115.734 159.604 115.734C159.176 115.734 158.793 115.827 158.456 116.012C158.123 116.198 157.86 116.469 157.667 116.825C157.473 117.181 157.377 117.613 157.377 118.12ZM168.941 123.552C168.123 123.552 167.418 123.359 166.827 122.972C166.236 122.586 165.782 122.054 165.463 121.376C165.145 120.698 164.986 119.923 164.986 119.052C164.986 118.166 165.149 117.383 165.475 116.705C165.804 116.024 166.263 115.491 166.85 115.109C167.441 114.722 168.13 114.529 168.918 114.529C169.532 114.529 170.085 114.643 170.577 114.87C171.069 115.097 171.473 115.416 171.787 115.825C172.102 116.234 172.297 116.711 172.373 117.256H171.032C170.929 116.859 170.702 116.506 170.35 116.2C170.001 115.889 169.532 115.734 168.941 115.734C168.418 115.734 167.96 115.87 167.566 116.143C167.176 116.412 166.871 116.792 166.651 117.285C166.435 117.774 166.327 118.347 166.327 119.006C166.327 119.681 166.433 120.268 166.645 120.768C166.861 121.268 167.164 121.656 167.554 121.933C167.948 122.209 168.41 122.347 168.941 122.347C169.289 122.347 169.605 122.287 169.89 122.166C170.174 122.044 170.414 121.87 170.611 121.643C170.808 121.416 170.948 121.143 171.032 120.825H172.373C172.297 121.34 172.109 121.804 171.81 122.217C171.515 122.626 171.123 122.952 170.634 123.194C170.149 123.433 169.585 123.552 168.941 123.552ZM177.992 123.552C177.151 123.552 176.426 123.366 175.816 122.995C175.21 122.62 174.742 122.097 174.412 121.427C174.087 120.753 173.924 119.969 173.924 119.075C173.924 118.181 174.087 117.393 174.412 116.711C174.742 116.025 175.2 115.491 175.787 115.109C176.378 114.722 177.068 114.529 177.855 114.529C178.31 114.529 178.759 114.605 179.202 114.756C179.645 114.908 180.049 115.154 180.412 115.495C180.776 115.832 181.066 116.279 181.282 116.836C181.498 117.393 181.605 118.078 181.605 118.893V119.461H174.878V118.302H180.242C180.242 117.81 180.143 117.37 179.946 116.984C179.753 116.597 179.477 116.292 179.117 116.069C178.761 115.845 178.34 115.734 177.855 115.734C177.321 115.734 176.859 115.866 176.469 116.131C176.083 116.393 175.785 116.734 175.577 117.154C175.369 117.575 175.265 118.025 175.265 118.506V119.279C175.265 119.938 175.378 120.497 175.605 120.955C175.837 121.41 176.157 121.756 176.566 121.995C176.975 122.23 177.45 122.347 177.992 122.347C178.344 122.347 178.662 122.298 178.946 122.2C179.234 122.097 179.482 121.946 179.691 121.745C179.899 121.541 180.06 121.287 180.174 120.984L181.469 121.347C181.333 121.787 181.104 122.173 180.782 122.506C180.46 122.836 180.062 123.094 179.588 123.279C179.115 123.461 178.583 123.552 177.992 123.552ZM184.623 123.461C184.342 123.461 184.102 123.361 183.901 123.16C183.7 122.959 183.6 122.719 183.6 122.438C183.6 122.158 183.7 121.917 183.901 121.717C184.102 121.516 184.342 121.416 184.623 121.416C184.903 121.416 185.143 121.516 185.344 121.717C185.545 121.917 185.645 122.158 185.645 122.438C185.645 122.624 185.598 122.794 185.503 122.95C185.412 123.105 185.289 123.23 185.134 123.325C184.982 123.416 184.812 123.461 184.623 123.461Z" fill="white"/>
</g>
<rect x="44.5" y="13.4287" width="30.0176" height="30.0176" rx="15.0088" transform="rotate(90 44.5 13.4287)" fill="url(#paint0_linear_8931_3958)"/>
<g clip-path="url(#clip0_8931_3958)">
<path d="M34.5193 20.491C31.8362 17.7779 27.3944 17.6412 24.5608 20.4214C21.7845 23.1454 21.7966 27.4332 24.2406 30.1618C24.977 30.984 25.3826 32.0279 25.3826 33.1014V34.3759C25.3826 35.1244 25.8785 35.7591 26.559 35.9689V36.6504C26.559 37.6127 27.238 38.3955 28.0727 38.3955H30.9277C31.7623 38.3955 32.4414 37.6127 32.4414 36.6504V35.9689C33.1219 35.7591 33.6179 35.1244 33.6179 34.3759V33.1014C33.6179 32.0279 34.0235 30.984 34.7599 30.1617C37.2153 27.4202 37.1798 23.1812 34.5193 20.491ZM30.9276 37.2191H28.0727C27.9167 37.2191 27.7354 36.9707 27.7354 36.6504V36.0426H31.2648V36.6504C31.2649 36.9707 31.0836 37.2191 30.9276 37.2191ZM32.4413 34.3759C32.4413 34.6463 32.2215 34.8661 31.9512 34.8661H27.0492C26.7789 34.8661 26.559 34.6463 26.559 34.3759V33.6897H32.4413V34.3759ZM33.8835 29.3767C33.088 30.2649 32.5985 31.3612 32.4735 32.5132H26.5268C26.4018 31.3613 25.9124 30.2649 25.1169 29.3768C24.1397 28.2858 23.6074 26.8773 23.618 25.4107C23.6414 22.1863 26.2985 19.5353 29.5711 19.5724C32.7755 19.6102 35.3825 22.2488 35.3825 25.4543C35.3825 26.9045 34.8502 28.2975 33.8835 29.3767Z" fill="white" stroke="white" stroke-width="0.5"/>
</g>
</g>
<defs>
<filter id="filter0_d_8931_3958" x="-0.00171852" y="-0.000226259" width="306.992" height="156.964" filterUnits="userSpaceOnUse" color-interpolation-filters="sRGB">
<feFlood flood-opacity="0" result="BackgroundImageFix"/>
<feColorMatrix in="SourceAlpha" type="matrix" values="0 0 0 0 0 0 0 0 0 0 0 0 0 0 0 0 0 0 127 0" result="hardAlpha"/>
<feOffset dy="1.05325"/>
<feGaussianBlur stdDeviation="7.24109"/>
<feComposite in2="hardAlpha" operator="out"/>
<feColorMatrix type="matrix" values="0 0 0 0 0 0 0 0 0 0 0 0 0 0 0 0 0 0 0.05 0"/>
<feBlend mode="normal" in2="BackgroundImageFix" result="effect1_dropShadow_8931_3958"/>
<feBlend mode="normal" in="SourceGraphic" in2="effect1_dropShadow_8931_3958" result="shape"/>
</filter>
<linearGradient id="paint0_linear_8931_3958" x1="44.5" y1="28.4375" x2="74.5176" y2="28.4375" gradientUnits="userSpaceOnUse">
<stop stop-color="#194BFB"/>
<stop offset="1" stop-color="#7D3AED"/>
</linearGradient>
<clipPath id="clip0_8931_3958">
<rect width="20" height="21" fill="white" transform="translate(19.4922 17.9375)"/>
</clipPath>
</defs>
</svg>
