<svg width="25" height="25" viewBox="0 0 25 25" fill="none" xmlns="http://www.w3.org/2000/svg">
<path d="M23.5433 12.5C23.5433 18.6 18.5992 23.5441 12.4992 23.5441C6.39914 23.5441 1.45508 18.6 1.45508 12.5C1.45508 6.40002 6.39914 1.45593 12.4992 1.45593C18.5992 1.45593 23.5433 6.40159 23.5433 12.5Z" fill="#686868"/>
<path d="M12.5 25C5.60684 25 0 19.3931 0 12.5C0 5.60686 5.60684 0 12.5 0C19.3915 0 25 5.60686 25 12.5C25 19.3931 19.3915 25 12.5 25ZM12.5 2.08725C6.75805 2.08725 2.08723 6.75807 2.08723 12.5C2.08723 18.2419 6.75805 22.9127 12.5 22.9127C18.2419 22.9127 22.9127 18.2404 22.9127 12.5C22.9143 6.75807 18.2419 2.08725 12.5 2.08725Z" fill="#9E9E9E"/>
<path d="M16.4608 12.8471C16.4608 15.082 14.6484 16.8944 12.4135 16.8944C10.1786 16.8944 8.36621 15.082 8.36621 12.8471C8.36621 10.6122 10.1786 8.7998 12.4135 8.7998C14.6484 8.7998 16.4608 10.6122 16.4608 12.8471Z" fill="#353535"/>
</svg>
