<svg width="36" height="36" viewBox="0 0 36 36" fill="none" xmlns="http://www.w3.org/2000/svg">
<g clip-path="url(#clip0_9161_2453)">
<path d="M31.9635 32.4361L27.9301 21.7455C28.3286 21.5053 28.675 21.1866 28.9485 20.8084C29.2424 20.4012 29.4436 19.9338 29.5376 19.4392C29.6317 18.9447 29.6165 18.4354 29.4929 17.9475C29.3885 17.5209 29.406 17.0732 29.5435 16.6563C29.6811 16.2393 29.9329 15.8702 30.27 15.5915C30.6601 15.2692 30.9743 14.8634 31.1898 14.4037C31.4054 13.9439 31.5168 13.4416 31.5162 12.933C31.5156 12.4245 31.4029 11.9225 31.1862 11.4633C30.9695 11.004 30.6543 10.5991 30.2634 10.2777C29.9276 9.99799 29.6772 9.62815 29.5412 9.21098C29.4051 8.7938 29.389 8.34633 29.4947 7.92032C29.6173 7.43329 29.6319 6.92502 29.5376 6.43165C29.4432 5.93827 29.2422 5.47192 28.9487 5.06574C28.6479 4.64851 28.2595 4.3033 27.8111 4.05468C27.3628 3.80606 26.8656 3.66016 26.355 3.62737C25.9157 3.59757 25.4932 3.44514 25.1349 3.18715C24.7767 2.92915 24.4966 2.57576 24.3262 2.1665C24.1354 1.69799 23.8455 1.27709 23.4767 0.933164C23.1079 0.589236 22.6692 0.330563 22.191 0.17519C21.706 0.0153244 21.1922 -0.0359892 20.6855 0.024826C20.1788 0.0856413 19.6914 0.257122 19.2572 0.527316C18.8785 0.760501 18.4435 0.883882 17.9998 0.883882C17.5561 0.883882 17.121 0.760501 16.7424 0.527316C16.3082 0.257112 15.8207 0.0856243 15.314 0.0248089C14.8073 -0.0360066 14.2936 0.015313 13.8086 0.17519C13.3306 0.33069 12.892 0.589412 12.5233 0.933321C12.1547 1.27723 11.8649 1.69805 11.6741 2.16644C11.5032 2.57647 11.2223 2.93038 10.863 3.1885C10.5037 3.44663 10.0802 3.59875 9.63996 3.62782C9.13018 3.66113 8.63396 3.80729 8.18658 4.05589C7.73921 4.3045 7.35169 4.64945 7.05159 5.06619C6.75772 5.47335 6.55657 5.94084 6.46247 6.43535C6.36837 6.92985 6.38365 7.4392 6.50721 7.92707C6.61164 8.35367 6.59408 8.80137 6.45656 9.21834C6.31904 9.6353 6.06718 10.0045 5.73015 10.2831C5.34001 10.6055 5.02582 11.0112 4.81029 11.471C4.59476 11.9307 4.48328 12.433 4.48391 12.9416C4.48454 13.4501 4.59727 13.9521 4.81394 14.4113C5.0306 14.8706 5.3458 15.2755 5.73673 15.5969C6.07251 15.8766 6.32289 16.2464 6.45891 16.6635C6.59493 17.0807 6.61104 17.5281 6.50537 17.9541C6.3828 18.4411 6.36819 18.9494 6.46255 19.4428C6.55692 19.9361 6.75796 20.4025 7.05137 20.8087C7.325 21.1867 7.67142 21.5052 8.06993 21.7452L4.03658 32.4361C3.99857 32.5366 3.98996 32.646 4.01178 32.7513C4.03361 32.8566 4.08494 32.9534 4.15968 33.0301C4.23443 33.1069 4.32946 33.1604 4.43348 33.1844C4.53751 33.2083 4.64617 33.2017 4.74657 33.1652L9.13972 31.5734L11.3723 35.7061C11.4202 35.7949 11.491 35.8691 11.5772 35.9208C11.6634 35.9725 11.7618 35.9997 11.8621 35.9997C11.8747 35.9997 11.8872 35.9992 11.8997 35.9984C12.0062 35.9911 12.1084 35.9533 12.1941 35.8892C12.2799 35.8252 12.3457 35.7378 12.3836 35.6372L16.1598 25.6337C16.3626 25.5564 16.5578 25.4604 16.743 25.3468C17.1215 25.1138 17.5565 24.9905 18.0001 24.9905C18.4436 24.9905 18.8786 25.1138 19.2572 25.3468L19.2577 25.3471C19.4424 25.4591 19.6369 25.5538 19.8389 25.6298L23.6165 35.6367C23.6544 35.7373 23.7202 35.8247 23.806 35.8887C23.8917 35.9528 23.9939 35.9906 24.1004 35.9979C24.1129 35.9987 24.1254 35.9992 24.138 35.9992C24.2383 35.9992 24.3367 35.972 24.423 35.9203C24.5092 35.8686 24.58 35.7944 24.6279 35.7056L26.8604 31.5729L31.2535 33.1647C31.3539 33.2012 31.4626 33.2078 31.5666 33.1839C31.6707 33.1599 31.7657 33.1064 31.8404 33.0296C31.9152 32.9528 31.9665 32.8561 31.9883 32.7508C32.0102 32.6455 32.0015 32.5366 31.9635 32.4361ZM11.7722 34.0942L9.89117 30.6123C9.82745 30.4945 9.72407 30.4035 9.59968 30.3558C9.47529 30.308 9.33807 30.3066 9.21276 30.3519L5.51058 31.6931L9.10635 22.1631C9.28363 22.205 9.46383 22.233 9.64537 22.247C10.0847 22.2769 10.5071 22.4293 10.8654 22.6873C11.2237 22.9453 11.5037 23.2987 11.6741 23.7079C11.8649 24.1764 12.1548 24.5973 12.5235 24.9412C12.8923 25.2851 13.331 25.5438 13.8091 25.6992C14.154 25.8114 14.5139 25.8694 14.8762 25.8712L11.7722 34.0942ZM16.1561 24.3897C15.8599 24.5741 15.5273 24.6911 15.1816 24.7325C14.8359 24.7739 14.4854 24.7388 14.1546 24.6295C13.8307 24.5245 13.5333 24.3495 13.2834 24.1168C13.0334 23.8841 12.8368 23.5992 12.7073 23.282C12.4566 22.6777 12.0439 22.1558 11.5155 21.7747C10.9872 21.3936 10.3639 21.1684 9.71568 21.1243C9.36908 21.1019 9.03163 21.0028 8.72733 20.834C8.42303 20.6653 8.15935 20.431 7.95504 20.1479C7.75741 19.8741 7.62217 19.5597 7.55897 19.2272C7.49577 18.8946 7.50618 18.5521 7.58944 18.2241C7.74501 17.5909 7.7197 16.9262 7.51644 16.3069C7.31318 15.6876 6.94025 15.1389 6.44075 14.7242C6.17742 14.5073 5.96532 14.2341 5.81987 13.9242C5.67442 13.6144 5.59928 13.2758 5.59991 12.9331C5.60053 12.5903 5.67691 12.252 5.82349 11.9427C5.97006 11.6334 6.18316 11.3609 6.44728 11.1451C6.94557 10.7293 7.31707 10.18 7.51889 9.56055C7.72072 8.94107 7.74463 8.27668 7.58788 7.64408C7.50558 7.31687 7.49582 6.9754 7.5593 6.64396C7.62278 6.31252 7.75793 5.99926 7.95515 5.72645C8.16026 5.4427 8.42493 5.20805 8.73029 5.03923C9.03566 4.8704 9.37421 4.77155 9.72182 4.74973C10.369 4.70479 10.9911 4.4792 11.5183 4.09818C12.0456 3.71716 12.4573 3.19576 12.7074 2.59231C12.8368 2.27509 13.0334 1.99018 13.2834 1.75749C13.5333 1.5248 13.8307 1.34994 14.1547 1.24512C14.4856 1.13593 14.8362 1.10081 15.182 1.14222C15.5277 1.18362 15.8604 1.30055 16.1567 1.48486C16.7119 1.82665 17.3499 2.00748 18.0005 2.00748C18.651 2.00748 19.289 1.82665 19.8442 1.48486C20.1404 1.3006 20.473 1.1837 20.8187 1.14229C21.1643 1.10089 21.5148 1.13598 21.8456 1.24512C22.1696 1.35012 22.4669 1.52508 22.7169 1.7578C22.9668 1.99052 23.1634 2.27541 23.293 2.59259C23.5436 3.19684 23.9563 3.71877 24.4847 4.09988C25.0131 4.48098 25.6363 4.7062 26.2845 4.75029C26.6311 4.77271 26.9686 4.87183 27.2729 5.04059C27.5772 5.20935 27.8409 5.44362 28.0452 5.72674C28.2428 6.0005 28.3781 6.31488 28.4413 6.64742C28.5045 6.97996 28.4941 7.32247 28.4108 7.65049C28.2552 8.28369 28.2805 8.94835 28.4838 9.56767C28.6871 10.187 29.06 10.7357 29.5595 11.1504C29.8228 11.3673 30.0349 11.6405 30.1804 11.9503C30.3258 12.2602 30.4009 12.5988 30.4003 12.9415C30.3997 13.2843 30.3233 13.6226 30.1767 13.9319C30.0302 14.2412 29.8171 14.5136 29.5529 14.7295C29.0547 15.1452 28.6832 15.6945 28.4813 16.3139C28.2795 16.9334 28.2555 17.5978 28.4122 18.2303C28.4946 18.5575 28.5043 18.899 28.4408 19.2305C28.3774 19.5619 28.2422 19.8752 28.045 20.148C27.8399 20.4317 27.5752 20.6664 27.2698 20.8352C26.9645 21.004 26.6259 21.1029 26.2783 21.1247C25.6311 21.1696 25.009 21.3952 24.4818 21.7762C23.9545 22.1573 23.5428 22.6787 23.2927 23.2821C23.1633 23.5993 22.9668 23.8842 22.7168 24.1169C22.4668 24.3496 22.1694 24.5245 21.8454 24.6293C21.5145 24.7388 21.1639 24.7741 20.8181 24.7327C20.4723 24.6913 20.1396 24.5742 19.8434 24.3896C19.2882 24.0478 18.6502 23.867 17.9997 23.8671C17.3492 23.8671 16.7112 24.0479 16.1561 24.3897ZM26.7874 30.3517C26.6621 30.3064 26.5248 30.3077 26.4004 30.3555C26.276 30.4032 26.1726 30.4942 26.1089 30.6121L24.2279 34.0939L21.1243 25.8725C21.4866 25.8703 21.8463 25.812 22.191 25.6995C22.6692 25.544 23.108 25.2853 23.4768 24.9413C23.8456 24.5974 24.1356 24.1764 24.3265 23.7079C24.4973 23.2979 24.778 22.9439 25.1372 22.6858C25.4964 22.4276 25.9199 22.2755 26.3602 22.2466C26.5399 22.2327 26.7184 22.2049 26.894 22.1635L30.4895 31.693L26.7874 30.3517Z" fill="white" stroke="white" stroke-width="0.5"/>
<path d="M26.37 12.9375C26.37 11.2687 25.8791 9.63743 24.9594 8.24989C24.0397 6.86234 22.7325 5.78089 21.2031 5.14227C19.6737 4.50366 17.9908 4.33656 16.3672 4.66213C14.7436 4.98769 13.2522 5.79129 12.0816 6.97129C10.9111 8.1513 10.1139 9.65472 9.79096 11.2914C9.468 12.9282 9.63375 14.6247 10.2673 16.1664C10.9008 17.7082 11.9735 19.0259 13.35 19.9531C14.7264 20.8802 16.3446 21.375 18.0001 21.375C20.2191 21.3725 22.3466 20.4828 23.9158 18.901C25.4849 17.3192 26.3675 15.1745 26.37 12.9375ZM18.0001 20.25C16.5654 20.25 15.1629 19.8212 13.97 19.0176C12.7771 18.2141 11.8473 17.0721 11.2983 15.7359C10.7493 14.3997 10.6056 12.9294 10.8855 11.5109C11.1654 10.0924 11.8563 8.78946 12.8707 7.76679C13.8852 6.74412 15.1778 6.04767 16.5849 5.76551C17.992 5.48336 19.4505 5.62817 20.776 6.18164C22.1015 6.7351 23.2344 7.67237 24.0315 8.8749C24.8285 10.0774 25.254 11.4912 25.254 12.9375C25.2518 14.8762 24.4869 16.7349 23.127 18.1058C21.7671 19.4767 19.9232 20.2478 18.0001 20.25Z" fill="white" stroke="white" stroke-width="0.5"/>
<path d="M22.4365 11.072L19.7157 10.6735L18.4989 8.18838C18.4476 8.10066 18.3745 8.02796 18.2867 7.97746C18.199 7.92695 18.0997 7.90039 17.9987 7.90039C17.8977 7.90039 17.7984 7.92695 17.7107 7.97746C17.6229 8.02796 17.5498 8.10066 17.4985 8.18838L16.2817 10.6735L13.5609 11.072C13.4578 11.0871 13.361 11.1309 13.2813 11.1985C13.2016 11.2662 13.1423 11.355 13.1101 11.4548C13.0779 11.5547 13.0741 11.6616 13.099 11.7636C13.124 11.8655 13.1768 11.9584 13.2514 12.0317L15.2207 13.9661L14.7559 16.6976C14.7384 16.801 14.7499 16.9072 14.7891 17.0044C14.8283 17.1015 14.8936 17.1857 14.9778 17.2474C15.0619 17.309 15.1615 17.3458 15.2653 17.3534C15.369 17.361 15.4729 17.3393 15.565 17.2906L17.9987 16.0011L20.4323 17.2906C20.5244 17.3393 20.6282 17.361 20.732 17.3534C20.8358 17.3458 20.9353 17.309 21.0195 17.2474C21.1036 17.1857 21.169 17.1015 21.2082 17.0044C21.2474 16.9072 21.2589 16.801 21.2414 16.6976L20.7766 13.9661L22.7459 12.0317C22.8205 11.9584 22.8733 11.8655 22.8982 11.7636C22.9232 11.6616 22.9194 11.5547 22.8872 11.4548C22.855 11.355 22.7957 11.2662 22.716 11.1985C22.6363 11.1309 22.5396 11.0871 22.4365 11.072ZM19.7877 13.367C19.723 13.4308 19.6746 13.5094 19.6467 13.5961C19.6188 13.6828 19.6122 13.7751 19.6274 13.865L19.9506 15.7645L18.2581 14.8677C18.178 14.8253 18.089 14.8032 17.9986 14.8032C17.9082 14.8032 17.8191 14.8253 17.7391 14.8677L16.0468 15.7643L16.37 13.8647C16.3852 13.7749 16.3786 13.6826 16.3507 13.5959C16.3228 13.5091 16.2744 13.4305 16.2097 13.3668L14.8404 12.0215L16.7324 11.7444C16.822 11.7313 16.907 11.6964 16.9802 11.6428C17.0534 11.5891 17.1126 11.5183 17.1526 11.4365L17.9987 9.70848L18.845 11.4366C18.8849 11.5184 18.9441 11.5892 19.0173 11.6429C19.0905 11.6965 19.1755 11.7314 19.2651 11.7445L21.1571 12.0217L19.7877 13.367Z" fill="white" stroke="white" stroke-width="0.5"/>
</g>
<defs>
<clipPath id="clip0_9161_2453">
<rect width="36" height="36" fill="white"/>
</clipPath>
</defs>
</svg>
