<svg width="36" height="36" viewBox="0 0 36 36" fill="none" xmlns="http://www.w3.org/2000/svg">
<g clip-path="url(#clip0_9161_2440)">
<path d="M35.6911 24.707L32.9027 21.9185V12.3538L34.7231 11.6975C35.141 11.5468 35.4197 11.1505 35.4201 10.7061C35.4204 10.2619 35.1423 9.86507 34.7245 9.71384L18.0691 3.68203C17.8371 3.59801 17.5828 3.59801 17.3509 3.68203L0.695542 9.71384C0.279402 9.86458 0.00169383 10.259 6.49523e-06 10.7016C-0.00154023 11.1441 0.273285 11.5406 0.68823 11.6944L6.83499 13.9714V20.9215C6.83499 21.1372 6.90108 21.3478 7.02447 21.5247C7.09231 21.622 7.73498 22.4996 9.38041 23.3278C11.4591 24.3742 14.1856 24.9048 17.4839 24.9048C20.7799 24.9048 23.5201 24.3753 25.6285 23.3309C27.2902 22.5079 27.9542 21.6394 28.0245 21.5431C28.1561 21.3627 28.2271 21.1451 28.2271 20.9216V14.0394L30.7936 13.1141V21.9185L28.0051 24.707C27.8073 24.9047 27.6962 25.173 27.6962 25.4526C27.6962 25.7323 27.8073 26.0006 28.0051 26.1983L30.7936 28.9867V31.3263C30.7936 31.9087 31.2658 32.3808 31.8482 32.3808C32.4306 32.3808 32.9028 31.9087 32.9028 31.3263V28.9867L35.6912 26.1983C36.103 25.7866 36.103 25.1188 35.6911 24.707ZM17.71 5.79521L31.2622 10.7032L17.4889 15.6688L4.1207 10.7166L17.71 5.79521ZM26.1178 20.5012C22.5126 23.7453 11.7996 23.3733 8.94417 20.5118V14.7527L17.1176 17.7805C17.2473 17.801 17.3698 17.9129 17.8416 17.7838L26.1179 14.8L26.1178 20.5012ZM31.8481 27.0586L30.2421 25.4526L31.8481 23.8466L33.454 25.4526L31.8481 27.0586Z" fill="white"/>
</g>
<defs>
<clipPath id="clip0_9161_2440">
<rect width="36" height="36" fill="white"/>
</clipPath>
</defs>
</svg>
