<svg width="110" height="45" viewBox="0 0 110 45" fill="none" xmlns="http://www.w3.org/2000/svg">
<path d="M102.897 23.4387C108.946 23.7251 111.577 16.6578 106.353 13.5951C90.8271 4.49294 73.0038 -0.265693 54.7773 0.0114542C36.1036 0.295402 18.0136 5.84999 2.52093 15.8691C-2.3254 19.0032 0.334887 25.7266 6.0984 25.424C9.9107 25.2238 12.9875 28.4998 12.549 32.2921L11.9489 37.4816C11.211 43.8622 14.7671 46.0203 20.4797 43.0838C30.3343 38.0183 45.2895 31.8088 55.2585 31.6572C65.0912 31.5077 79.9364 36.9041 89.9369 41.584C95.7777 44.3173 98.9919 42.0315 97.469 35.7651L96.3901 31.3253C95.3836 27.1835 98.6398 23.237 102.897 23.4387Z" fill="url(#paint0_linear_8989_2430)"/>
<defs>
<linearGradient id="paint0_linear_8989_2430" x1="0" y1="22.1875" x2="109.151" y2="22.1875" gradientUnits="userSpaceOnUse">
<stop stop-color="#194BFB"/>
<stop offset="1" stop-color="#7D3AED"/>
</linearGradient>
</defs>
</svg>
