<svg width="119" height="46" viewBox="0 0 119 46" fill="none" xmlns="http://www.w3.org/2000/svg">
<path d="M1.28663 28.3362C-0.566247 26.2887 -0.416145 23.1153 1.72573 21.3723C17.724 8.35376 37.5587 0.849231 58.2598 0.0678379C78.961 -0.713555 99.3049 5.27438 116.239 17.0499C118.506 18.6264 118.895 21.7794 117.202 23.9608L107.84 25.892C105.981 26.2754 104.648 27.9119 104.648 29.8095V40.134C102.955 42.3153 99.823 42.693 97.5176 41.1729C86.2717 33.7578 72.9529 30.0087 59.4093 30.52C45.8657 31.0312 32.8674 35.7737 22.2125 44.0154C20.0282 45.7049 16.8771 45.5644 15.0242 43.5169L13.8303 33.4631C13.6226 31.7148 12.2963 30.3078 10.5633 29.9975L1.28663 28.3362Z" fill="url(#paint0_linear_9004_2510)"/>
<defs>
<linearGradient id="paint0_linear_9004_2510" x1="0" y1="22.5889" x2="118.249" y2="22.5889" gradientUnits="userSpaceOnUse">
<stop stop-color="#194BFB"/>
<stop offset="1" stop-color="#7D3AED"/>
</linearGradient>
</defs>
</svg>
