<svg width="764" height="292" viewBox="0 0 764 292" fill="none" xmlns="http://www.w3.org/2000/svg">
<path d="M8.3068 182.946C-3.65584 169.727 -2.68674 149.238 11.1417 137.986C114.431 53.9341 242.489 5.48286 376.141 0.437979C509.793 -4.6069 641.139 34.0528 750.471 110.079C765.108 120.257 767.619 140.614 756.687 154.697L696.242 167.166C684.243 169.641 675.634 180.207 675.634 192.458V259.116C664.702 273.199 644.484 275.637 629.6 265.823C556.993 217.95 471.003 193.744 383.562 197.045C296.121 200.346 212.201 230.964 143.41 284.175C129.307 295.083 108.963 294.176 97.0005 280.957L89.2919 216.047C87.9514 204.759 79.3882 195.676 68.1994 193.672L8.3068 182.946Z" fill="url(#paint0_linear_8998_2497)"/>
<defs>
<linearGradient id="paint0_linear_8998_2497" x1="0" y1="145.84" x2="763.446" y2="145.84" gradientUnits="userSpaceOnUse">
<stop stop-color="#194BFB"/>
<stop offset="1" stop-color="#7D3AED"/>
</linearGradient>
</defs>
</svg>
