<svg width="110" height="46" viewBox="0 0 110 46" fill="none" xmlns="http://www.w3.org/2000/svg">
<path d="M108.155 22.8208C108.81 24.6412 108.334 26.8226 106.121 28.2583C90.9215 38.1205 73.1798 43.6392 54.8393 44.0248C36.6397 44.4075 18.8169 39.7147 3.29991 30.6387C1.13014 29.3695 0.64745 27.354 1.22637 25.6823C1.81514 23.9826 3.54601 22.5284 6.1113 22.5975C10.8927 22.7261 14.5265 18.3348 13.5062 13.6617L12.613 9.56985C11.9501 6.53394 12.5585 4.88286 13.5049 4.18324C14.4849 3.45908 16.364 3.33726 19.2046 4.64175C24.2508 6.95917 30.4925 9.44009 36.7114 11.3183C42.9126 13.1911 49.1691 14.4887 54.2159 14.3826C59.5147 14.2712 66.0819 12.504 72.4956 10.1503C78.9298 7.78901 85.2974 4.80415 90.2274 2.18942C91.4994 1.51481 92.5597 1.15209 93.4007 1.03916C94.2368 0.926935 94.7862 1.06855 95.1438 1.31214C95.4954 1.55169 95.8083 1.98939 95.9727 2.77404C96.1394 3.57008 96.1375 4.66278 95.8911 6.07808L95.1654 10.2463C94.3266 15.0637 98.0508 19.4661 102.941 19.4378C105.632 19.4221 107.492 20.9754 108.155 22.8208Z" fill="url(#paint0_linear_9004_2523)" fill-opacity="0.6" stroke="url(#paint1_linear_9004_2523)" stroke-width="2"/>
<defs>
<linearGradient id="paint0_linear_9004_2523" x1="87.79" y1="-15.6974" x2="20.1873" y2="52.6965" gradientUnits="userSpaceOnUse">
<stop stop-color="#194BFB"/>
<stop offset="1" stop-color="#7D3AED"/>
</linearGradient>
<linearGradient id="paint1_linear_9004_2523" x1="87.79" y1="-15.6974" x2="20.1873" y2="52.6965" gradientUnits="userSpaceOnUse">
<stop stop-color="#194BFB"/>
<stop offset="1" stop-color="#7D3AED"/>
</linearGradient>
</defs>
</svg>
